<svg width="247" height="161" viewBox="0 0 247 161" fill="none" xmlns="http://www.w3.org/2000/svg">
<rect width="247" height="161" fill="#F5F5F5"/>
<g clip-path="url(#clip0_17_6)">
<rect width="1440" height="6157" transform="translate(-1061 -3377)" fill="white"/>
<g clip-path="url(#clip1_17_6)">
<rect x="-23" y="-121" width="282" height="282" rx="12" fill="white"/>
<path fill-rule="evenodd" clip-rule="evenodd" d="M118.5 47C55.7046 47 4.72851 97.4366 4.12675 159.882L4.13187 159.882L4.51386 159.882L4.89812 159.882L5.28471 159.882L5.67363 159.882L6.0648 159.882L6.45822 159.882L6.85399 159.882L7.25191 159.882L7.6521 159.882L8.05449 159.882L8.45912 159.882L8.86591 159.882L9.2749 159.882L9.68613 159.882L10.0995 159.882L10.5149 159.882L10.9325 159.882L11.3523 159.882L11.7742 159.882L12.1981 159.882L12.6241 159.882L13.0523 159.882L13.4825 159.882L13.9147 159.882L14.349 159.882L14.7853 159.882L15.2236 159.882L15.664 159.882L16.1063 159.882L16.5506 159.882L16.9969 159.882L17.4451 159.882L17.8953 159.882L18.3474 159.882L18.8014 159.882L19.2574 159.882L19.7152 159.882L20.1749 159.882L20.6365 159.882L21.0999 159.882L21.5652 159.882L22.0323 159.882L22.5013 159.882L22.972 159.882L23.4445 159.882L23.9189 159.882L24.395 159.882L24.8729 159.882L25.3525 159.882L25.8339 159.882L26.317 159.882L26.8018 159.882L27.2883 159.882L27.7765 159.882L28.2663 159.882L28.7579 159.882L29.2511 159.882L29.7459 159.882L30.2424 159.882L30.7405 159.882L31.2402 159.882L31.7414 159.882L32.2443 159.882L32.7487 159.882L33.2547 159.882L33.7622 159.882L34.2713 159.882L34.7819 159.882L35.294 159.882L35.8076 159.882L36.3226 159.882L36.8392 159.882L37.3572 159.882L37.8766 159.882L38.3975 159.882L38.9198 159.882L39.4435 159.882L39.9686 159.882L40.4951 159.882L41.023 159.882L41.5523 159.882L42.0829 159.882L42.6148 159.882L43.1481 159.882L43.6826 159.882L44.2185 159.882L44.7556 159.882L45.2941 159.882L45.8338 159.882L46.3748 159.882L46.917 159.882L47.4604 159.882L48.0051 159.882L48.5509 159.882L49.098 159.882L49.6463 159.882L50.1956 159.882L50.7462 159.882L51.2979 159.882L51.8508 159.882L52.4047 159.882L52.9598 159.882L53.516 159.882L54.0732 159.882L54.6315 159.882L55.1909 159.882L55.7514 159.882L56.3128 159.882L56.8753 159.882L57.4388 159.882L58.0033 159.882L58.5688 159.882L59.1353 159.882L59.7027 159.882L60.2711 159.882L60.8405 159.882L61.4107 159.882L61.9819 159.882L62.5539 159.882L63.1269 159.882L63.7008 159.882L64.2755 159.882L64.851 159.882L65.4274 159.882L66.0047 159.882L66.5827 159.882L67.1616 159.882L67.7413 159.882L68.3217 159.882L68.9029 159.882L69.4849 159.882L70.0676 159.882L70.651 159.882L71.2352 159.882L71.8201 159.882L72.4056 159.882L72.9919 159.882L73.5789 159.882L74.1664 159.882L74.7547 159.882L75.3436 159.882L75.9331 159.882L76.5232 159.882L77.1139 159.882L77.7052 159.882L78.2971 159.882L78.8896 159.882L79.4826 159.882L80.0761 159.882L80.6702 159.882L81.2648 159.882L81.8599 159.882L82.4554 159.882L83.0515 159.882L83.648 159.882L84.245 159.882L84.8425 159.882L85.4403 159.882L86.0386 159.882L86.6373 159.882L87.2364 159.882L87.8358 159.882L88.4357 159.882L89.0359 159.882L89.6364 159.882L90.2373 159.882L90.8385 159.882L91.44 159.882L92.0418 159.882L92.644 159.882L93.2463 159.882L93.8489 159.882L94.4518 159.882L95.0549 159.882L95.6583 159.882L96.2618 159.882L96.8656 159.882L97.4696 159.882L98.0737 159.882L98.678 159.882L99.2824 159.882L99.887 159.882L100.492 159.882L101.097 159.882L101.702 159.882L102.307 159.882L102.912 159.882L103.517 159.882L104.122 159.882L104.727 159.882L105.333 159.882L105.938 159.882L106.543 159.882L107.149 159.882L107.754 159.882L108.359 159.882L108.965 159.882L109.57 159.882L110.175 159.882L110.78 159.882L111.385 159.882L111.99 159.882L112.595 159.882L113.199 159.882L113.804 159.882L114.408 159.882L115.012 159.882L115.616 159.882L116.22 159.882L116.824 159.882L117.427 159.882L118.03 159.882L118.633 159.882L119.236 159.882L119.838 159.882L120.441 159.882L121.042 159.882L121.644 159.882L122.245 159.882L122.846 159.882L123.447 159.882L124.047 159.882L124.647 159.882L125.247 159.882L125.846 159.882L126.445 159.882L127.043 159.882L127.641 159.882L128.239 159.882L128.836 159.882L129.433 159.882L130.029 159.882L130.625 159.882L131.22 159.882L131.815 159.882L132.409 159.882L133.003 159.882L133.596 159.882L134.188 159.882L134.78 159.882L135.372 159.882L135.963 159.882L136.553 159.882L137.143 159.882L137.732 159.882L138.32 159.882L138.908 159.882L139.495 159.882L140.082 159.882L140.668 159.882L141.253 159.882L141.837 159.882L142.421 159.882L143.004 159.882L143.586 159.882L144.167 159.882L144.748 159.882L145.328 159.882L145.907 159.882L146.485 159.882L147.063 159.882L147.64 159.882L148.215 159.882L148.79 159.882L149.365 159.882L149.938 159.882L150.51 159.882L151.082 159.882L151.652 159.882L152.222 159.882L152.791 159.882L153.358 159.882L153.925 159.882L154.491 159.882L155.056 159.882L155.619 159.882L156.182 159.882L156.744 159.882L157.305 159.882L157.865 159.882L158.423 159.882L158.981 159.882L159.537 159.882L160.093 159.882L160.647 159.882L161.2 159.882L161.752 159.882L162.303 159.882L162.853 159.882L163.402 159.882L163.949 159.882L164.495 159.882L165.04 159.882L165.584 159.882L166.127 159.882L166.668 159.882L167.208 159.882L167.747 159.882L168.285 159.882L168.821 159.882L169.356 159.882L169.89 159.882L170.422 159.882L170.953 159.882L171.483 159.882L172.011 159.882L172.538 159.882L173.064 159.882L173.588 159.882L174.111 159.882L174.632 159.882L175.152 159.882L175.67 159.882L176.187 159.882L176.703 159.882L177.217 159.882L177.729 159.882L178.241 159.882L178.75 159.882L179.258 159.882L179.765 159.882L180.27 159.882L180.773 159.882L181.275 159.882L181.775 159.882L182.273 159.882L182.77 159.882L183.266 159.882L183.76 159.882L184.252 159.882L184.742 159.882L185.231 159.882L185.718 159.882L186.203 159.882L186.687 159.882L187.169 159.882L187.649 159.882L188.127 159.882L188.604 159.882L189.079 159.882L189.552 159.882L190.023 159.882L190.493 159.882L190.961 159.882L191.426 159.882L191.891 159.882L192.353 159.882L192.813 159.882L193.271 159.882L193.728 159.882L194.183 159.882L194.635 159.882L195.086 159.882L195.535 159.882L195.982 159.882L196.427 159.882L196.87 159.882L197.311 159.882L197.75 159.882L198.187 159.882L198.622 159.882L199.055 159.882L199.485 159.882L199.914 159.882L200.341 159.882L200.766 159.882L201.188 159.882L201.608 159.882L202.027 159.882L202.443 159.882L202.857 159.882L203.269 159.882L203.679 159.882L204.086 159.882L204.491 159.882L204.894 159.882L205.295 159.882L205.694 159.882L206.09 159.882L206.485 159.882L206.877 159.882L207.266 159.882L207.654 159.882L208.039 159.882L208.421 159.882L208.802 159.882L209.18 159.882L209.555 159.882L209.929 159.882L210.3 159.882L210.668 159.882L211.034 159.882L211.398 159.882L211.76 159.882L212.118 159.882L212.475 159.882L212.829 159.882L213.18 159.882L213.529 159.882L213.876 159.882L214.22 159.882L214.562 159.882L214.901 159.882L215.237 159.882L215.571 159.882L215.902 159.882L216.231 159.882L216.557 159.882L216.881 159.882L217.201 159.882L217.52 159.882L217.835 159.882L218.148 159.882L218.459 159.882L218.766 159.882L219.071 159.882L219.374 159.882L219.673 159.882L219.97 159.882L220.264 159.882L220.555 159.882L220.844 159.882L221.13 159.882L221.413 159.882L221.693 159.882L221.97 159.882L222.245 159.882L222.517 159.882L222.785 159.882L223.052 159.882L223.315 159.882L223.575 159.882L223.832 159.882L224.087 159.882L224.338 159.882L224.587 159.882L224.833 159.882L225.075 159.882L225.315 159.882L225.552 159.882L225.786 159.882L226.016 159.882L226.244 159.882L226.469 159.882L226.691 159.882L226.909 159.882L227.125 159.882L227.337 159.882L227.547 159.882L227.753 159.882L227.956 159.882L228.156 159.882L228.353 159.882L228.547 159.882L228.738 159.882L228.925 159.882L229.109 159.882L229.29 159.882L229.468 159.882L229.643 159.882L229.814 159.882L229.982 159.882L230.147 159.882L230.309 159.882L230.467 159.882L230.622 159.882L230.774 159.882L230.922 159.882L231.067 159.882L231.209 159.882L231.347 159.882L231.482 159.882L231.614 159.882L231.742 159.882L231.867 159.882L231.989 159.882L232.107 159.882L232.221 159.882L232.332 159.882L232.44 159.882L232.544 159.882L232.645 159.882L232.742 159.882L232.836 159.882L232.873 159.882C232.272 97.4366 181.295 47 118.5 47Z" fill="#F2AE2E"/>
<g clip-path="url(#clip2_17_6)">
<mask id="mask0_17_6" style="mask-type:luminance" maskUnits="userSpaceOnUse" x="-38" y="-35" width="312" height="234">
<path d="M274 -35H-38V199H274V-35Z" fill="white"/>
</mask>
<g mask="url(#mask0_17_6)">
<mask id="mask1_17_6" style="mask-type:luminance" maskUnits="userSpaceOnUse" x="-21" y="-9" width="278" height="182">
<path d="M256.592 -8.32422H-20.5916V172.324H256.592V-8.32422Z" fill="white"/>
</mask>
<g mask="url(#mask1_17_6)">
<path d="M202.691 0.67041C178.746 0.67041 159.334 15.0399 159.334 32.7656C159.334 45.4522 169.28 56.4169 183.713 61.6271L177.353 84.5684L201.648 64.8413C201.996 64.8474 202.341 64.8608 202.691 64.8608C226.636 64.8608 246.048 50.4913 246.048 32.7655C246.048 15.0398 226.636 0.67041 202.691 0.67041Z" fill="#FB81B2"/>
<mask id="mask2_17_6" style="mask-type:luminance" maskUnits="userSpaceOnUse" x="159" y="0" width="88" height="85">
<path d="M202.691 0.67041C178.746 0.67041 159.334 15.0399 159.334 32.7656C159.334 45.4522 169.28 56.4169 183.713 61.6271L177.353 84.5684L201.648 64.8413C201.996 64.8474 202.341 64.8608 202.691 64.8608C226.636 64.8608 246.048 50.4913 246.048 32.7655C246.048 15.0398 226.636 0.67041 202.691 0.67041Z" fill="white"/>
</mask>
<g mask="url(#mask2_17_6)">
<path d="M218.993 -2.69531C259.199 29.426 223.331 61.5474 223.331 61.5474L261.224 57.2721L257.846 10.8185" fill="#EA70A2"/>
</g>
<path d="M202.691 0.67041C178.746 0.67041 159.334 15.0399 159.334 32.7656C159.334 45.4522 169.28 56.4169 183.713 61.6271L177.353 84.5684L201.648 64.8413C201.996 64.8474 202.341 64.8608 202.691 64.8608C226.636 64.8608 246.048 50.4913 246.048 32.7655C246.048 15.0398 226.636 0.67041 202.691 0.67041Z" stroke="#190000" stroke-width="0.5" stroke-linecap="round" stroke-linejoin="round"/>
<path d="M188.73 18.8867C187.886 21.5708 186.192 23.9077 183.903 25.5449" stroke="#BA393C" stroke-width="11" stroke-linecap="round" stroke-linejoin="round"/>
<path d="M213.926 52.627H214.77" stroke="#2976DF" stroke-width="11" stroke-linecap="round" stroke-linejoin="round"/>
<path d="M131.879 203.26C131.879 203.26 141.63 204.619 146.911 199.678L141.736 147.834L127.41 85.0933L107.023 87.4887L111.922 107.561L123.754 147.915L131.879 203.26Z" fill="white"/>
<mask id="mask3_17_6" style="mask-type:luminance" maskUnits="userSpaceOnUse" x="107" y="85" width="40" height="119">
<path d="M131.879 203.26C131.879 203.26 141.63 204.619 146.911 199.678L141.736 147.834L127.41 85.0933L107.023 87.4887L111.922 107.561L123.754 147.915L131.879 203.26Z" fill="white"/>
</mask>
<g mask="url(#mask3_17_6)">
<path d="M116.732 113.81C121.329 108.219 120.185 121.712 124.071 144.262C127.958 166.813 108.846 144.064 108.846 144.064" fill="#D6DCF2"/>
<path d="M125.702 97.0362L138.972 147.313L144.841 206.41L159.008 194.874L155.365 140.027L129.599 93.373" fill="#FBD164"/>
<path d="M125.702 97.0362L138.972 147.313L144.841 206.41L159.008 194.874L155.365 140.027L129.599 93.373" stroke="#190000" stroke-width="0.5" stroke-linecap="round" stroke-linejoin="round"/>
</g>
<path d="M131.879 203.26C131.879 203.26 141.63 204.619 146.911 199.678L141.736 147.834L127.41 85.0933L107.023 87.4887L111.922 107.561L123.754 147.915L131.879 203.26Z" stroke="#190000" stroke-width="0.5" stroke-linecap="round" stroke-linejoin="round"/>
<path d="M116.535 88.6226H97.373V145.941L101.639 201.796C101.639 201.796 111.999 205.09 118.296 201.796L117.077 146.347L116.754 111.895" fill="white"/>
<mask id="mask4_17_6" style="mask-type:luminance" maskUnits="userSpaceOnUse" x="97" y="88" width="22" height="116">
<path d="M116.535 88.6226H97.373V145.941L101.639 201.796C101.639 201.796 111.999 205.09 118.296 201.796L117.077 146.347L116.754 111.895" fill="white"/>
</mask>
<g mask="url(#mask4_17_6)">
<path d="M115.322 103.232C119.538 108.302 88.9621 110.686 87.0011 120.795C86.1821 125.017 95.9714 97.6922 95.9714 97.6922L106.258 95.8228" fill="#D6DCF2"/>
<path d="M102.138 83.5086L100.923 144.262L107.023 209.536L88.1731 199.678L92.9879 75.6143" fill="#FBD164"/>
<path d="M102.138 83.5086L100.923 144.262L107.023 209.536L88.1731 199.678L92.9879 75.6143" stroke="#190000" stroke-width="0.5" stroke-linecap="round" stroke-linejoin="round"/>
</g>
<path d="M116.535 88.6226H97.373V145.941L101.639 201.796C101.639 201.796 111.999 205.09 118.296 201.796L117.077 146.347L116.754 111.895" stroke="#190000" stroke-width="0.5" stroke-linecap="round" stroke-linejoin="round"/>
<path d="M97.1336 100.124C104.727 108.567 130.714 99.5755 130.714 99.5755C130.714 99.5755 136.268 56.4242 132.345 54.0784C131.11 53.3403 116.634 46.509 98.6965 51.22C90.1014 53.4775 93.2418 72.821 95.1877 77.4263C97.1336 82.0315 93.4874 95.7377 97.1336 100.124Z" fill="#516DDB"/>
<mask id="mask5_17_6" style="mask-type:luminance" maskUnits="userSpaceOnUse" x="92" y="49" width="42" height="55">
<path d="M97.1336 100.124C104.727 108.567 130.714 99.5755 130.714 99.5755C130.714 99.5755 136.268 56.4242 132.345 54.0784C131.11 53.3403 116.634 46.509 98.6965 51.22C90.1014 53.4775 93.2418 72.821 95.1877 77.4263C97.1336 82.0315 93.4874 95.7377 97.1336 100.124Z" fill="white"/>
</mask>
<g mask="url(#mask5_17_6)">
<path d="M121.399 60.6325C125.056 58.1611 125.316 52.1563 121.979 47.2203C118.643 42.2843 112.975 40.2863 109.318 42.7577C105.662 45.229 105.402 51.2338 108.738 56.1698C112.074 61.1058 117.743 63.1038 121.399 60.6325Z" fill="white" stroke="#190000" stroke-width="0.5" stroke-linecap="round" stroke-linejoin="round"/>
<path d="M120.267 58.9074C123.836 56.9481 124.523 51.3383 121.8 46.3777C119.077 41.4171 113.976 38.9841 110.406 40.9434C106.837 42.9028 106.15 48.5126 108.873 53.4732C111.596 58.4338 116.697 60.8668 120.267 58.9074Z" fill="#FACCC4" stroke="#190000" stroke-width="0.5" stroke-linecap="round" stroke-linejoin="round"/>
<path d="M97.1319 61.2491C102.577 56.2444 97.4654 80.7366 106.372 75.2882L108.181 81.5657C113.031 85.0944 92.0913 94.6725 98.7874 101.525C105.484 108.378 91.0497 100.053 91.0497 100.053V78.4498" fill="#3152BA"/>
<path d="M131.453 63.2648C127.643 60.0448 131.365 81.273 127.673 80.8095C123.981 80.346 127.723 82.8982 127.723 82.8982L125.381 81.5657C119.775 81.7223 129.062 95.8529 132.206 98.9038C135.35 101.955 138.08 97.7798 138.08 97.7798L144.182 79.8898" fill="#3152BA"/>
<path d="M101.559 105.933L101.447 106.611H94.3963L94.4622 105.933L96.1806 105.824L94.2308 101.822L91.0485 105.737L92.6259 105.933L92.5145 106.611H87.8667L87.9781 105.933L89.8016 105.737L93.9233 101.21L91.082 95.4592L89.9248 95.328L90.0326 94.6719H96.9929L96.8851 95.328L95.2954 95.4811L97.1523 99.2203L100.163 95.5247L98.6082 95.328L98.716 94.6719H103.069L102.961 95.328L101.406 95.5466L97.4598 99.8324L100.462 105.846L101.559 105.933Z" fill="white" stroke="#190000" stroke-width="0.5" stroke-linecap="round" stroke-linejoin="round"/>
<path d="M117.021 105.933L116.91 106.611H110.335L110.446 105.933L111.896 105.802C112.127 104.534 112.455 102.675 112.664 101.407L113.181 98.2582C113.461 96.5526 113.063 95.9403 111.997 95.9403C111.317 95.9403 110.319 96.3557 109.208 97.1867L108.515 101.407C108.313 102.632 108.024 104.534 107.834 105.824L109.109 105.933L108.997 106.611H102.445L102.556 105.933L104.097 105.802C104.332 104.512 104.663 102.632 104.864 101.407L105.163 99.5921C105.396 98.1707 105.492 97.4491 105.619 96.3995L103.947 96.2245L104.034 95.6998L109.18 94.3222L109.461 94.5408L109.281 96.465C111.051 94.8032 112.38 94.3003 113.877 94.3003C116.03 94.3003 117.281 95.656 116.811 98.5206L116.336 101.407C116.124 102.697 115.842 104.556 115.679 105.824L117.021 105.933Z" fill="white" stroke="#190000" stroke-width="0.5" stroke-linecap="round" stroke-linejoin="round"/>
</g>
<path d="M97.1336 100.124C104.727 108.567 130.714 99.5755 130.714 99.5755C130.714 99.5755 136.268 56.4242 132.345 54.0784C131.11 53.3403 116.634 46.509 98.6965 51.22C90.1014 53.4775 93.2418 72.821 95.1877 77.4263C97.1336 82.0315 93.4874 95.7377 97.1336 100.124Z" stroke="#190000" stroke-width="0.5" stroke-linecap="round" stroke-linejoin="round"/>
<path d="M132.12 54.0711C138.862 53.8737 140.474 89.4718 140.474 89.4718L130.146 81.2968L131.453 63.2649" fill="#516DDB"/>
<mask id="mask6_17_6" style="mask-type:luminance" maskUnits="userSpaceOnUse" x="130" y="54" width="11" height="36">
<path d="M132.12 54.0711C138.862 53.8737 140.474 89.4718 140.474 89.4718L130.146 81.2968L131.453 63.2649" fill="white"/>
</mask>
<g mask="url(#mask6_17_6)">
<path d="M130.886 71.0815C129.784 75.246 136.976 82.4183 134.504 83.4888C132.032 84.5592 127.857 78.0292 127.857 78.0292" fill="#3152BA"/>
<path d="M144.791 71.4217L144.68 72.0995H137.629L137.695 71.4217L139.413 71.3124L137.463 67.3106L134.281 71.2248L135.858 71.4217L135.747 72.0995H131.099L131.211 71.4217L133.034 71.2248L137.156 66.6985L134.315 60.9475L133.157 60.8163L133.265 60.1602H140.225L140.118 60.8163L138.528 60.9693L140.385 64.7086L143.395 61.013L141.841 60.8163L141.948 60.1602H146.302L146.194 60.8163L144.639 61.0349L140.692 65.3207L143.695 71.3341L144.791 71.4217Z" fill="white" stroke="#190000" stroke-width="0.5" stroke-linecap="round" stroke-linejoin="round"/>
</g>
<path d="M132.12 54.0711C138.862 53.8737 140.474 89.4718 140.474 89.4718L130.146 81.2968L131.453 63.2649" stroke="#190000" stroke-width="0.5" stroke-linecap="round" stroke-linejoin="round"/>
<path d="M105.327 75.3169C109.095 74.1397 111.808 67.082 113.493 67.0541C115.178 67.0263 115.084 65.6788 116.613 65.9295C118.142 66.1802 118.403 65.7205 118.809 65.9434C119.215 66.1662 122.003 67.9159 122.705 67.902C123.22 69.838 118.58 68.6419 118.58 68.6419L117.831 69.7841C117.831 69.7841 119.329 69.4776 119.516 69.4219C120.676 70.848 119.004 71.0202 117.506 72.0509C116.008 73.0816 113.087 75.4668 112.026 75.6061C110.965 75.7454 107.399 81.7353 107.399 81.7353L105.327 75.3169Z" fill="#FACCC4"/>
<mask id="mask7_17_6" style="mask-type:luminance" maskUnits="userSpaceOnUse" x="105" y="65" width="18" height="17">
<path d="M105.327 75.3169C109.095 74.1397 111.808 67.082 113.493 67.0541C115.178 67.0263 115.084 65.6788 116.613 65.9295C118.142 66.1802 118.403 65.7205 118.809 65.9434C119.215 66.1662 122.003 67.9159 122.705 67.902C123.22 69.838 118.58 68.6419 118.58 68.6419L117.831 69.7841C117.831 69.7841 119.329 69.4776 119.516 69.4219C120.676 70.848 119.004 71.0202 117.506 72.0509C116.008 73.0816 113.087 75.4668 112.026 75.6061C110.965 75.7454 107.399 81.7353 107.399 81.7353L105.327 75.3169Z" fill="white"/>
</mask>
<g mask="url(#mask7_17_6)">
<path d="M107.972 73.4527C108.915 72.4502 111.224 76.8295 111.826 76.9877C112.428 77.1459 109.899 78.8405 109.899 78.8405H108.334" fill="#ED707B"/>
</g>
<path d="M105.327 75.3169C109.095 74.1397 111.808 67.082 113.493 67.0541C115.178 67.0263 115.084 65.6788 116.613 65.9295C118.142 66.1802 118.403 65.7205 118.809 65.9434C119.215 66.1662 122.003 67.9159 122.705 67.902C123.22 69.838 118.58 68.6419 118.58 68.6419L117.831 69.7841C117.831 69.7841 119.329 69.4776 119.516 69.4219C120.676 70.848 119.004 71.0202 117.506 72.0509C116.008 73.0816 113.087 75.4668 112.026 75.6061C110.965 75.7454 107.399 81.7353 107.399 81.7353L105.327 75.3169Z" stroke="#190000" stroke-width="0.5" stroke-linecap="round" stroke-linejoin="round"/>
<path d="M123.629 66.4633L123.36 65.6968L123.119 65.4238L130.062 65.9147V66.0948L129.17 66.4633" fill="#FBD164"/>
<path d="M123.629 66.4633L123.36 65.6968L123.119 65.4238L130.062 65.9147V66.0948L129.17 66.4633" stroke="#190000" stroke-width="0.5" stroke-linecap="round" stroke-linejoin="round"/>
<path d="M129.552 78.5689C128.305 77.7538 130.463 72.3835 129.169 71.3766C127.874 70.3697 127.538 68.3345 127.538 68.3345C127.538 68.3345 125.333 68.9792 126.1 71.1848C126.867 73.3905 122.12 76.1236 121.832 76.651C121.545 77.1784 123.559 80.7027 125.381 81.5658C125.381 81.5658 128.545 81.35 129.552 78.5689Z" fill="#FACCC4"/>
<mask id="mask8_17_6" style="mask-type:luminance" maskUnits="userSpaceOnUse" x="121" y="68" width="9" height="14">
<path d="M129.552 78.5689C128.305 77.7538 130.463 72.3835 129.169 71.3766C127.874 70.3697 127.538 68.3345 127.538 68.3345C127.538 68.3345 125.333 68.9792 126.1 71.1848C126.867 73.3905 122.12 76.1236 121.832 76.651C121.545 77.1784 123.559 80.7027 125.381 81.5658C125.381 81.5658 128.545 81.35 129.552 78.5689Z" fill="white"/>
</mask>
<g mask="url(#mask8_17_6)">
<path d="M122.29 81.2408C125.381 81.5658 127.863 76.5841 129.599 78.0293C131.336 79.4745 127.723 82.8984 127.723 82.8984L123.093 82.6859" fill="#ED707B"/>
<path d="M127.667 70.1365C128.203 69.9735 127.62 71.3246 127.434 72.3263C127.248 73.328 126.689 72.1399 126.689 72.1399L126.1 71.185" fill="#ED707B"/>
</g>
<path d="M129.552 78.5689C128.305 77.7538 130.463 72.3835 129.169 71.3766C127.874 70.3697 127.538 68.3345 127.538 68.3345C127.538 68.3345 125.333 68.9792 126.1 71.1848C126.867 73.3905 122.12 76.1236 121.832 76.651C121.545 77.1784 123.559 80.7027 125.381 81.5658C125.381 81.5658 128.545 81.35 129.552 78.5689Z" stroke="#190000" stroke-width="0.5" stroke-linecap="round" stroke-linejoin="round"/>
<path d="M124.936 66.8422L123.118 65.4238L117.021 77.4314L117.141 77.6309L117.923 77.0849" fill="#FBD164"/>
<path d="M124.936 66.8422L123.118 65.4238L117.021 77.4314L117.141 77.6309L117.923 77.0849" stroke="#190000" stroke-width="0.5" stroke-linecap="round" stroke-linejoin="round"/>
<path d="M123.843 78.0288L117.141 77.6309L123.36 65.6968L130.062 66.0947L123.843 78.0288Z" fill="#D3575E" stroke="#190000" stroke-width="0.5" stroke-linecap="round" stroke-linejoin="round"/>
<path d="M124.214 72.4336C123.557 72.4336 123.125 71.7328 123.41 71.1282L124.854 68.0625C124.926 67.9089 125.039 67.7789 125.182 67.6875C125.324 67.5961 125.489 67.5472 125.659 67.5464C126.316 67.5464 126.748 68.2472 126.463 68.8518L125.019 71.9175C124.947 72.071 124.834 72.2011 124.691 72.2925C124.549 72.3838 124.383 72.4328 124.214 72.4336Z" fill="#FBD164" stroke="#190000" stroke-width="0.5" stroke-linecap="round" stroke-linejoin="round"/>
<path d="M123.978 80.4646C123.978 80.4646 120.65 77.4339 121.353 76.379C121.353 76.379 118.636 74.4719 119.851 73.108C120.298 72.671 120.969 73.4701 120.969 73.4701C120.969 73.4701 119.499 72.1595 120.458 71.5202C121.417 70.8809 125.327 73.5527 125.327 73.5527C125.327 73.5527 122.6 70.785 123.846 70.1137C125.093 69.4424 126.595 71.8079 127.235 71.744C127.874 71.6801 128.417 73.4701 128.417 73.4701" fill="#FACCC4"/>
<path d="M123.978 80.4646C123.978 80.4646 120.65 77.4339 121.353 76.379C121.353 76.379 118.636 74.4719 119.851 73.108C120.298 72.671 120.969 73.4701 120.969 73.4701C120.969 73.4701 119.499 72.1595 120.458 71.5202C121.417 70.8809 125.327 73.5527 125.327 73.5527C125.327 73.5527 122.6 70.785 123.846 70.1137C125.093 69.4424 126.595 71.8079 127.235 71.744C127.874 71.6801 128.417 73.4701 128.417 73.4701" stroke="#190000" stroke-width="0.5" stroke-linecap="round" stroke-linejoin="round"/>
<path d="M98.2832 60.582C97.6569 68.9476 96.652 79.8895 96.652 79.8895L98.2832 60.582Z" fill="#516DDB"/>
<path d="M98.2832 60.582C97.6569 68.9476 96.652 79.8895 96.652 79.8895" stroke="#190000" stroke-width="0.5" stroke-linecap="round" stroke-linejoin="round"/>
<path d="M94.9684 81.9218C94.9684 81.9218 82.479 92.8232 80.9672 87.6628C79.4453 82.4683 92.8851 49.9041 98.6965 51.2199" fill="#516DDB"/>
<mask id="mask9_17_6" style="mask-type:luminance" maskUnits="userSpaceOnUse" x="80" y="51" width="19" height="39">
<path d="M94.9684 81.9218C94.9684 81.9218 82.479 92.8232 80.9672 87.6628C79.4453 82.4683 92.8851 49.9041 98.6965 51.2199" fill="white"/>
</mask>
<g mask="url(#mask9_17_6)">
<path d="M81.9106 67.6561L81.7993 68.3339H74.7483L74.8143 67.6561L76.5326 67.5468L74.5829 63.545L71.4005 67.4592L72.9779 67.6561L72.8665 68.3339H68.2188L68.3301 67.6561L70.1536 67.4592L74.2754 62.9329L71.434 57.1818L70.2768 57.0506L70.3846 56.3945H77.3449L77.2371 57.0506L75.6475 57.2037L77.5043 60.9429L80.5149 57.2474L78.9602 57.0506L79.068 56.3945H83.4211L83.3133 57.0506L81.7582 57.2693L77.8119 61.5551L80.8142 67.5685L81.9106 67.6561Z" fill="white" stroke="#190000" stroke-width="0.5" stroke-linecap="round" stroke-linejoin="round"/>
<path d="M97.3731 67.6561L97.2618 68.3339H90.6868L90.7982 67.6561L92.2482 67.5249C92.4791 66.2566 92.8072 64.3979 93.0156 63.1296L93.533 59.9808C93.8132 58.2752 93.4151 57.6629 92.3495 57.6629C91.6694 57.6629 90.6715 58.0783 89.5601 58.9093L88.8667 63.1297C88.6654 64.3542 88.3756 66.2567 88.1863 67.5468L89.4606 67.6562L89.3493 68.334H82.797L82.9084 67.6562L84.4489 67.525C84.6835 66.2348 85.0153 64.3542 85.2164 63.1297L85.5147 61.3147C85.7482 59.8933 85.8441 59.1717 85.9713 58.1222L84.2995 57.9472L84.3857 57.4224L89.5319 56.0448L89.8134 56.2634L89.6333 58.1877C91.4027 56.5258 92.7323 56.0229 94.2287 56.0229C96.3825 56.0229 97.6334 57.3787 97.1628 60.2433L96.6885 63.1297C96.4765 64.4199 96.1938 66.2786 96.0308 67.5469L97.3731 67.6561Z" fill="white" stroke="#190000" stroke-width="0.5" stroke-linecap="round" stroke-linejoin="round"/>
</g>
<path d="M94.9684 81.9218C94.9684 81.9218 82.479 92.8232 80.9672 87.6628C79.4453 82.4683 92.8851 49.9041 98.6965 51.2199" stroke="#190000" stroke-width="0.5" stroke-linecap="round" stroke-linejoin="round"/>
<path d="M129.599 78.0288C125.433 80.0025 124.464 83.3471 124.464 83.3471C124.464 83.3471 130.84 97.1582 138.562 92.3601C145.948 87.7703 129.599 78.0288 129.599 78.0288Z" fill="#516DDB"/>
<mask id="mask10_17_6" style="mask-type:luminance" maskUnits="userSpaceOnUse" x="124" y="78" width="17" height="16">
<path d="M129.599 78.0288C125.433 80.0025 124.464 83.3471 124.464 83.3471C124.464 83.3471 130.84 97.1582 138.562 92.3601C145.948 87.7703 129.599 78.0288 129.599 78.0288Z" fill="white"/>
</mask>
<g mask="url(#mask10_17_6)">
<path d="M138.264 96.5139C141.002 96.5139 143.222 94.9373 143.222 92.9926C143.222 91.0478 141.002 89.4712 138.264 89.4712C135.525 89.4712 133.305 91.0478 133.305 92.9926C133.305 94.9373 135.525 96.5139 138.264 96.5139Z" fill="#FBD164" stroke="#190000" stroke-width="0.5" stroke-linecap="round" stroke-linejoin="round"/>
</g>
<path d="M129.599 78.0288C125.433 80.0025 124.464 83.3471 124.464 83.3471C124.464 83.3471 130.84 97.1582 138.562 92.3601C145.948 87.7703 129.599 78.0288 129.599 78.0288Z" stroke="#190000" stroke-width="0.5" stroke-linecap="round" stroke-linejoin="round"/>
<path d="M120.073 52.0908V43.4211L112.391 40.9272L109.7 50.0776" fill="#FACCC4"/>
<mask id="mask11_17_6" style="mask-type:luminance" maskUnits="userSpaceOnUse" x="109" y="40" width="12" height="13">
<path d="M120.073 52.0908V43.4211L112.391 40.9272L109.7 50.0776" fill="white"/>
</mask>
<g mask="url(#mask11_17_6)">
<path d="M122.449 53.8851C112.757 51.9861 121.191 49.7597 117.738 48.1342C116.788 47.687 118.3 43.041 118.3 43.041L120.933 44.7636" fill="#ED707B"/>
</g>
<path d="M120.073 52.0908V43.4211L112.391 40.9272L109.7 50.0776" stroke="#190000" stroke-width="0.5" stroke-linecap="round" stroke-linejoin="round"/>
<path d="M114.207 40.6138L116.909 34.2131L124.502 28.2622C125.64 35.1368 132.478 54.4427 117.407 47.0112" fill="#FACCC4"/>
<path d="M114.207 40.6138L116.909 34.2131L124.502 28.2622C125.64 35.1368 132.478 54.4427 117.407 47.0112" stroke="#190000" stroke-width="0.5" stroke-linecap="round" stroke-linejoin="round"/>
<path d="M113.179 41.0405C116.032 42.172 119.971 36.5066 118.289 34.679C118.289 34.679 123.096 36.6101 126.483 33.8066C137.971 35.2879 137.212 21.1719 127.135 25.2112C121.889 22.3246 116.051 25.1748 116.306 28.4049C106.416 23.2925 104.678 37.6697 113.179 41.0405Z" fill="#4B4D5C" stroke="#190000" stroke-width="0.5" stroke-linecap="round" stroke-linejoin="round"/>
<path d="M112.684 44.0991C107.542 39.7595 111.39 33.2693 117.262 41.1183L112.684 44.0991Z" fill="#FACCC4"/>
<path d="M112.684 44.0991C107.542 39.7595 111.39 33.2693 117.262 41.1183" stroke="#190000" stroke-width="0.5" stroke-linecap="round" stroke-linejoin="round"/>
<path d="M125.939 28.3335C125.692 29.139 125.227 29.8605 124.596 30.4178" stroke="#373947" stroke-width="11" stroke-linecap="round" stroke-linejoin="round"/>
<path d="M111.938 32.5391L111.873 32.627" stroke="#373947" stroke-width="11" stroke-linecap="round" stroke-linejoin="round"/>
<path d="M123.103 36.8484C123.284 36.7904 123.48 36.8063 123.649 36.8929C123.817 36.9794 123.945 37.1294 124.003 37.3099L124.373 38.459C124.431 38.6395 124.415 38.8356 124.328 39.0042C124.242 39.1729 124.092 39.3003 123.911 39.3584C123.731 39.4164 123.535 39.4004 123.366 39.3139C123.197 39.2274 123.07 39.0774 123.012 38.8969L122.642 37.7478C122.584 37.5673 122.6 37.3712 122.687 37.2025C122.773 37.0339 122.923 36.9065 123.103 36.8484Z" fill="#190000"/>
<path d="M122.977 34.3776C120.892 34.9478 120.709 35.947 122.035 35.6755C123.361 35.404 124.338 34.0051 122.977 34.3776Z" fill="#190000"/>
<path d="M125.364 37.5786C128.384 38.3776 128.307 41.3127 126.368 41.2452L125.364 37.5786Z" fill="#FACCC4"/>
<path d="M125.364 37.5786C128.384 38.3776 128.307 41.3127 126.368 41.2452" stroke="#190000" stroke-width="0.5" stroke-linecap="round" stroke-linejoin="round"/>
<path opacity="0.27" d="M121.732 41.7247C122.622 41.5973 123.267 40.9621 123.173 40.3059C123.079 39.6497 122.282 39.221 121.392 39.3484C120.502 39.4758 119.857 40.111 119.951 40.7672C120.045 41.4234 120.842 41.8521 121.732 41.7247Z" fill="#ED707B"/>
<path d="M122.753 41.9727C124.031 43.0422 125.366 42.4622 125.366 42.4622" stroke="#993443" stroke-linecap="round" stroke-linejoin="round"/>
<path d="M114.234 40.8012C113.982 40.4836 113.431 40.4765 113.17 40.7876C112.909 41.0986 113.012 41.6398 113.369 41.8333" stroke="#373947" stroke-width="11" stroke-linecap="round" stroke-linejoin="round"/>
<path d="M94.1438 77.3827C100.975 74.6053 107.907 72.8208 107.907 72.8208C110.539 76.7682 110.977 81.5928 110.977 81.5928C110.977 81.5928 88.563 96.9698 82.3609 90.5471C81.4274 89.5804 80.9953 88.6153 80.9672 87.6627" fill="#516DDB"/>
<mask id="mask12_17_6" style="mask-type:luminance" maskUnits="userSpaceOnUse" x="80" y="72" width="31" height="21">
<path d="M94.1438 77.3827C100.975 74.6053 107.907 72.8208 107.907 72.8208C110.539 76.7682 110.977 81.5928 110.977 81.5928C110.977 81.5928 88.563 96.9698 82.3609 90.5471C81.4274 89.5804 80.9953 88.6153 80.9672 87.6627" fill="white"/>
</mask>
<g mask="url(#mask12_17_6)">
<path d="M85.0404 99.7525C89.4298 99.7525 92.9881 97.0342 92.9881 93.6809C92.9881 90.3277 89.4298 87.6094 85.0404 87.6094C80.651 87.6094 77.0927 90.3277 77.0927 93.6809C77.0927 97.0342 80.651 99.7525 85.0404 99.7525Z" fill="#FBD164" stroke="#190000" stroke-width="0.5" stroke-linecap="round" stroke-linejoin="round"/>
</g>
<path d="M94.1438 77.3827C100.975 74.6053 107.907 72.8208 107.907 72.8208C110.539 76.7682 110.977 81.5928 110.977 81.5928C110.977 81.5928 88.563 96.9698 82.3609 90.5471C81.4274 89.5804 80.9953 88.6153 80.9672 87.6627" stroke="#190000" stroke-width="0.5" stroke-linecap="round" stroke-linejoin="round"/>
<path d="M115.255 87.4097L115.44 90.0419" stroke="#3152BA" stroke-width="11" stroke-linecap="round" stroke-linejoin="round"/>
<path d="M124.19 148.551C124.843 148.771 125.54 148.829 126.22 148.719" stroke="#D6DCF2" stroke-width="11" stroke-linecap="round" stroke-linejoin="round"/>
<path d="M191.526 84.2692L193.217 83.0021L197.838 77.7225C197.838 77.7225 202.257 76.2444 203.047 76.3849C203.836 76.5254 204.615 78.2808 204.615 78.2808C205.844 78.0471 206.368 79.4121 204.369 80.1504C206.255 80.4681 204.685 82.124 203.545 82.6263C202.405 83.1286 202.357 83.0099 202.357 83.0099C202.357 83.0099 202.913 84.1581 201.765 85.1522C201.153 85.6819 196.087 88.3414 196.087 88.3414L191.526 84.2692Z" fill="#FACCC4"/>
<mask id="mask13_17_6" style="mask-type:luminance" maskUnits="userSpaceOnUse" x="191" y="76" width="15" height="13">
<path d="M191.526 84.2692L193.217 83.0021L197.838 77.7225C197.838 77.7225 202.257 76.2444 203.047 76.3849C203.836 76.5254 204.615 78.2808 204.615 78.2808C205.844 78.0471 206.368 79.4121 204.369 80.1504C206.255 80.4681 204.685 82.124 203.545 82.6263C202.405 83.1286 202.357 83.0099 202.357 83.0099C202.357 83.0099 202.913 84.1581 201.765 85.1522C201.153 85.6819 196.087 88.3414 196.087 88.3414L191.526 84.2692Z" fill="white"/>
</mask>
<g mask="url(#mask13_17_6)">
<path d="M200.034 88.257C195.755 88.4454 197.13 84.3444 195.085 84.9364C193.04 85.5284 195.244 88.8794 195.244 88.8794C195.244 88.8794 198.446 89.5756 198.527 89.5756" fill="#ED707B"/>
</g>
<path d="M191.526 84.2692L193.217 83.0021L197.838 77.7225C197.838 77.7225 202.257 76.2444 203.047 76.3849C203.836 76.5254 204.615 78.2808 204.615 78.2808C205.844 78.0471 206.368 79.4121 204.369 80.1504C206.255 80.4681 204.685 82.124 203.545 82.6263C202.405 83.1286 202.357 83.0099 202.357 83.0099C202.357 83.0099 202.913 84.1581 201.765 85.1522C201.153 85.6819 196.087 88.3414 196.087 88.3414L191.526 84.2692Z" stroke="#190000" stroke-width="0.5" stroke-linecap="round" stroke-linejoin="round"/>
<path d="M208.974 69.7658C208.979 69.7417 208.983 69.7185 208.987 69.6953C208.991 69.6626 208.994 69.6314 208.996 69.6007C208.997 69.5875 209 69.5729 209 69.5602C209.001 69.5469 208.999 69.5347 208.999 69.5219C208.999 69.5142 208.999 69.5065 208.998 69.4989C208.998 69.4923 208.998 69.4851 208.998 69.4786C208.996 69.459 208.993 69.4401 208.99 69.4218C208.988 69.4087 208.985 69.396 208.982 69.3836C208.982 69.3826 208.981 69.3816 208.981 69.3806C208.981 69.3796 208.981 69.3786 208.98 69.3776C208.977 69.365 208.973 69.3528 208.969 69.3409C208.966 69.3303 208.962 69.32 208.957 69.31C208.953 69.3008 208.949 69.2919 208.944 69.2832C208.943 69.2814 208.942 69.2798 208.941 69.2781L208.94 69.2756C208.936 69.2701 208.933 69.2645 208.93 69.2592C208.925 69.2518 208.92 69.2448 208.915 69.238C208.91 69.2314 208.904 69.225 208.899 69.219C208.893 69.213 208.887 69.2073 208.882 69.2019C208.88 69.2007 208.879 69.1996 208.877 69.1985L208.876 69.1971C208.872 69.1935 208.868 69.1899 208.863 69.1867C208.857 69.1819 208.85 69.1774 208.844 69.1732C208.837 69.1689 208.83 69.1649 208.822 69.1613C208.815 69.1575 208.807 69.1541 208.799 69.1511C208.796 69.15 208.794 69.1489 208.791 69.1479L207.962 68.8599C207.993 68.8707 208.022 68.8874 208.047 68.909L208.048 68.9105C208.073 68.9325 208.094 68.9586 208.111 68.9876L208.112 68.99C208.13 69.0223 208.143 69.0568 208.152 69.0925L208.153 69.0955C208.162 69.1334 208.167 69.172 208.169 69.2108C208.17 69.2184 208.17 69.2262 208.17 69.234C208.171 69.259 208.169 69.286 208.167 69.3126C208.165 69.3433 208.162 69.3747 208.158 69.4073C208.154 69.4304 208.15 69.4538 208.145 69.4777C208.138 69.5114 208.129 69.5458 208.119 69.5808C208.108 69.6171 208.099 69.653 208.085 69.6904L208.084 69.6933C208.062 69.7524 208.036 69.8104 208.008 69.8669L201.023 83.9024C200.998 83.9518 200.972 83.9995 200.944 84.0454L200.943 84.0465C200.916 84.0914 200.887 84.1344 200.857 84.1755L200.853 84.1811C200.823 84.2209 200.793 84.2586 200.762 84.2943C200.76 84.2962 200.759 84.2982 200.757 84.3C200.726 84.3352 200.694 84.3681 200.662 84.3987C200.659 84.4015 200.656 84.4042 200.653 84.4069C200.622 84.4364 200.59 84.4637 200.558 84.4883C200.553 84.4921 200.548 84.4951 200.543 84.4987C200.517 84.5185 200.49 84.5365 200.464 84.5525C200.454 84.5585 200.444 84.5639 200.434 84.5694C200.411 84.5819 200.389 84.593 200.367 84.6026C200.357 84.6066 200.348 84.611 200.339 84.6145C200.31 84.626 200.279 84.635 200.249 84.6413C200.196 84.6523 200.142 84.651 200.09 84.6375L196.399 83.6086C196.393 83.607 196.387 83.6053 196.382 83.6034L197.211 83.8914C197.216 83.8933 197.222 83.8951 197.227 83.8966L200.919 84.9255C200.971 84.939 201.025 84.9403 201.078 84.9293C201.108 84.923 201.139 84.9141 201.168 84.9025C201.177 84.899 201.186 84.8947 201.196 84.8907C201.219 84.8807 201.241 84.8696 201.263 84.8574C201.273 84.8519 201.283 84.8466 201.293 84.8406C201.319 84.8245 201.346 84.8066 201.372 84.7868C201.377 84.7831 201.382 84.7801 201.387 84.7763C201.388 84.7754 201.39 84.7747 201.391 84.7738C201.412 84.7577 201.432 84.7405 201.453 84.7222C201.463 84.7136 201.472 84.7042 201.482 84.6951C201.485 84.6922 201.488 84.6895 201.491 84.6865C201.494 84.6836 201.497 84.6811 201.5 84.6782C201.514 84.6649 201.528 84.6513 201.541 84.6372C201.553 84.6244 201.565 84.6113 201.577 84.5979C201.58 84.5947 201.583 84.5913 201.586 84.588C201.588 84.5861 201.589 84.5841 201.591 84.5821C201.598 84.5747 201.604 84.5674 201.611 84.5597C201.621 84.5476 201.631 84.5351 201.641 84.5225C201.651 84.5104 201.66 84.498 201.67 84.4855C201.674 84.4801 201.678 84.4746 201.682 84.4691C201.683 84.4672 201.684 84.4654 201.686 84.4635C201.689 84.4584 201.693 84.4535 201.697 84.4484C201.706 84.4362 201.714 84.4237 201.723 84.4111C201.731 84.3988 201.739 84.3863 201.748 84.3737C201.755 84.3613 201.763 84.3487 201.771 84.336L201.772 84.3344L201.773 84.3334C201.78 84.3217 201.787 84.3098 201.794 84.2978C201.801 84.2852 201.808 84.2724 201.815 84.2595C201.822 84.2467 201.829 84.2339 201.836 84.2209C201.841 84.2108 201.847 84.2006 201.852 84.1904L208.837 70.1548C208.839 70.1519 208.84 70.149 208.842 70.1461C208.848 70.1329 208.854 70.1197 208.86 70.1065C208.867 70.093 208.873 70.0794 208.879 70.0659C208.885 70.0517 208.891 70.0375 208.896 70.0234C208.902 70.0093 208.908 69.9952 208.913 69.9811L208.914 69.9785C208.914 69.9771 208.915 69.9757 208.915 69.9743C208.923 69.9538 208.93 69.9335 208.936 69.9134C208.941 69.8981 208.943 69.8839 208.948 69.8688C208.958 69.8338 208.967 69.7995 208.974 69.7658Z" fill="#409159" stroke="#190000" stroke-width="0.5" stroke-linecap="round" stroke-linejoin="round"/>
<path d="M204.096 67.8219C204.148 67.8108 204.202 67.8121 204.254 67.8256L207.945 68.8547C208.22 68.9314 208.249 69.3841 208.008 69.867L201.023 83.9025C200.825 84.2993 200.508 84.5922 200.249 84.6414C200.196 84.6524 200.142 84.6511 200.09 84.6376L196.398 83.6087C196.123 83.532 196.095 83.0793 196.335 82.5965L203.321 68.5609C203.518 68.1641 203.836 67.8711 204.096 67.8219Z" fill="#409159"/>
<mask id="mask14_17_6" style="mask-type:luminance" maskUnits="userSpaceOnUse" x="196" y="67" width="13" height="18">
<path d="M204.096 67.8219C204.148 67.8108 204.202 67.8121 204.254 67.8256L207.945 68.8547C208.22 68.9314 208.249 69.3841 208.008 69.867L201.023 83.9025C200.825 84.2993 200.508 84.5922 200.249 84.6414C200.196 84.6524 200.142 84.6511 200.09 84.6376L196.398 83.6087C196.123 83.532 196.095 83.0793 196.335 82.5965L203.321 68.5609C203.518 68.1641 203.836 67.8711 204.096 67.8219Z" fill="white"/>
</mask>
<g mask="url(#mask14_17_6)">
<path d="M196.172 84.2478C199.397 82.7409 197.675 79.9961 199.666 78.9736C201.657 77.9511 202.847 77.149 202.172 76.2315C201.496 75.314 197.148 77.3199 197.148 77.3199L195.685 78.3953" fill="#357C49"/>
</g>
<path d="M204.096 67.8219C204.148 67.8108 204.202 67.8121 204.254 67.8256L207.945 68.8547C208.22 68.9314 208.249 69.3841 208.008 69.867L201.023 83.9025C200.825 84.2993 200.508 84.5922 200.249 84.6414C200.196 84.6524 200.142 84.6511 200.09 84.6376L196.398 83.6087C196.123 83.532 196.095 83.0793 196.335 82.5965L203.321 68.5609C203.518 68.1641 203.836 67.8711 204.096 67.8219Z" stroke="#190000" stroke-width="0.5" stroke-linecap="round" stroke-linejoin="round"/>
<path d="M193.539 84.1276C193.539 84.1276 192.813 83.2003 193.217 83.0023C193.621 82.8043 195.347 78.6014 195.685 78.3955C196.024 78.1896 198.319 76.4108 198.77 76.1363C199.222 75.8618 201.621 75.9308 201.803 75.7883C201.985 75.6458 203.741 76.8064 199.868 77.8569L198.429 79.5285L195.843 83.5827" fill="#FACCC4"/>
<path d="M193.539 84.1276C193.539 84.1276 192.813 83.2003 193.217 83.0023C193.621 82.8043 195.347 78.6014 195.685 78.3955C196.024 78.1896 198.319 76.4108 198.77 76.1363C199.222 75.8618 201.621 75.9308 201.803 75.7883C201.985 75.6458 203.741 76.8064 199.868 77.8569L198.429 79.5285L195.843 83.5827" stroke="#190000" stroke-width="0.5" stroke-linecap="round" stroke-linejoin="round"/>
<path d="M111.144 194.266C117.559 199.956 129.358 203.254 129.358 203.254L159.878 137.187L139.994 117.883L132.177 153.882L111.144 194.266Z" fill="#399FE8"/>
<mask id="mask15_17_6" style="mask-type:luminance" maskUnits="userSpaceOnUse" x="111" y="117" width="49" height="87">
<path d="M111.144 194.266C117.559 199.956 129.358 203.254 129.358 203.254L159.878 137.187L139.994 117.883L132.177 153.882L111.144 194.266Z" fill="white"/>
</mask>
<g mask="url(#mask15_17_6)">
<path d="M140.016 129.186C133.76 135.629 158.818 142.711 146.548 170.5C134.277 198.288 165.503 155.06 165.503 155.06L159.878 137.187" fill="#3B8BE2"/>
<path d="M143.002 130.44C143.002 130.44 136.608 158.03 135.511 160.569C134.413 163.107 118.487 191.518 118.487 191.518" stroke="#2976DF" stroke-width="11" stroke-linecap="round" stroke-linejoin="round"/>
</g>
<path d="M111.144 194.266C117.559 199.956 129.358 203.254 129.358 203.254L159.878 137.187L139.994 117.883L132.177 153.882L111.144 194.266Z" stroke="#190000" stroke-width="0.5" stroke-linecap="round" stroke-linejoin="round"/>
<path d="M192.64 81.2463C195.514 83.8317 196.545 92.2524 196.545 92.2524L182.698 100.423C181.344 101.554 179.261 101.857 177.514 101.177L160.724 92.0844C160.724 92.0844 161.684 73.8758 168.725 77.2839C175.767 80.6919 178.821 89.1975 178.821 89.1975L192.64 81.2463Z" fill="#9879C9"/>
<mask id="mask16_17_6" style="mask-type:luminance" maskUnits="userSpaceOnUse" x="160" y="76" width="37" height="26">
<path d="M192.64 81.2463C195.514 83.8317 196.545 92.2524 196.545 92.2524L182.698 100.423C181.344 101.554 179.261 101.857 177.514 101.177L160.724 92.0844C160.724 92.0844 161.684 73.8758 168.725 77.2839C175.767 80.6919 178.821 89.1975 178.821 89.1975L192.64 81.2463Z" fill="white"/>
</mask>
<g mask="url(#mask16_17_6)">
<path d="M169.253 84.1297C172.667 81.3959 169.151 91.5137 173.959 97.039C178.767 102.564 182.923 96.9915 184.72 99.3474C186.516 101.703 183.144 106.08 182.785 106.296C182.426 106.511 166.708 102.566 166.708 102.566L161.959 95.6039" fill="#6F4EB9"/>
</g>
<path d="M192.64 81.2463C195.514 83.8317 196.545 92.2524 196.545 92.2524L182.698 100.423C181.344 101.554 179.261 101.857 177.514 101.177L160.724 92.0844C160.724 92.0844 161.684 73.8758 168.725 77.2839C175.767 80.6919 178.821 89.1975 178.821 89.1975L192.64 81.2463Z" stroke="#190000" stroke-width="0.5" stroke-linecap="round" stroke-linejoin="round"/>
<path d="M157.975 118.831C165.09 122.951 170.52 122.157 170.52 122.157C171.081 97.1113 174.53 76.8984 165.193 75.3143C157.933 74.0825 152.891 73.394 152.891 73.394L157.975 118.831Z" fill="#6F4EB9" stroke="#190000" stroke-width="0.5" stroke-linecap="round" stroke-linejoin="round"/>
<path d="M156.383 118.176C163.365 123.731 164.341 123.044 164.341 123.044C163.966 97.7666 174.248 91.1369 168.647 83.1618C163.046 75.1867 161.959 75.0918 161.959 75.0918L154.369 73.8062L156.383 118.176Z" fill="white"/>
<mask id="mask17_17_6" style="mask-type:luminance" maskUnits="userSpaceOnUse" x="154" y="73" width="17" height="51">
<path d="M156.383 118.176C163.365 123.731 164.341 123.044 164.341 123.044C163.966 97.7666 174.248 91.1369 168.647 83.1618C163.046 75.1867 161.959 75.0918 161.959 75.0918L154.369 73.8062L156.383 118.176Z" fill="white"/>
</mask>
<g mask="url(#mask17_17_6)">
<path d="M156.525 73.394C162.445 83.2411 168.004 85.5389 168.365 81.4113C168.725 77.2838 166.389 73.8062 166.389 73.8062L156.525 73.394Z" fill="#FACCC4" stroke="#190000" stroke-width="0.5" stroke-linecap="round" stroke-linejoin="round"/>
<path d="M160.724 83.6561C163.339 80.5885 164.438 122.882 165.503 124.823C166.568 126.764 156.235 121.114 156.235 121.114L155.912 116.108" fill="white"/>
<path d="M160.724 83.6561C163.339 80.5885 164.438 122.882 165.503 124.823C166.568 126.764 156.235 121.114 156.235 121.114L155.912 116.108" stroke="#190000" stroke-width="0.5" stroke-linecap="round" stroke-linejoin="round"/>
<path d="M171.307 96.7336C171.277 96.9048 171.249 97.0758 171.22 97.2467C169.362 97.1781 167.501 97.2452 165.653 97.4473C165.645 97.2875 165.638 97.1276 165.632 96.9675C166.085 96.8894 166.54 96.8189 166.996 96.756C166.364 95.8426 165.695 94.9649 164.99 94.1228C164.227 95.1774 163.524 96.2189 162.882 97.2473C163.311 97.2115 163.739 97.1838 164.167 97.1642C164.167 97.3226 164.168 97.4807 164.17 97.6386C162.95 97.8202 161.737 98.0611 160.53 98.3614C160.514 98.2123 160.5 98.063 160.485 97.9134C160.951 97.7505 161.419 97.5955 161.891 97.4484C162.724 96.2314 163.644 94.9918 164.657 93.7407C163.624 92.5571 162.511 91.4455 161.327 90.4139C160.961 90.486 160.595 90.563 160.229 90.6451C160.225 90.4923 160.222 90.3392 160.219 90.186C162.389 89.5108 164.606 88.994 166.851 88.6399C166.832 88.8036 166.813 88.9671 166.795 89.1305C166.292 89.2461 165.792 89.3693 165.294 89.5001C166.001 90.2715 166.676 91.076 167.319 91.9134C168.136 90.912 169.011 89.9069 169.945 88.8982C169.446 88.8913 168.946 88.8932 168.445 88.9041C168.469 88.7386 168.494 88.5729 168.519 88.4071C169.926 88.2363 171.34 88.1291 172.759 88.0854C172.719 88.2556 172.68 88.4256 172.641 88.5955C172.138 88.666 171.638 88.7437 171.14 88.8286C169.881 89.9901 168.713 91.1561 167.635 92.3267C168.664 93.7018 169.597 95.1461 170.429 96.6493C170.722 96.6738 171.015 96.7019 171.307 96.7336Z" fill="white" stroke="#190000" stroke-width="0.5" stroke-linecap="round" stroke-linejoin="round"/>
</g>
<path d="M156.383 118.176C163.365 123.731 164.341 123.044 164.341 123.044C163.966 97.7666 174.248 91.1369 168.647 83.1618C163.046 75.1867 161.959 75.0918 161.959 75.0918L154.369 73.8062L156.383 118.176Z" stroke="#190000" stroke-width="0.5" stroke-linecap="round" stroke-linejoin="round"/>
<path d="M169.025 206.131C178.616 209.058 188.887 204.18 188.887 204.18L178.241 145.651L149.039 103.055L140.804 110.603C134.422 116.452 133.928 126.18 139.685 132.616L161.815 157.357L169.025 206.131Z" fill="#399FE8"/>
<mask id="mask18_17_6" style="mask-type:luminance" maskUnits="userSpaceOnUse" x="135" y="103" width="54" height="105">
<path d="M169.025 206.131C178.616 209.058 188.887 204.18 188.887 204.18L178.241 145.651L149.039 103.055L140.804 110.603C134.422 116.452 133.928 126.18 139.685 132.616L161.815 157.357L169.025 206.131Z" fill="white"/>
</mask>
<g mask="url(#mask18_17_6)">
<path d="M159.878 120.805C163.769 130.693 143.733 112.508 136.255 118.349C123.033 128.678 139.795 138.482 139.726 144.725C139.656 150.968 127.229 128.591 127.229 128.591L127.388 103.055L143.4 101.762L155.123 103.055" fill="#3B8BE2"/>
<path d="M142.473 137.639L145.412 131.932L139.387 120.678C139.387 120.678 135.903 124.823 133.811 122.898C130.095 119.479 136.255 135.101 136.255 135.101" stroke="#2976DF" stroke-width="11" stroke-linecap="round" stroke-linejoin="round"/>
<path d="M145.931 113.17C137.261 118.633 168.227 154.484 168.416 156.941C168.605 159.397 175.032 202.216 175.032 202.216" stroke="#2976DF" stroke-width="11" stroke-linecap="round" stroke-linejoin="round"/>
<path d="M179.941 152.406C182.759 152.406 185.043 149.445 185.043 145.793C185.043 142.14 182.759 139.18 179.941 139.18C177.124 139.18 174.84 142.14 174.84 145.793C174.84 149.445 177.124 152.406 179.941 152.406Z" fill="#3B8BE2"/>
</g>
<path d="M169.025 206.131C178.616 209.058 188.887 204.18 188.887 204.18L178.241 145.651L149.039 103.055L140.804 110.603C134.422 116.452 133.928 126.18 139.685 132.616L161.815 157.357L169.025 206.131Z" stroke="#190000" stroke-width="0.5" stroke-linecap="round" stroke-linejoin="round"/>
<path d="M134.266 124.734C135.123 127.313 133.606 129.268 133.648 130.026C133.69 130.784 132.254 130.46 132.287 129.391C132.321 128.322 132.731 125.247 132.731 125.247L134.266 124.734Z" fill="#FACCC4" stroke="#190000" stroke-width="0.5" stroke-linecap="round" stroke-linejoin="round"/>
<path d="M134.661 142.65L114.552 134.686L114.834 133.975C116.235 130.436 118.577 127.505 121.429 125.722C124.353 123.893 127.466 123.48 130.194 124.56C135.738 126.756 137.868 134.552 134.943 141.939L134.661 142.65ZM116.552 133.833L133.788 140.659C136.006 134.28 134.219 127.799 129.631 125.982V125.982C127.366 125.085 124.742 125.453 122.239 127.018C119.852 128.511 117.853 130.913 116.552 133.833Z" fill="#B06759" stroke="#190000" stroke-width="0.5" stroke-linecap="round" stroke-linejoin="round"/>
<path d="M130.511 166.204L101.604 154.756C101.032 154.53 100.517 154.18 100.096 153.731C99.674 153.283 99.3565 152.747 99.1655 152.162C98.9746 151.577 98.9149 150.957 98.9908 150.347C99.0667 149.736 99.2763 149.15 99.6046 148.629L109.594 132.792C109.823 132.429 110.173 132.157 110.581 132.024C110.99 131.89 111.432 131.904 111.832 132.062L138.595 142.661C138.994 142.819 139.326 143.112 139.533 143.489C139.739 143.866 139.807 144.303 139.726 144.725L136.164 163.107C136.047 163.712 135.798 164.282 135.435 164.78C135.072 165.277 134.604 165.688 134.065 165.983C133.525 166.279 132.927 166.452 132.312 166.49C131.698 166.528 131.083 166.431 130.511 166.204Z" fill="#B06759"/>
<mask id="mask19_17_6" style="mask-type:luminance" maskUnits="userSpaceOnUse" x="98" y="131" width="42" height="36">
<path d="M130.511 166.204L101.604 154.756C101.032 154.53 100.517 154.18 100.096 153.731C99.674 153.283 99.3565 152.747 99.1655 152.162C98.9746 151.577 98.9149 150.957 98.9908 150.347C99.0667 149.736 99.2763 149.15 99.6046 148.629L109.594 132.792C109.823 132.429 110.173 132.157 110.581 132.024C110.99 131.89 111.432 131.904 111.832 132.062L138.595 142.661C138.994 142.819 139.326 143.112 139.533 143.489C139.739 143.866 139.807 144.303 139.726 144.725L136.164 163.107C136.047 163.712 135.798 164.282 135.435 164.78C135.072 165.277 134.604 165.688 134.065 165.983C133.525 166.279 132.927 166.452 132.312 166.49C131.698 166.528 131.083 166.431 130.511 166.204Z" fill="white"/>
</mask>
<g mask="url(#mask19_17_6)">
<path d="M102.825 143.524C100.533 160.185 130.763 160.706 133.408 166.5C136.053 172.295 93.5907 161.961 93.5907 161.961L92.9448 145.779" fill="#914D44"/>
<path d="M118.492 146.663C122.222 152.508 127.675 147.628 127.675 147.628L132.174 148.309L130.33 143.897L124.662 142.964" fill="#914D44"/>
<path d="M124.926 157.743C134.1 161.111 118.094 166.795 125.734 174.007L127.891 173.811C118.678 168.164 136.921 160.854 125.534 157.21L124.926 157.743Z" fill="#409159" stroke="#190000" stroke-width="0.5" stroke-linecap="round" stroke-linejoin="round"/>
<path d="M125.229 155.79C121.098 144.638 132.992 143.992 126.85 155.406L125.229 155.79Z" fill="#F08059"/>
<path d="M125.229 155.79C121.098 144.638 132.992 143.992 126.85 155.406" stroke="#190000" stroke-width="0.5" stroke-linecap="round" stroke-linejoin="round"/>
<path d="M126.06 156.88C130.19 168.031 118.296 168.677 124.439 157.264L126.06 156.88Z" fill="#F08059"/>
<path d="M126.06 156.88C130.19 168.031 118.296 168.677 124.439 157.264" stroke="#190000" stroke-width="0.5" stroke-linecap="round" stroke-linejoin="round"/>
<path d="M126.329 155.797C139.301 149.092 137.172 160.622 126.357 157.298L126.329 155.797Z" fill="#F08059"/>
<path d="M126.329 155.797C139.301 149.092 137.172 160.622 126.357 157.298" stroke="#190000" stroke-width="0.5" stroke-linecap="round" stroke-linejoin="round"/>
<path d="M124.959 156.873C111.987 163.577 114.116 152.047 124.931 155.371L124.959 156.873Z" fill="#F08059"/>
<path d="M124.959 156.873C111.987 163.577 114.116 152.047 124.931 155.371" stroke="#190000" stroke-width="0.5" stroke-linecap="round" stroke-linejoin="round"/>
<path d="M125.834 155.569C132.087 142.943 138.991 150.639 127.001 156.359L125.834 155.569Z" fill="#F08059"/>
<path d="M125.834 155.569C132.087 142.943 138.991 150.639 127.001 156.359" stroke="#190000" stroke-width="0.5" stroke-linecap="round" stroke-linejoin="round"/>
<path d="M125.454 157.1C119.201 169.727 112.297 162.031 124.288 156.311L125.454 157.1Z" fill="#F08059"/>
<path d="M125.454 157.1C119.201 169.727 112.297 162.031 124.288 156.311" stroke="#190000" stroke-width="0.5" stroke-linecap="round" stroke-linejoin="round"/>
<path d="M126.422 156.34C138.516 159.484 128.6 168.094 125.296 157.673L126.422 156.34Z" fill="#F08059"/>
<path d="M126.422 156.34C138.516 159.484 128.6 168.094 125.296 157.673" stroke="#190000" stroke-width="0.5" stroke-linecap="round" stroke-linejoin="round"/>
<path d="M124.866 156.329C112.773 153.185 122.688 144.575 125.992 154.996L124.866 156.329Z" fill="#F08059"/>
<path d="M124.866 156.329C112.773 153.185 122.688 144.575 125.992 154.996" stroke="#190000" stroke-width="0.5" stroke-linecap="round" stroke-linejoin="round"/>
<path d="M127.79 158.836C129.55 157.387 130.053 155.088 128.913 153.703C127.772 152.317 125.42 152.369 123.659 153.818C121.898 155.268 121.395 157.566 122.536 158.952C123.676 160.338 126.029 160.286 127.79 158.836Z" fill="white" stroke="#190000" stroke-width="0.5" stroke-linecap="round" stroke-linejoin="round"/>
</g>
<path d="M130.511 166.204L101.604 154.756C101.032 154.53 100.517 154.18 100.096 153.731C99.674 153.283 99.3565 152.747 99.1655 152.162C98.9746 151.577 98.9149 150.957 98.9908 150.347C99.0667 149.736 99.2763 149.15 99.6046 148.629L109.594 132.792C109.823 132.429 110.173 132.157 110.581 132.024C110.99 131.89 111.432 131.904 111.832 132.062L138.595 142.661C138.994 142.819 139.326 143.112 139.533 143.489C139.739 143.866 139.807 144.303 139.726 144.725L136.164 163.107C136.047 163.712 135.798 164.282 135.435 164.78C135.072 165.277 134.604 165.688 134.065 165.983C133.525 166.279 132.927 166.452 132.312 166.49C131.698 166.528 131.083 166.431 130.511 166.204Z" stroke="#190000" stroke-width="0.5" stroke-linecap="round" stroke-linejoin="round"/>
<path d="M115.633 134.421L113.122 140.763L118.307 142.817C117.851 143.968 117.871 145.253 118.363 146.39C118.854 147.526 119.777 148.421 120.929 148.877L120.929 148.877C122.08 149.333 123.365 149.313 124.502 148.821C125.639 148.33 126.533 147.406 126.989 146.255L132.174 148.309L134.686 141.966C134.794 141.693 134.848 141.401 134.843 141.107C134.839 140.813 134.776 140.522 134.659 140.252C134.542 139.982 134.374 139.738 134.162 139.533C133.951 139.329 133.702 139.167 133.428 139.059L118.541 133.163C117.988 132.944 117.372 132.954 116.826 133.19C116.281 133.426 115.852 133.869 115.633 134.421Z" fill="#FBD164" stroke="#190000" stroke-width="0.5" stroke-linecap="round" stroke-linejoin="round"/>
<path d="M122.326 145.778C122.949 145.778 123.453 145.274 123.453 144.651C123.453 144.029 122.949 143.524 122.326 143.524C121.704 143.524 121.199 144.029 121.199 144.651C121.199 145.274 121.704 145.778 122.326 145.778Z" fill="white" stroke="#190000" stroke-width="0.5" stroke-linecap="round" stroke-linejoin="round"/>
<path d="M132.217 113.17L129.629 120.067C126.34 123.453 125.665 124.502 125.285 125.955C125.139 126.512 126.325 127.085 126.665 126.744C126.665 126.744 125.333 128.186 127.229 128.592C127.229 128.592 127.216 129.529 129.078 129.473C129.078 129.473 128.244 130.591 129.465 131.024C130.686 131.458 131.903 127.809 132.372 127.561C132.841 127.312 134.171 126.111 134.35 125.911C134.529 125.711 136.639 116.725 136.639 116.725L132.217 113.17Z" fill="#FACCC4"/>
<mask id="mask20_17_6" style="mask-type:luminance" maskUnits="userSpaceOnUse" x="125" y="113" width="12" height="19">
<path d="M132.217 113.17L129.629 120.067C126.34 123.453 125.665 124.502 125.285 125.955C125.139 126.512 126.325 127.085 126.665 126.744C126.665 126.744 125.333 128.186 127.229 128.592C127.229 128.592 127.216 129.529 129.078 129.473C129.078 129.473 128.244 130.591 129.465 131.024C130.686 131.458 131.903 127.809 132.372 127.561C132.841 127.312 134.171 126.111 134.35 125.911C134.529 125.711 136.639 116.725 136.639 116.725L132.217 113.17Z" fill="white"/>
</mask>
<g mask="url(#mask20_17_6)">
<path d="M125.644 123.41C126.527 122.154 135.64 124.324 133.811 122.898C131.981 121.472 129.254 119.965 129.254 119.965L125.273 120.288" fill="#ED707B"/>
</g>
<path d="M132.217 113.17L129.629 120.067C126.34 123.453 125.665 124.502 125.285 125.955C125.139 126.512 126.325 127.085 126.665 126.744C126.665 126.744 125.333 128.186 127.229 128.592C127.229 128.592 127.216 129.529 129.078 129.473C129.078 129.473 128.244 130.591 129.465 131.024C130.686 131.458 131.903 127.809 132.372 127.561C132.841 127.312 134.171 126.111 134.35 125.911C134.529 125.711 136.639 116.725 136.639 116.725L132.217 113.17Z" stroke="#190000" stroke-width="0.5" stroke-linecap="round" stroke-linejoin="round"/>
<path d="M151.565 70.8829C156.132 70.8829 159.835 68.8346 159.835 66.3079C159.835 63.7812 156.132 61.7329 151.565 61.7329C146.997 61.7329 143.295 63.7812 143.295 66.3079C143.295 68.8346 146.997 70.8829 151.565 70.8829Z" fill="#516DDB" stroke="#190000" stroke-width="0.5" stroke-linecap="round" stroke-linejoin="round"/>
<path d="M155.123 78.4861L160.44 64.9663L169.771 69.0721L168.822 69.8868C165.834 77.4385 165.548 80.1736 165.548 80.1736" fill="#FACCC4"/>
<mask id="mask21_17_6" style="mask-type:luminance" maskUnits="userSpaceOnUse" x="155" y="64" width="15" height="17">
<path d="M155.123 78.4861L160.44 64.9663L169.771 69.0721L168.822 69.8868C165.834 77.4385 165.548 80.1736 165.548 80.1736" fill="white"/>
</mask>
<g mask="url(#mask21_17_6)">
<path d="M165.297 69.9809C160.185 71.7342 168.381 74.7031 169.583 78.7544C170.785 82.8058 172.535 69.9434 172.535 69.9434" fill="#ED707B"/>
</g>
<path d="M155.123 78.4861L160.44 64.9663L169.771 69.0721L168.822 69.8868C165.834 77.4385 165.548 80.1736 165.548 80.1736" stroke="#190000" stroke-width="0.5" stroke-linecap="round" stroke-linejoin="round"/>
<path d="M171.233 62.6713C174.397 62.6713 176.962 61.0207 176.962 58.9846C176.962 56.9484 174.397 55.2979 171.233 55.2979C168.068 55.2979 165.503 56.9484 165.503 58.9846C165.503 61.0207 168.068 62.6713 171.233 62.6713Z" fill="#516DDB" stroke="#190000" stroke-width="0.5" stroke-linecap="round" stroke-linejoin="round"/>
<path d="M171.105 56.2472C170.601 55.5904 169.95 55.1008 169.188 54.9053C169.178 54.9028 169.169 54.9025 169.159 54.9001C167.514 54.0378 165.482 53.5215 163.275 53.5215C157.812 53.5215 153.383 56.6464 153.383 60.5013C153.383 64.3561 157.812 67.4811 163.275 67.4811C168.738 67.4811 173.167 64.3561 173.167 60.5013C173.167 58.898 172.393 57.4255 171.105 56.2472Z" fill="#516DDB" stroke="#190000" stroke-width="0.5" stroke-linecap="round" stroke-linejoin="round"/>
<path d="M163.739 70.2375C170.655 75.475 178.567 67.4042 172.177 59.832C172.03 62.9749 169.342 66.3707 162.23 66.0708C162.015 67.5109 161.947 68.5367 161.947 68.5367" fill="#FACCC4"/>
<path d="M163.739 70.2375C170.655 75.475 178.567 67.4042 172.177 59.832C172.03 62.9749 169.342 66.3707 162.23 66.0708C162.015 67.5109 161.947 68.5367 161.947 68.5367" stroke="#190000" stroke-width="0.5" stroke-linecap="round" stroke-linejoin="round"/>
<path d="M164.191 66.6169L165.503 64.53C157.314 57.0504 155.583 67.4334 162.533 68.7531" fill="#FACCC4"/>
<path d="M164.191 66.6169L165.503 64.53C157.314 57.0504 155.583 67.4334 162.533 68.7531" stroke="#190000" stroke-width="0.5" stroke-linecap="round" stroke-linejoin="round"/>
<path d="M140.017 105.129C144.95 121.045 163.217 124.823 163.217 124.823C163.217 124.823 166.585 81.6701 158.244 73.8059C158.244 73.8059 153.266 72.5704 150.922 73.3938C148.578 74.2172 158.676 98.2012 140.017 105.129Z" fill="#9879C9"/>
<mask id="mask22_17_6" style="mask-type:luminance" maskUnits="userSpaceOnUse" x="140" y="73" width="24" height="52">
<path d="M140.017 105.129C144.95 121.045 163.217 124.823 163.217 124.823C163.217 124.823 166.585 81.6701 158.244 73.8059C158.244 73.8059 153.266 72.5704 150.922 73.3938C148.578 74.2172 158.676 98.2012 140.017 105.129Z" fill="white"/>
</mask>
<g mask="url(#mask22_17_6)">
<path d="M150.638 83.1895C158.656 87.2258 160.687 85.0096 150.746 97.8061C140.804 110.603 161.498 121.428 159.835 124.823C158.172 128.217 130.956 116.531 130.956 116.531L137.506 91.0827" fill="#6F4EB9"/>
</g>
<path d="M140.017 105.129C144.95 121.045 163.217 124.823 163.217 124.823C163.217 124.823 166.585 81.6701 158.244 73.8059C158.244 73.8059 153.266 72.5704 150.922 73.3938C148.578 74.2172 158.676 98.2012 140.017 105.129Z" stroke="#190000" stroke-width="0.5" stroke-linecap="round" stroke-linejoin="round"/>
<path d="M156.751 86.5544C157.124 86.1304 157.322 85.5809 157.305 85.0166C157.225 82.1475 156.492 73.4009 150.531 73.4009C143.4 73.4009 130.956 97.806 130.956 97.806L124.578 119.425C129.018 122.418 135.731 122.838 135.731 122.838L143.4 101.762L156.751 86.5544Z" fill="#9879C9" stroke="#190000" stroke-width="0.5" stroke-linecap="round" stroke-linejoin="round"/>
<path d="M150.513 100.541L148.418 103.375L155.488 108.9L158.095 106.492L150.513 100.541Z" fill="#9879C9" stroke="#190000" stroke-width="0.5" stroke-linecap="round" stroke-linejoin="round"/>
<path d="M125.404 114.428L124.578 119.426C124.578 119.426 129.877 122.888 135.731 122.838L137.261 118.634C137.261 118.634 125.094 117.617 125.404 114.428Z" fill="#6F4EB9" stroke="#190000" stroke-width="0.5" stroke-linecap="round" stroke-linejoin="round"/>
<path d="M188.321 82.5604C188.321 82.5604 192.684 86.9871 192.02 94.9275L196.545 92.2523C196.545 92.2523 196.393 84.8485 192.64 81.2461L188.321 82.5604Z" fill="#6F4EB9" stroke="#190000" stroke-width="0.5" stroke-linecap="round" stroke-linejoin="round"/>
<path d="M153.843 123.071C153.985 128.316 149.071 128.573 149.071 128.573" stroke="#2976DF" stroke-width="11" stroke-linecap="round" stroke-linejoin="round"/>
<path d="M161.636 64.0806C161.535 64.104 161.443 64.1586 161.374 64.2368C161.306 64.3149 161.263 64.4126 161.253 64.5161C161.242 64.6197 161.264 64.7239 161.316 64.8142C161.368 64.9044 161.447 64.9762 161.542 65.0194" stroke="#373947" stroke-linecap="round" stroke-linejoin="round"/>
<path d="M171.57 63.1671C171.742 63.1525 171.913 63.2069 172.045 63.3184C172.177 63.4298 172.259 63.5891 172.274 63.7613L172.367 64.8576C172.381 65.0298 172.327 65.2007 172.215 65.3327C172.104 65.4648 171.945 65.5472 171.773 65.5618C171.6 65.5764 171.429 65.522 171.297 65.4106C171.165 65.2991 171.083 65.1398 171.068 64.9677L170.975 63.8713C170.961 63.6991 171.015 63.5282 171.127 63.3962C171.238 63.2641 171.397 63.1817 171.57 63.1671Z" fill="#190000"/>
<path d="M171.963 60.9462C169.995 61.0254 169.627 61.8753 170.861 61.906C172.095 61.9367 173.249 60.8944 171.963 60.9462Z" fill="#190000"/>
<path d="M173.427 64.2783C175.946 65.607 175.276 68.1978 173.568 67.7406L173.427 64.2783Z" fill="#FACCC4"/>
<path d="M173.427 64.2783C175.946 65.607 175.276 68.1978 173.568 67.7406" stroke="#190000" stroke-width="0.5" stroke-linecap="round" stroke-linejoin="round"/>
<path opacity="0.27" d="M167.57 69.1713C168.778 69.1713 169.758 68.1917 169.758 66.9833C169.758 65.775 168.778 64.7954 167.57 64.7954C166.361 64.7954 165.382 65.775 165.382 66.9833C165.382 68.1917 166.361 69.1713 167.57 69.1713Z" fill="#ED707B"/>
<path d="M170.37 67.3613C171.034 68.7269 172.361 68.7416 172.361 68.7416" stroke="#993443" stroke-linecap="round" stroke-linejoin="round"/>
<path d="M143.109 101.666C142.707 101.719 142.298 101.685 141.911 101.566C141.523 101.447 141.166 101.245 140.864 100.975" stroke="#6F4EB9" stroke-width="11" stroke-linecap="round" stroke-linejoin="round"/>
<path d="M178.951 89.2822L178.418 90.8056" stroke="#6F4EB9" stroke-width="11" stroke-linecap="round" stroke-linejoin="round"/>
<path d="M146.125 84.103C146.02 84.7773 146.115 85.4676 146.399 86.0883" stroke="#6F4EB9" stroke-width="11" stroke-linecap="round" stroke-linejoin="round"/>
<path d="M162.452 157.927C163.151 158.308 163.937 158.5 164.733 158.484C165.529 158.468 166.307 158.244 166.99 157.836" stroke="#2976DF" stroke-width="11" stroke-linecap="round" stroke-linejoin="round"/>
<path d="M107.36 145.571C107.559 146.514 107.948 147.408 108.501 148.198C109.055 148.987 109.763 149.657 110.582 150.166" stroke="#914D44" stroke-width="11" stroke-linecap="round" stroke-linejoin="round"/>
<path d="M73.1442 98.936L65.1721 109.948L66.2109 116.32L74.1756 110.364L78.0392 101.429" fill="#FACCC4"/>
<path d="M73.1442 98.936L65.1721 109.948L66.2109 116.32L74.1756 110.364L78.0392 101.429" stroke="#190000" stroke-width="0.5" stroke-linecap="round" stroke-linejoin="round"/>
<path d="M71.9449 98.0517C70.8773 101.437 78.6002 111.579 78.6002 111.579C78.6002 111.579 103.396 93.4062 91.1176 84.0272C84.3537 78.8604 71.9449 98.0517 71.9449 98.0517Z" fill="#FBD164"/>
<mask id="mask23_17_6" style="mask-type:luminance" maskUnits="userSpaceOnUse" x="71" y="83" width="24" height="29">
<path d="M71.9449 98.0517C70.8773 101.437 78.6002 111.579 78.6002 111.579C78.6002 111.579 103.396 93.4062 91.1176 84.0272C84.3537 78.8604 71.9449 98.0517 71.9449 98.0517Z" fill="white"/>
</mask>
<g mask="url(#mask23_17_6)">
<path d="M73.6696 93.585C73.2445 96.797 74.8978 101.332 76.2676 102.654C77.6375 103.977 75.2757 104.544 75.2757 104.544L69.9164 103.395L67.1263 95.3327" fill="#F08059"/>
<path d="M73.6696 93.585C73.2445 96.797 74.8978 101.332 76.2676 102.654C77.6375 103.977 75.2757 104.544 75.2757 104.544L69.9164 103.395L67.1263 95.3327" stroke="#190000" stroke-width="0.5" stroke-linecap="round" stroke-linejoin="round"/>
</g>
<path d="M71.9449 98.0517C70.8773 101.437 78.6002 111.579 78.6002 111.579C78.6002 111.579 103.396 93.4062 91.1176 84.0272C84.3537 78.8604 71.9449 98.0517 71.9449 98.0517Z" stroke="#190000" stroke-width="0.5" stroke-linecap="round" stroke-linejoin="round"/>
<path d="M44.5651 195.536C45.0794 200.937 54.2853 205.823 54.2853 205.823L113.069 137.646L96.3749 125.965L44.5651 195.536Z" fill="#399FE8"/>
<mask id="mask24_17_6" style="mask-type:luminance" maskUnits="userSpaceOnUse" x="44" y="125" width="70" height="81">
<path d="M44.5651 195.536C45.0794 200.937 54.2853 205.823 54.2853 205.823L113.069 137.646L96.3749 125.965L44.5651 195.536Z" fill="white"/>
</mask>
<g mask="url(#mask24_17_6)">
<path d="M49.9022 176.412C66.5464 166.018 70.9204 188.047 76.8303 185.277C82.7403 182.506 71.3315 159.593 71.3315 159.593L64.3669 158.682" fill="#3B8BE2"/>
<path d="M49.9022 199.691L113.069 132.366" stroke="#2976DF" stroke-width="11" stroke-linecap="round" stroke-linejoin="round"/>
</g>
<path d="M44.5651 195.536C45.0794 200.937 54.2853 205.823 54.2853 205.823L113.069 137.646L96.3749 125.965L44.5651 195.536Z" stroke="#190000" stroke-width="0.5" stroke-linecap="round" stroke-linejoin="round"/>
<path d="M79.8344 196.063C97.644 196.995 95.2395 193.12 95.2395 193.12L76.941 150.54L108.287 143.276C117.523 141.136 122.239 130.84 117.827 122.449L112.396 112.12L90.8652 118.764L94.1102 123.137L59.4107 141.579C58.5734 142.012 57.8299 142.606 57.223 143.327C56.6161 144.048 56.1577 144.882 55.8741 145.781C55.5906 146.68 55.4875 147.626 55.5708 148.565C55.6542 149.504 55.9222 150.417 56.3596 151.252L79.8344 196.063Z" fill="#399FE8"/>
<mask id="mask25_17_6" style="mask-type:luminance" maskUnits="userSpaceOnUse" x="55" y="112" width="65" height="85">
<path d="M79.8344 196.063C97.644 196.995 95.2395 193.12 95.2395 193.12L76.941 150.54L108.287 143.276C117.523 141.136 122.239 130.84 117.827 122.449L112.396 112.12L90.8652 118.764L94.1102 123.137L59.4107 141.579C58.5734 142.012 57.8299 142.606 57.223 143.327C56.6161 144.048 56.1577 144.882 55.8741 145.781C55.5906 146.68 55.4875 147.626 55.5708 148.565C55.6542 149.504 55.9222 150.417 56.3596 151.252L79.8344 196.063Z" fill="white"/>
</mask>
<g mask="url(#mask25_17_6)">
<path d="M91.6977 122.37C85.4992 130.212 118.2 109.935 119.493 129.23C120.786 148.524 123.556 111.578 123.556 111.578L111.552 104.277L78.8171 116.32" fill="#3B8BE2"/>
<path d="M94.0986 151.11C90.138 146.45 73.502 139.105 100.376 139.105C127.25 139.105 125.588 132.272 125.588 132.272L124.295 146.564L111.182 154.163" fill="#3B8BE2"/>
<path d="M106.103 119.159L106.762 121.682C107.476 124.413 107.135 127.312 105.809 129.803C104.482 132.294 102.267 134.195 99.6034 135.128L74.307 143.985C73.6152 144.227 72.98 144.607 72.4401 145.103C71.9002 145.599 71.467 146.199 71.1668 146.868C70.8666 147.537 70.7057 148.259 70.6939 148.992C70.6822 149.725 70.8198 150.453 71.0985 151.131L88.2713 192.911" stroke="#2976DF" stroke-width="11" stroke-linecap="round" stroke-linejoin="round"/>
<path d="M98.6105 124.619C95.9653 128.87 104.94 130.908 104.94 130.908" stroke="#2976DF" stroke-width="11" stroke-linecap="round" stroke-linejoin="round"/>
<path d="M56.6235 152.583C59.1574 152.583 61.2116 149.831 61.2116 146.437C61.2116 143.042 59.1574 140.29 56.6235 140.29C54.0896 140.29 52.0354 143.042 52.0354 146.437C52.0354 149.831 54.0896 152.583 56.6235 152.583Z" fill="#3152BA"/>
</g>
<path d="M79.8344 196.063C97.644 196.995 95.2395 193.12 95.2395 193.12L76.941 150.54L108.287 143.276C117.523 141.136 122.239 130.84 117.827 122.449L112.396 112.12L90.8652 118.764L94.1102 123.137L59.4107 141.579C58.5734 142.012 57.8299 142.606 57.223 143.327C56.6161 144.048 56.1577 144.882 55.8741 145.781C55.5906 146.68 55.4875 147.626 55.5708 148.565C55.6542 149.504 55.9222 150.417 56.3596 151.252L79.8344 196.063Z" stroke="#190000" stroke-width="0.5" stroke-linecap="round" stroke-linejoin="round"/>
<path d="M126.907 216.001H124.67L112.88 145.908H115.117L126.907 216.001Z" fill="white" stroke="#190000" stroke-width="0.5" stroke-linecap="round" stroke-linejoin="round"/>
<path d="M78.0391 216.001H80.2762L92.0669 145.908H89.8298L78.0391 216.001Z" fill="white" stroke="#190000" stroke-width="0.5" stroke-linecap="round" stroke-linejoin="round"/>
<path d="M117.134 145.221H87.8124V147.907H117.134V145.221Z" fill="white" stroke="#190000" stroke-width="0.5" stroke-linecap="round" stroke-linejoin="round"/>
<path d="M116.893 140.29H88.0534C86.5634 140.29 85.3555 141.498 85.3555 142.988C85.3555 144.478 86.5634 145.686 88.0534 145.686H116.893C118.383 145.686 119.591 144.478 119.591 142.988C119.591 141.498 118.383 140.29 116.893 140.29Z" fill="#F08059"/>
<mask id="mask26_17_6" style="mask-type:luminance" maskUnits="userSpaceOnUse" x="85" y="140" width="35" height="6">
<path d="M116.893 140.29H88.0534C86.5634 140.29 85.3555 141.498 85.3555 142.988C85.3555 144.478 86.5634 145.686 88.0534 145.686H116.893C118.383 145.686 119.591 144.478 119.591 142.988C119.591 141.498 118.383 140.29 116.893 140.29Z" fill="white"/>
</mask>
<g mask="url(#mask26_17_6)">
<path d="M85.3555 144.738C116.076 144.83 121.422 144.235 118.565 140.885C115.707 137.535 124.018 139.844 124.018 139.844L125.495 146.563L117.134 150.713L91.4776 149.411" fill="#D35D3D"/>
</g>
<path d="M116.893 140.29H88.0534C86.5634 140.29 85.3555 141.498 85.3555 142.988C85.3555 144.478 86.5634 145.686 88.0534 145.686H116.893C118.383 145.686 119.591 144.478 119.591 142.988C119.591 141.498 118.383 140.29 116.893 140.29Z" stroke="#190000" stroke-width="0.5" stroke-linecap="round" stroke-linejoin="round"/>
<path d="M73.3262 76.8159C66.7421 73.7614 68.3452 83.0196 68.3452 83.0196L58.7736 115.034H69.3936L73.1625 83.8163C73.1625 83.8163 76.7841 75.1847 73.3262 76.8159Z" fill="#FACCC4"/>
<mask id="mask27_17_6" style="mask-type:luminance" maskUnits="userSpaceOnUse" x="58" y="76" width="17" height="40">
<path d="M73.3262 76.8159C66.7421 73.7614 68.3452 83.0196 68.3452 83.0196L58.7736 115.034H69.3936L73.1625 83.8163C73.1625 83.8163 76.7841 75.1847 73.3262 76.8159Z" fill="white"/>
</mask>
<g mask="url(#mask27_17_6)">
<path d="M52.8211 110.663C62.0554 119.898 67.4496 106.619 69.3697 107.718C71.2897 108.816 70.2799 118.974 70.2799 118.974L59.6724 121.266L52.6266 119.759" fill="#ED707B"/>
<path d="M68.4296 79.5093C66.6227 80.8383 72.0289 83.1436 72.7042 85.1784C73.3796 87.2133 74.5642 81.5464 74.5642 81.5464L73.5022 80.2381" fill="#ED707B"/>
</g>
<path d="M73.3262 76.8159C66.7421 73.7614 68.3452 83.0196 68.3452 83.0196L58.7736 115.034H69.3936L73.1625 83.8163C73.1625 83.8163 76.7841 75.1847 73.3262 76.8159Z" stroke="#190000" stroke-width="0.5" stroke-linecap="round" stroke-linejoin="round"/>
<path d="M89.0925 81.5466C93.4614 81.5466 97.0031 79.5873 97.0031 77.1705C97.0031 74.7537 93.4614 72.7944 89.0925 72.7944C84.7236 72.7944 81.1819 74.7537 81.1819 77.1705C81.1819 79.5873 84.7236 81.5466 89.0925 81.5466Z" fill="#409159" stroke="#190000" stroke-width="0.5" stroke-linecap="round" stroke-linejoin="round"/>
<path d="M73.8745 81.7262C79.1286 87.4482 80.321 89.7929 80.321 89.7929L89.0544 84.7169L79.6767 74.4619L72.7483 81.3234" fill="#FACCC4"/>
<mask id="mask28_17_6" style="mask-type:luminance" maskUnits="userSpaceOnUse" x="72" y="74" width="18" height="16">
<path d="M73.8745 81.7262C79.1286 87.4482 80.321 89.7929 80.321 89.7929L89.0544 84.7169L79.6767 74.4619L72.7483 81.3234" fill="white"/>
</mask>
<g mask="url(#mask28_17_6)">
<path d="M77.3027 79.5148C82.4693 79.3306 75.1964 83.7566 75.5098 87.7866C75.8233 91.8165 70.5778 83.048 70.5778 83.048" fill="#ED707B"/>
</g>
<path d="M73.8745 81.7262C79.1286 87.4482 80.321 89.7929 80.321 89.7929L89.0544 84.7169L79.6767 74.4619L72.7483 81.3234" stroke="#190000" stroke-width="0.5" stroke-linecap="round" stroke-linejoin="round"/>
<path d="M70.28 73.692C73.3067 73.692 75.7604 72.1131 75.7604 70.1656C75.7604 68.218 73.3067 66.6392 70.28 66.6392C67.2532 66.6392 64.7996 68.218 64.7996 70.1656C64.7996 72.1131 67.2532 73.692 70.28 73.692Z" fill="#409159" stroke="#190000" stroke-width="0.5" stroke-linecap="round" stroke-linejoin="round"/>
<path d="M77.8914 64.9399C75.7801 64.9399 73.837 65.4338 72.2629 66.2586C72.2538 66.2609 72.2447 66.2612 72.2356 66.2636C71.5062 66.4506 70.8845 66.9188 70.4023 67.5469C69.1701 68.6741 68.4297 70.0825 68.4297 71.6163C68.4297 75.3034 72.666 78.2925 77.8914 78.2925C83.1171 78.2925 87.3533 75.3034 87.3533 71.6163C87.3534 67.929 83.1171 64.9399 77.8914 64.9399Z" fill="#409159" stroke="#190000" stroke-width="0.5" stroke-linecap="round" stroke-linejoin="round"/>
<path d="M69.3766 70.9761C62.727 78.8561 72.2698 87.3009 79.1622 79.3024C79.1622 79.3024 79.0966 78.3211 78.8914 76.9437C72.0887 77.2305 69.5176 73.9824 69.3766 70.9761Z" fill="#FACCC4" stroke="#190000" stroke-width="0.5" stroke-linecap="round" stroke-linejoin="round"/>
<path d="M77.4249 77.7136L75.7604 75.47C84.3236 68.0644 85.2493 78.2472 78.601 79.5095" fill="#FACCC4"/>
<path d="M77.4249 77.7136L75.7604 75.47C84.3236 68.0644 85.2493 78.2472 78.601 79.5095" stroke="#190000" stroke-width="0.5" stroke-linecap="round" stroke-linejoin="round"/>
<path d="M76.7521 95.7735L65.3187 114.272L46.7044 114.333C46.7044 114.333 42.6888 114.909 42.4119 115.268C42.1349 115.628 37.3578 120.735 36.8039 120.664C36.25 120.592 37.3578 123.325 40.4733 120.088L41.6503 118.793C41.6503 118.793 42.9658 120.304 43.7274 120.376C44.4889 120.448 48.4996 118.876 48.4996 118.876L67.3095 122.899C70.1547 123.065 72.8581 121.717 74.3064 119.411L92.0671 94.519L76.7521 95.7735Z" fill="#FACCC4"/>
<mask id="mask29_17_6" style="mask-type:luminance" maskUnits="userSpaceOnUse" x="36" y="94" width="57" height="29">
<path d="M76.7521 95.7735L65.3187 114.272L46.7044 114.333C46.7044 114.333 42.6888 114.909 42.4119 115.268C42.1349 115.628 37.3578 120.735 36.8039 120.664C36.25 120.592 37.3578 123.325 40.4733 120.088L41.6503 118.793C41.6503 118.793 42.9658 120.304 43.7274 120.376C44.4889 120.448 48.4996 118.876 48.4996 118.876L67.3095 122.899C70.1547 123.065 72.8581 121.717 74.3064 119.411L92.0671 94.519L76.7521 95.7735Z" fill="white"/>
</mask>
<g mask="url(#mask29_17_6)">
<path d="M73.206 101.706C70.4357 102.537 78.8317 113.48 78.3043 118.12C77.777 122.76 83.5254 109.186 83.5254 109.186L79.3007 104.753" fill="#ED707B"/>
</g>
<path d="M76.7521 95.7735L65.3187 114.272L46.7044 114.333C46.7044 114.333 42.6888 114.909 42.4119 115.268C42.1349 115.628 37.3578 120.735 36.8039 120.664C36.25 120.592 37.3578 123.325 40.4733 120.088L41.6503 118.793C41.6503 118.793 42.9658 120.304 43.7274 120.376C44.4889 120.448 48.4996 118.876 48.4996 118.876L67.3095 122.899C70.1547 123.065 72.8581 121.717 74.3064 119.411L92.0671 94.519L76.7521 95.7735Z" stroke="#190000" stroke-width="0.5" stroke-linecap="round" stroke-linejoin="round"/>
<path d="M87.0274 82.1309L86.0687 81.4118L84.4749 78.5283L78.3387 85.9659L78.0391 92.2577L87.0274 82.1309Z" fill="#FB81B2" stroke="#190000" stroke-width="0.5" stroke-linecap="round" stroke-linejoin="round"/>
<path d="M87.6267 122.317C96.5232 125.074 117.741 112.857 117.741 112.857C112.947 109.139 106.442 82.1274 86.0687 81.4116L78.623 88.4361C75.7604 105.476 93.2675 106.416 87.6267 122.317Z" fill="#FBD164"/>
<mask id="mask30_17_6" style="mask-type:luminance" maskUnits="userSpaceOnUse" x="78" y="81" width="40" height="42">
<path d="M87.6267 122.317C96.5232 125.074 117.741 112.857 117.741 112.857C112.947 109.139 106.442 82.1274 86.0687 81.4116L78.623 88.4361C75.7604 105.476 93.2675 106.416 87.6267 122.317Z" fill="white"/>
</mask>
<g mask="url(#mask30_17_6)">
<path d="M88.5491 93.4431C99.5142 90.3958 87.0593 108.508 89.9819 116.143C92.9045 123.777 110.813 115.419 106.103 119.159C101.394 122.899 83.8023 124.977 83.8023 124.977L80.2009 101.152" fill="#F9B964"/>
<path d="M86.0455 119.707C96.9679 121.785 114.954 109.504 115.993 108.181C117.033 106.859 119.591 114.416 119.591 114.416L85.3555 127.79" fill="#F08059"/>
<path d="M86.0455 119.707C96.9679 121.785 114.954 109.504 115.993 108.181C117.033 106.859 119.591 114.416 119.591 114.416L85.3555 127.79" stroke="#190000" stroke-width="0.5" stroke-linecap="round" stroke-linejoin="round"/>
<path d="M99.9906 97.7966C96.1076 92.8385 97.7168 85.6052 102.768 85.3134L111.507 98.6666C111.056 99.6043 110.889 99.8087 110.014 100.489C106.425 102.542 102.255 100.688 99.9906 97.7966ZM98.476 99.071C102.54 104.272 109.93 105.172 112.852 100.823L112.88 100.763C109.411 95.5004 104.787 88.4831 101.319 83.2202C100.847 83.3247 100.383 83.4624 99.9305 83.6321C95.0334 86.4197 94.3402 93.7784 98.476 99.071Z" fill="#F08059" stroke="#190000" stroke-width="0.5" stroke-linecap="round" stroke-linejoin="round"/>
<path d="M104.783 89.3651C105.104 89.793 105.528 89.9669 105.781 89.9175L104.534 88.0127C104.359 88.2814 104.404 88.8607 104.783 89.3651Z" fill="#F08059" stroke="#190000" stroke-width="0.5" stroke-linecap="round" stroke-linejoin="round"/>
<path d="M100.285 90.796C101.166 90.2893 102.17 91.4342 101.912 92.3159C101.667 93.1578 100.546 93.0952 100.067 92.2129C99.7824 91.6873 99.8779 91.0649 100.285 90.796Z" fill="#F08059" stroke="#190000" stroke-width="0.5" stroke-linecap="round" stroke-linejoin="round"/>
<path d="M102.112 95.3456C104.695 98.9554 108.58 98.1668 109.019 95.5904C109.049 95.3719 109.064 95.1514 109.062 94.9308L106.674 91.2812C106.655 91.5128 106.636 91.7523 106.951 92.2329C108.576 95.2131 106.704 96.3551 105.112 95.8156C104.73 95.6862 104.003 95.3382 103.429 94.4612C102.746 93.579 101.995 94.0347 101.93 94.624C101.907 94.8782 101.972 95.1325 102.112 95.3456Z" fill="#F08059" stroke="#190000" stroke-width="0.5" stroke-linecap="round" stroke-linejoin="round"/>
</g>
<path d="M87.6267 122.317C96.5232 125.074 117.741 112.857 117.741 112.857C112.947 109.139 106.442 82.1274 86.0687 81.4116L78.623 88.4361C75.7604 105.476 93.2675 106.416 87.6267 122.317Z" stroke="#190000" stroke-width="0.5" stroke-linecap="round" stroke-linejoin="round"/>
<path d="M87.7932 81.5407C79.8281 78.5401 72.7045 101.082 72.7045 101.082C72.6569 104.631 82.9725 112.12 82.9725 112.12C82.9725 112.12 90.7188 101.851 92.2768 93.1241" fill="#FBD164"/>
<mask id="mask31_17_6" style="mask-type:luminance" maskUnits="userSpaceOnUse" x="72" y="81" width="21" height="32">
<path d="M87.7932 81.5407C79.8281 78.5401 72.7045 101.082 72.7045 101.082C72.6569 104.631 82.9725 112.12 82.9725 112.12C82.9725 112.12 90.7188 101.851 92.2768 93.1241" fill="white"/>
</mask>
<g mask="url(#mask31_17_6)">
<path d="M73.7405 96.6924C73.52 101.003 86.557 109.194 86.557 109.194L84.5104 114.629L70.0061 101.52" fill="#F08059"/>
<path d="M73.7405 96.6924C73.52 101.003 86.557 109.194 86.557 109.194L84.5104 114.629L70.0061 101.52" stroke="#190000" stroke-width="0.5" stroke-linecap="round" stroke-linejoin="round"/>
</g>
<path d="M87.7932 81.5407C79.8281 78.5401 72.7045 101.082 72.7045 101.082C72.6569 104.631 82.9725 112.12 82.9725 112.12C82.9725 112.12 90.7188 101.851 92.2768 93.1241" stroke="#190000" stroke-width="0.5" stroke-linecap="round" stroke-linejoin="round"/>
<path d="M25.5088 121.266H53.0837C53.423 121.266 53.7485 121.401 53.9884 121.641C54.2284 121.881 54.3632 122.206 54.3632 122.546V123.474H25.5088V121.266Z" fill="#4B4D5C" stroke="#190000" stroke-width="0.5" stroke-linecap="round" stroke-linejoin="round"/>
<path d="M31.4171 122.287H28.3599V122.605H31.4171V122.287Z" fill="#4B4D5C" stroke="#190000" stroke-width="0.5" stroke-linecap="round" stroke-linejoin="round"/>
<path d="M34.0412 122.287H32.1384V122.605H34.0412V122.287Z" fill="#4B4D5C" stroke="#190000" stroke-width="0.5" stroke-linecap="round" stroke-linejoin="round"/>
<path d="M27.1045 123.534H25.6177L19.4785 93.4087H20.9654L27.1045 123.534Z" fill="#4B4D5C"/>
<mask id="mask32_17_6" style="mask-type:luminance" maskUnits="userSpaceOnUse" x="19" y="93" width="9" height="31">
<path d="M27.1045 123.534H25.6177L19.4785 93.4087H20.9654L27.1045 123.534Z" fill="white"/>
</mask>
<g mask="url(#mask32_17_6)">
<path d="M27.4939 120.164H26.007L20.7955 94.4819H22.2824L27.4939 120.164Z" fill="#409159" stroke="#190000" stroke-width="0.5" stroke-linecap="round" stroke-linejoin="round"/>
</g>
<path d="M27.1045 123.534H25.6177L19.4785 93.4087H20.9654L27.1045 123.534Z" stroke="#190000" stroke-width="0.5" stroke-linecap="round" stroke-linejoin="round"/>
<path d="M22.5511 130.029H19.9146V215.656H22.5511V130.029Z" fill="white" stroke="#190000" stroke-width="0.5" stroke-linecap="round" stroke-linejoin="round"/>
<path d="M61.2115 130.029H58.575V215.656H61.2115V130.029Z" fill="white" stroke="#190000" stroke-width="0.5" stroke-linecap="round" stroke-linejoin="round"/>
<path d="M63.2983 127.552H18.3566V130.907H63.2983V127.552Z" fill="white" stroke="#190000" stroke-width="0.5" stroke-linecap="round" stroke-linejoin="round"/>
<path d="M69.2462 122.913H11.905C11.4853 122.913 11.1451 123.253 11.1451 123.673V127.193C11.1451 127.613 11.4853 127.953 11.905 127.953H69.2462C69.6659 127.953 70.0061 127.613 70.0061 127.193V123.673C70.0061 123.253 69.6659 122.913 69.2462 122.913Z" fill="#F08059"/>
<mask id="mask33_17_6" style="mask-type:luminance" maskUnits="userSpaceOnUse" x="11" y="122" width="60" height="6">
<path d="M69.2462 122.913H11.905C11.4853 122.913 11.1451 123.253 11.1451 123.673V127.193C11.1451 127.613 11.4853 127.953 11.905 127.953H69.2462C69.6659 127.953 70.0061 127.613 70.0061 127.193V123.673C70.0061 123.253 69.6659 122.913 69.2462 122.913Z" fill="white"/>
</mask>
<g mask="url(#mask33_17_6)">
<path d="M7.38818 126.454C38.6002 129.594 70.6194 127.683 69.2462 122.913C67.8731 118.143 72.7043 127.552 72.7043 127.552C72.7043 127.552 70.1817 130.979 69.2582 131.718C68.3348 132.457 37.4921 134.765 37.4921 134.765L21.2328 133.75" fill="#D35D3D"/>
</g>
<path d="M69.2462 122.913H11.905C11.4853 122.913 11.1451 123.253 11.1451 123.673V127.193C11.1451 127.613 11.4853 127.953 11.905 127.953H69.2462C69.6659 127.953 70.0061 127.613 70.0061 127.193V123.673C70.0061 123.253 69.6659 122.913 69.2462 122.913Z" stroke="#190000" stroke-width="0.5" stroke-linecap="round" stroke-linejoin="round"/>
<path d="M79.8115 75.2559C79.9309 75.3719 80.0017 75.5289 80.0095 75.6952C80.0174 75.8614 79.9617 76.0244 79.8538 76.1512" stroke="#373947" stroke-width="11" stroke-linecap="round" stroke-linejoin="round"/>
<path d="M69.1676 77.037C68.9954 77.0229 68.8359 76.9409 68.7241 76.8092C68.6123 76.6774 68.5575 76.5067 68.5716 76.3345L68.6616 75.2379C68.6757 75.0657 68.7577 74.9061 68.8895 74.7944C69.0212 74.6826 69.192 74.6277 69.3642 74.6419C69.4495 74.6489 69.5325 74.6726 69.6086 74.7117C69.6847 74.7508 69.7524 74.8045 69.8077 74.8697C69.863 74.935 69.905 75.0105 69.9312 75.0919C69.9573 75.1734 69.9672 75.2592 69.9602 75.3444L69.8702 76.441C69.8632 76.5263 69.8395 76.6094 69.8004 76.6855C69.7613 76.7616 69.7076 76.8292 69.6423 76.8846C69.5771 76.9399 69.5016 76.9818 69.4201 77.008C69.3387 77.0342 69.2529 77.044 69.1676 77.037Z" fill="#190000"/>
<path d="M68.9647 72.4225C70.9331 72.4965 71.3029 73.3454 70.0694 73.3794C68.8359 73.4134 67.6787 72.3742 68.9647 72.4225Z" fill="#190000"/>
<path d="M67.5401 75.3828C65.2506 77.0765 66.3041 79.5365 67.9235 78.8267L67.5401 75.3828Z" fill="#FACCC4"/>
<path d="M67.5401 75.3828C65.2506 77.0765 66.3041 79.5365 67.9235 78.8267" stroke="#190000" stroke-width="0.5" stroke-linecap="round" stroke-linejoin="round"/>
<path opacity="0.27" d="M73.7004 79.6191C74.9088 79.6191 75.8883 78.9467 75.8883 78.1172C75.8883 77.2877 74.9088 76.6152 73.7004 76.6152C72.492 76.6152 71.5125 77.2877 71.5125 78.1172C71.5125 78.9467 72.492 79.6191 73.7004 79.6191Z" fill="#ED707B"/>
<path d="M70.8126 78.1631C70.3722 79.4218 69.266 79.3314 69.266 79.3314" stroke="#993443" stroke-linecap="round" stroke-linejoin="round"/>
<path d="M75.938 68.2192C75.813 68.4694 75.6334 68.6883 75.4124 68.8598C75.1915 69.0313 74.9349 69.151 74.6615 69.2101" stroke="#75AA3D" stroke-linecap="round" stroke-linejoin="round"/>
<path d="M94.926 78.1387L94.7843 78.2804" stroke="#75AA3D" stroke-linecap="round" stroke-linejoin="round"/>
<path d="M76.5035 150.691C76.0584 150.753 75.6058 150.654 75.2275 150.412" stroke="#2976DF" stroke-width="11" stroke-linecap="round" stroke-linejoin="round"/>
<path d="M112.249 129.154C112.234 130.558 111.824 131.93 111.065 133.112" stroke="#2976DF" stroke-width="11" stroke-linecap="round" stroke-linejoin="round"/>
<path d="M97.7413 106.473C97.1094 108.097 96.2697 109.632 95.2432 111.04" stroke="#D89D35" stroke-width="11" stroke-linecap="round" stroke-linejoin="round"/>
<path d="M20.6542 124.641L21.7882 125.49" stroke="#D35D3D" stroke-width="11" stroke-linecap="round" stroke-linejoin="round"/>
<path d="M35.3518 15.8794C54.5324 15.8794 70.0816 27.8563 70.0816 42.6305C70.0816 54.4798 60.0695 64.5134 46.2142 68.0282L51.5182 88.3019L37.0445 69.3159C36.4799 69.337 35.9232 69.3817 35.3518 69.3817C16.1713 69.3817 0.622681 57.4048 0.622681 42.6306C0.622681 27.8563 16.1713 15.8794 35.3518 15.8794Z" fill="#FBD164"/>
<mask id="mask34_17_6" style="mask-type:luminance" maskUnits="userSpaceOnUse" x="0" y="15" width="71" height="74">
<path d="M35.3518 15.8794C54.5324 15.8794 70.0816 27.8563 70.0816 42.6305C70.0816 54.4798 60.0695 64.5134 46.2142 68.0282L51.5182 88.3019L37.0445 69.3159C36.4799 69.337 35.9232 69.3817 35.3518 69.3817C16.1713 69.3817 0.622681 57.4048 0.622681 42.6306C0.622681 27.8563 16.1713 15.8794 35.3518 15.8794Z" fill="white"/>
</mask>
<g mask="url(#mask34_17_6)">
<path d="M19.4855 12.8606C-12.1874 57.6249 24.1309 77.7325 24.1309 77.7325L-40.9042 56.358L-8.38665 5.09326" fill="#F9B964"/>
</g>
<path d="M35.3518 15.8794C54.5324 15.8794 70.0816 27.8563 70.0816 42.6305C70.0816 54.4798 60.0695 64.5134 46.2142 68.0282L51.5182 88.3019L37.0445 69.3159C36.4799 69.337 35.9232 69.3817 35.3518 69.3817C16.1713 69.3817 0.622681 57.4048 0.622681 42.6306C0.622681 27.8563 16.1713 15.8794 35.3518 15.8794Z" stroke="#190000" stroke-width="0.5" stroke-linecap="round" stroke-linejoin="round"/>
<path d="M52.9189 29.3818C51.1159 31.9047 48.9858 34.1769 46.5844 36.1387" stroke="#D89D35" stroke-width="11" stroke-linecap="round" stroke-linejoin="round"/>
</g>
</g>
</g>
</g>
<rect x="-22.5" y="-120.5" width="281" height="281" rx="11.5" stroke="#D3DCE4"/>
</g>
<defs>
<clipPath id="clip0_17_6">
<rect width="1440" height="6157" fill="white" transform="translate(-1061 -3377)"/>
</clipPath>
<clipPath id="clip1_17_6">
<rect x="-23" y="-121" width="282" height="282" rx="12" fill="white"/>
</clipPath>
<clipPath id="clip2_17_6">
<rect width="312" height="234" fill="white" transform="translate(-38 -35)"/>
</clipPath>
</defs>
</svg>
