<svg width="282" height="196" viewBox="0 0 282 196" fill="none" xmlns="http://www.w3.org/2000/svg">
<g clip-path="url(#clip0_193_980)">
<path d="M234.22 81.3693C234.22 79.6485 232.795 78.2534 231.038 78.2534H163.775C162.017 78.2534 160.593 79.6485 160.593 81.3693V85.1914H234.22V81.3693Z" fill="#B06759" stroke="#190000" stroke-width="0.5" stroke-linecap="round" stroke-linejoin="round"/>
<path d="M160.593 85.1914V123.339C160.593 125.06 162.017 126.455 163.775 126.455H231.038C232.795 126.455 234.22 125.06 234.22 123.339V85.1914H160.593Z" fill="#FBD164"/>
<mask id="mask0_193_980" style="mask-type:luminance" maskUnits="userSpaceOnUse" x="160" y="85" width="75" height="42">
<path d="M160.593 85.1914V123.339C160.593 125.06 162.017 126.455 163.775 126.455H231.038C232.795 126.455 234.22 125.06 234.22 123.339V85.1914H160.593Z" fill="white"/>
</mask>
<g mask="url(#mask0_193_980)">
<path d="M231.435 73.6177C231.356 88.4841 236.514 120.37 228.632 122.597C202.312 130.035 156.727 126.455 156.727 126.455L203.23 142.578L245.003 137.175L244.74 75.6835" fill="#F9B964"/>
</g>
<path d="M160.593 85.1914V123.339C160.593 125.06 162.017 126.455 163.775 126.455H231.038C232.795 126.455 234.22 125.06 234.22 123.339V85.1914H160.593Z" stroke="#190000" stroke-width="0.5" stroke-linecap="round" stroke-linejoin="round"/>
<path d="M164.593 82.5026C165.08 82.5026 165.474 82.1162 165.474 81.6395C165.474 81.1628 165.08 80.7764 164.593 80.7764C164.106 80.7764 163.711 81.1628 163.711 81.6395C163.711 82.1162 164.106 82.5026 164.593 82.5026Z" fill="white" stroke="#190000" stroke-width="0.5" stroke-linecap="round" stroke-linejoin="round"/>
<path d="M168.296 82.5026C168.783 82.5026 169.178 82.1162 169.178 81.6395C169.178 81.1628 168.783 80.7764 168.296 80.7764C167.81 80.7764 167.415 81.1628 167.415 81.6395C167.415 82.1162 167.81 82.5026 168.296 82.5026Z" fill="white" stroke="#190000" stroke-width="0.5" stroke-linecap="round" stroke-linejoin="round"/>
<path d="M172 82.5026C172.486 82.5026 172.881 82.1162 172.881 81.6395C172.881 81.1628 172.486 80.7764 172 80.7764C171.513 80.7764 171.118 81.1628 171.118 81.6395C171.118 82.1162 171.513 82.5026 172 82.5026Z" fill="white" stroke="#190000" stroke-width="0.5" stroke-linecap="round" stroke-linejoin="round"/>
<path d="M172 104.034C173.476 104.034 174.672 102.863 174.672 101.417C174.672 99.972 173.476 98.8003 172 98.8003C170.524 98.8003 169.327 99.972 169.327 101.417C169.327 102.863 170.524 104.034 172 104.034Z" fill="white" stroke="#190000" stroke-width="0.5" stroke-linecap="round" stroke-linejoin="round"/>
<path d="M226.204 100.037H177.529C177.248 100.037 177.02 100.264 177.02 100.545V102.289C177.02 102.57 177.248 102.797 177.529 102.797H226.204C226.485 102.797 226.712 102.57 226.712 102.289V100.545C226.712 100.264 226.485 100.037 226.204 100.037Z" fill="white" stroke="#190000" stroke-width="0.5" stroke-linecap="round" stroke-linejoin="round"/>
<path d="M172 112.202C173.476 112.202 174.672 111.03 174.672 109.585C174.672 108.139 173.476 106.968 172 106.968C170.524 106.968 169.327 108.139 169.327 109.585C169.327 111.03 170.524 112.202 172 112.202Z" fill="white" stroke="#190000" stroke-width="0.5" stroke-linecap="round" stroke-linejoin="round"/>
<path d="M226.204 108.205H177.529C177.248 108.205 177.02 108.432 177.02 108.713V110.457C177.02 110.738 177.248 110.965 177.529 110.965H226.204C226.485 110.965 226.712 110.738 226.712 110.457V108.713C226.712 108.432 226.485 108.205 226.204 108.205Z" fill="white" stroke="#190000" stroke-width="0.5" stroke-linecap="round" stroke-linejoin="round"/>
<path d="M172 120.369C173.476 120.369 174.672 119.198 174.672 117.752C174.672 116.307 173.476 115.135 172 115.135C170.524 115.135 169.327 116.307 169.327 117.752C169.327 119.198 170.524 120.369 172 120.369Z" fill="white" stroke="#190000" stroke-width="0.5" stroke-linecap="round" stroke-linejoin="round"/>
<path d="M226.204 116.372H177.529C177.248 116.372 177.02 116.6 177.02 116.88V118.625C177.02 118.905 177.248 119.133 177.529 119.133H226.204C226.485 119.133 226.712 118.905 226.712 118.625V116.88C226.712 116.6 226.485 116.372 226.204 116.372Z" fill="white" stroke="#190000" stroke-width="0.5" stroke-linecap="round" stroke-linejoin="round"/>
<path d="M195.55 90.583L193.635 92.6509" stroke="#D89D35" stroke-linecap="round" stroke-linejoin="round"/>
<path d="M219.032 122.336L218.16 122.858" stroke="#D89D35" stroke-linecap="round" stroke-linejoin="round"/>
<path d="M62.3118 68.6209L60.7981 59.7554L86.5011 39.5791L62.3118 68.6209Z" fill="#914D44" stroke="#190000" stroke-width="0.5" stroke-linecap="round" stroke-linejoin="round"/>
<path d="M67.5289 59.8861L64.2045 60.8006L62.3118 68.621L75.3528 54.1001L67.5289 59.8861Z" fill="#F9B964" stroke="#190000" stroke-width="0.5" stroke-linecap="round" stroke-linejoin="round"/>
<path d="M82.5992 65.3284L64.2046 60.8006L86.5012 39.5791L82.5992 65.3284Z" fill="#FBD164"/>
<mask id="mask1_193_980" style="mask-type:luminance" maskUnits="userSpaceOnUse" x="64" y="39" width="23" height="27">
<path d="M82.5992 65.3284L64.2046 60.8006L86.5012 39.5791L82.5992 65.3284Z" fill="white"/>
</mask>
<g mask="url(#mask1_193_980)">
<path d="M84.6584 51.7401C82.5992 65.3285 83.3334 63.8719 75.353 63.0128C67.3725 62.1538 73.6497 67.8808 73.6497 67.8808L85.9612 70.1716L85.5798 51.6543" fill="#F9B964"/>
</g>
<path d="M82.5992 65.3284L64.2046 60.8006L86.5012 39.5791L82.5992 65.3284Z" stroke="#190000" stroke-width="0.5" stroke-linecap="round" stroke-linejoin="round"/>
<path d="M109.897 108.273L109.988 108.724C111.8 108.353 113.591 107.886 115.354 107.327L115.216 106.888C113.468 107.442 111.693 107.904 109.897 108.273Z" fill="#190000"/>
<path d="M98.9799 109.076L98.9493 109.536C99.7678 109.591 100.606 109.619 101.442 109.619C102.441 109.619 103.469 109.578 104.497 109.5L104.461 109.041C102.637 109.182 100.806 109.194 98.9799 109.076Z" fill="#190000"/>
<path d="M120.38 104.99L120.558 105.415C122.223 104.718 123.913 103.93 125.581 103.072L125.371 102.663C123.714 103.515 122.036 104.297 120.38 104.99Z" fill="#190000"/>
<path d="M38.9026 103.507L39.1775 103.876C40.6552 102.762 42.065 101.561 43.3993 100.279L43.0813 99.9463C41.7609 101.216 40.3655 102.405 38.9026 103.507Z" fill="#FBD164" stroke="#190000" stroke-width="0.5" stroke-linecap="round" stroke-linejoin="round"/>
<path d="M38.8568 87.1084L38.9413 87.5609C40.7418 87.2278 42.5619 87.0108 44.3904 86.9114L44.3652 86.4517C42.5169 86.552 40.6769 86.7713 38.8568 87.1084Z" fill="#FBD164" stroke="#190000" stroke-width="0.5" stroke-linecap="round" stroke-linejoin="round"/>
<path d="M29.1338 108.179L29.2093 108.634C30.8615 108.36 32.6323 107.752 34.4733 106.828L34.2666 106.416C32.467 107.32 30.7402 107.913 29.1338 108.179Z" fill="#FBD164" stroke="#190000" stroke-width="0.5" stroke-linecap="round" stroke-linejoin="round"/>
<path d="M56.4079 82.4888C55.5121 84.0145 54.5858 85.5087 53.6514 86.9346C52.4134 86.7363 51.161 86.591 49.9094 86.5001L49.8771 86.9598C51.7033 87.0918 53.5191 87.3404 55.3136 87.7042L55.4052 87.2526C54.9883 87.168 54.569 87.0895 54.1474 87.0169C55.0485 85.6365 55.9407 84.194 56.805 82.7222L56.4079 82.4888Z" fill="#FBD164" stroke="#190000" stroke-width="0.5" stroke-linecap="round" stroke-linejoin="round"/>
<path d="M46.8727 95.9611L47.2195 96.2643C48.3875 94.923 49.5581 93.4728 50.6983 91.9538L50.3299 91.6768C49.1969 93.1872 48.0335 94.6284 46.8727 95.9611Z" fill="#FBD164" stroke="#190000" stroke-width="0.5" stroke-linecap="round" stroke-linejoin="round"/>
<path d="M20.5231 103.651L20.0864 103.798C20.7441 105.754 21.9839 107.22 23.6712 108.035L23.8707 107.62C22.2975 106.86 21.1403 105.487 20.5231 103.651Z" fill="#FBD164" stroke="#190000" stroke-width="0.5" stroke-linecap="round" stroke-linejoin="round"/>
<path d="M20.3965 98.2533L20.817 98.4386C21.4665 96.9628 22.5681 95.5253 24.09 94.1664L23.7845 93.8228C22.2123 95.2257 21.0721 96.7163 20.3965 98.2533Z" fill="#FBD164" stroke="#190000" stroke-width="0.5" stroke-linecap="round" stroke-linejoin="round"/>
<path d="M33.484 88.4932C31.7234 89.0771 30.0146 89.8071 28.3755 90.6756L28.5929 91.0822C30.2089 90.2256 31.8937 89.5055 33.6296 88.9295L33.484 88.4932Z" fill="#FBD164" stroke="#190000" stroke-width="0.5" stroke-linecap="round" stroke-linejoin="round"/>
<path d="M88.1707 107.029C89.8817 107.742 91.6494 108.311 93.4553 108.729L93.5595 108.28C91.7786 107.868 90.0355 107.307 88.3486 106.604L88.1707 107.029Z" fill="#FBD164" stroke="#190000" stroke-width="0.5" stroke-linecap="round" stroke-linejoin="round"/>
<path d="M61.5659 72.7427C60.7609 74.4263 59.9281 76.0843 59.0907 77.6712L59.4968 77.8862C60.3377 76.2943 61.1733 74.6305 61.981 72.9415L61.5659 72.7427Z" fill="#FBD164" stroke="#190000" stroke-width="0.5" stroke-linecap="round" stroke-linejoin="round"/>
<path d="M78.7773 101.177C80.1822 102.385 81.6751 103.486 83.2435 104.472L83.4879 104.082C81.9386 103.108 80.4638 102.02 79.0756 100.827L78.7773 101.177Z" fill="#FBD164" stroke="#190000" stroke-width="0.5" stroke-linecap="round" stroke-linejoin="round"/>
<path d="M60.6082 89.1444C62.3388 89.7402 64.028 90.4502 65.6646 91.2697L65.8712 90.8577C64.216 90.0291 62.5076 89.3112 60.7573 88.709L60.6082 89.1444Z" fill="#FBD164" stroke="#190000" stroke-width="0.5" stroke-linecap="round" stroke-linejoin="round"/>
<path d="M70.3967 94.0465C71.9112 95.0761 73.3583 96.2016 74.729 97.416L75.0345 97.0705C73.6485 95.8437 72.1859 94.7063 70.6555 93.665L70.3967 94.0465Z" fill="#FBD164" stroke="#190000" stroke-width="0.5" stroke-linecap="round" stroke-linejoin="round"/>
<path d="M60.7981 59.7554L51.0352 57.0602L86.5011 39.5791L60.7981 59.7554Z" fill="#FBD164" stroke="#190000" stroke-width="0.5" stroke-linecap="round" stroke-linejoin="round"/>
<path d="M80.5162 55.0215C79.866 55.6832 79.0775 56.193 78.2073 56.5145" stroke="#D89D35" stroke-linecap="round" stroke-linejoin="round"/>
<path d="M171.476 153.301C160.8 127.185 152.665 113.393 131.312 107.627C126.918 106.441 121.965 105.594 116.315 105.049C110.671 104.506 105.447 104.713 100.613 105.548C48.6671 114.513 41.6853 192.722 41.6853 192.722L216.874 190.377C216.874 190.377 182.653 180.641 171.476 153.301Z" fill="#516DDB"/>
<mask id="mask2_193_980" style="mask-type:luminance" maskUnits="userSpaceOnUse" x="41" y="104" width="176" height="89">
<path d="M171.476 153.301C160.8 127.185 152.665 113.393 131.312 107.627C126.918 106.441 121.965 105.594 116.315 105.049C110.671 104.506 105.447 104.713 100.613 105.548C48.6671 114.513 41.6853 192.722 41.6853 192.722L216.874 190.377C216.874 190.377 182.653 180.641 171.476 153.301Z" fill="white"/>
</mask>
<g mask="url(#mask2_193_980)">
<path d="M132.464 105.79C143.601 114.969 130.71 120.149 119.546 120.149C108.382 120.149 99.3326 115.406 99.3326 109.555C99.3326 103.704 108.382 98.9604 119.546 98.9604C130.71 98.9604 127.885 102.016 132.464 105.79Z" fill="white" stroke="#190000" stroke-width="0.5" stroke-linecap="round" stroke-linejoin="round"/>
<path d="M79.6991 145.771C79.6991 145.771 84.0193 172.669 93.6815 167.289C105.636 160.632 133.932 198.634 105.319 191.972C99.9797 190.729 73.0515 191.972 73.0515 191.972L57.9092 171.788L79.6991 145.771Z" fill="#516DDB" stroke="#190000" stroke-width="0.5" stroke-linecap="round" stroke-linejoin="round"/>
<path d="M83.0585 139.69C82.0825 172.702 114.642 142.748 114.642 142.748L121.927 154.01C121.927 154.01 133.086 192.907 102.262 204.68C71.4369 216.453 55.827 176.679 55.827 176.679L66.6701 145.302" fill="#3152BA"/>
<path d="M94.879 185.048C117.306 142.029 155.098 169.201 154.144 197.809C154.144 197.809 165.125 189.562 169.794 190.637C169.794 190.637 169.795 194.114 168.204 197.131C168.204 197.131 172.307 198.339 173.691 200.815C173.691 200.815 179.641 199.733 180.993 200.38C180.993 200.38 180.763 203.02 178.38 205.937C178.38 205.937 177.842 221.845 163.696 221.122L96.1379 188.792C95.8056 188.633 95.5085 188.409 95.2643 188.133C95.0201 187.858 94.8338 187.536 94.7164 187.186C94.599 186.837 94.5529 186.468 94.5808 186.101C94.6087 185.734 94.7102 185.376 94.879 185.048Z" fill="#FBA318"/>
<mask id="mask3_193_980" style="mask-type:luminance" maskUnits="userSpaceOnUse" x="94" y="162" width="87" height="60">
<path d="M94.879 185.048C117.306 142.029 155.098 169.201 154.144 197.809C154.144 197.809 165.125 189.562 169.794 190.637C169.794 190.637 169.795 194.114 168.204 197.131C168.204 197.131 172.307 198.339 173.691 200.815C173.691 200.815 179.641 199.733 180.993 200.38C180.993 200.38 180.763 203.02 178.38 205.937C178.38 205.937 177.842 221.845 163.696 221.122L96.1379 188.792C95.8056 188.633 95.5085 188.409 95.2643 188.133C95.0201 187.858 94.8338 187.536 94.7164 187.186C94.599 186.837 94.5529 186.468 94.5808 186.101C94.6087 185.734 94.7102 185.376 94.879 185.048Z" fill="white"/>
</mask>
<g mask="url(#mask3_193_980)">
<path d="M132.612 169.343C138.172 175.846 136.155 186.108 118.189 194.709C144.35 195.137 133.891 209.881 133.891 209.881L105.817 196.447L94.9948 191.268" fill="#FBA318"/>
<mask id="mask4_193_980" style="mask-type:luminance" maskUnits="userSpaceOnUse" x="94" y="169" width="42" height="41">
<path d="M132.612 169.343C138.172 175.846 136.155 186.108 118.189 194.709C144.35 195.137 133.891 209.881 133.891 209.881L105.817 196.447L94.9948 191.268" fill="white"/>
</mask>
<g mask="url(#mask4_193_980)">
<path d="M94.0835 174.322C88.2906 168.425 78.1082 172.177 82.1445 181.568C86.1809 190.96 91.6695 185.511 94.9594 193.806" fill="#FBA318"/>
<path d="M94.0835 174.322C88.2906 168.425 78.1082 172.177 82.1445 181.568C86.1809 190.96 91.6695 185.511 94.9594 193.806" stroke="#190000" stroke-width="0.5" stroke-linecap="round" stroke-linejoin="round"/>
</g>
<path d="M132.612 169.343C138.172 175.846 136.155 186.108 118.189 194.709C144.35 195.137 133.891 209.881 133.891 209.881L105.817 196.447L94.9948 191.268" stroke="#190000" stroke-width="0.5" stroke-linecap="round" stroke-linejoin="round"/>
</g>
<path d="M94.879 185.048C117.306 142.029 155.098 169.201 154.144 197.809C154.144 197.809 165.125 189.562 169.794 190.637C169.794 190.637 169.795 194.114 168.204 197.131C168.204 197.131 172.307 198.339 173.691 200.815C173.691 200.815 179.641 199.733 180.993 200.38C180.993 200.38 180.763 203.02 178.38 205.937C178.38 205.937 177.842 221.845 163.696 221.122L96.1379 188.792C95.8056 188.633 95.5085 188.409 95.2643 188.133C95.0201 187.858 94.8338 187.536 94.7164 187.186C94.599 186.837 94.5529 186.468 94.5808 186.101C94.6087 185.734 94.7102 185.376 94.879 185.048Z" stroke="#190000" stroke-width="0.5" stroke-linecap="round" stroke-linejoin="round"/>
<path d="M94.702 187.136C86.4794 156.105 123.587 167.1 104.886 142.846C86.161 118.561 123.031 114.634 122.957 146.955C122.902 171.058 90.0424 162.491 97.4515 184.828" fill="#FBA318"/>
<mask id="mask5_193_980" style="mask-type:luminance" maskUnits="userSpaceOnUse" x="93" y="123" width="30" height="65">
<path d="M94.702 187.136C86.4794 156.105 123.587 167.1 104.886 142.846C86.161 118.561 123.031 114.634 122.957 146.955C122.902 171.058 90.0424 162.491 97.4515 184.828" fill="white"/>
</mask>
<g mask="url(#mask5_193_980)">
<path d="M126.378 166.444C131.829 166.444 136.248 162.019 136.248 156.561C136.248 151.104 131.829 146.679 126.378 146.679C120.927 146.679 116.509 151.104 116.509 156.561C116.509 162.019 120.927 166.444 126.378 166.444Z" fill="#D8852B"/>
<path d="M98.0084 146.987C103.459 146.987 107.878 142.562 107.878 137.104C107.878 131.647 103.459 127.222 98.0084 127.222C92.5576 127.222 88.1389 131.647 88.1389 137.104C88.1389 142.562 92.5576 146.987 98.0084 146.987Z" fill="#D8852B"/>
</g>
<path d="M94.702 187.136C86.4794 156.105 123.587 167.1 104.886 142.846C86.161 118.561 123.031 114.634 122.957 146.955C122.902 171.058 90.0424 162.491 97.4515 184.828" stroke="#190000" stroke-width="0.5" stroke-linecap="round" stroke-linejoin="round"/>
<path d="M75.274 109.727C90.6864 103.999 85.7608 133.432 85.7608 133.432L75.274 109.727Z" fill="#516DDB"/>
<path d="M75.274 109.727C90.6864 103.999 85.7608 133.432 85.7608 133.432" stroke="#190000" stroke-width="0.5" stroke-linecap="round" stroke-linejoin="round"/>
<path d="M142.938 106.704C150.588 113.227 144.826 130.409 144.826 130.409L142.938 106.704Z" fill="#516DDB"/>
<path d="M142.938 106.704C150.588 113.227 144.826 130.409 144.826 130.409" stroke="#190000" stroke-width="0.5" stroke-linecap="round" stroke-linejoin="round"/>
</g>
<path d="M171.476 153.301C160.8 127.185 152.665 113.393 131.312 107.627C126.918 106.441 121.965 105.594 116.315 105.049C110.671 104.506 105.447 104.713 100.613 105.548C48.6671 114.513 41.6853 192.722 41.6853 192.722L216.874 190.377C216.874 190.377 182.653 180.641 171.476 153.301Z" stroke="#190000" stroke-width="0.5" stroke-linecap="round" stroke-linejoin="round"/>
<path d="M127.536 88.5959C124.257 94.2979 123.349 103.625 130.1 109.464C136.851 115.302 103.344 120.683 105.139 106.452C105.511 103.502 112.683 105.802 108.825 84.3388C104.967 62.8753 127.536 88.5959 127.536 88.5959Z" fill="#FACCC4"/>
<mask id="mask6_193_980" style="mask-type:luminance" maskUnits="userSpaceOnUse" x="105" y="75" width="26" height="41">
<path d="M127.536 88.5959C124.257 94.2979 123.349 103.625 130.1 109.464C136.851 115.302 103.344 120.683 105.139 106.452C105.511 103.502 112.683 105.802 108.825 84.3388C104.967 62.8753 127.536 88.5959 127.536 88.5959Z" fill="white"/>
</mask>
<g mask="url(#mask6_193_980)">
<path d="M127.656 103.948C134.024 103.948 139.185 99.0873 139.185 93.0912C139.185 87.0952 134.024 82.2344 127.656 82.2344C121.289 82.2344 116.127 87.0952 116.127 93.0912C116.127 99.0873 121.289 103.948 127.656 103.948Z" fill="#ED707B"/>
</g>
<path d="M127.536 88.5959C124.257 94.2979 123.349 103.625 130.1 109.464C136.851 115.302 103.344 120.683 105.139 106.452C105.511 103.502 112.683 105.802 108.825 84.3388C104.967 62.8753 127.536 88.5959 127.536 88.5959Z" stroke="#190000" stroke-width="0.5" stroke-linecap="round" stroke-linejoin="round"/>
<path d="M116.109 93.8052C124.542 104.492 139.123 106.3 140.095 69.4764L127.29 64.4409L112.691 68.2022L110.873 84.0536" fill="#FACCC4"/>
<mask id="mask7_193_980" style="mask-type:luminance" maskUnits="userSpaceOnUse" x="110" y="64" width="31" height="37">
<path d="M116.109 93.8052C124.542 104.492 139.123 106.3 140.095 69.4764L127.29 64.4409L112.691 68.2022L110.873 84.0536" fill="white"/>
</mask>
<g mask="url(#mask7_193_980)">
<path opacity="0.27" d="M142.331 85.9564C142.343 84.3848 140.681 83.0986 138.62 83.0836C136.558 83.0687 134.878 84.3307 134.867 85.9023C134.855 87.474 136.517 88.7602 138.578 88.7751C140.64 88.7901 142.32 87.5281 142.331 85.9564Z" fill="#ED707B"/>
<path opacity="0.27" d="M124.706 85.829C124.717 84.2573 123.055 82.9711 120.994 82.9562C118.933 82.9412 117.252 84.2032 117.241 85.7749C117.23 87.3465 118.891 88.6327 120.953 88.6477C123.014 88.6626 124.694 87.4007 124.706 85.829Z" fill="#ED707B"/>
<path d="M133.289 80.921C133.337 81.6524 133.968 82.2069 134.699 82.1595C135.431 82.1121 135.985 81.4809 135.938 80.7495L135.793 78.5068C135.745 77.7755 135.114 77.221 134.383 77.2684C133.651 77.3157 133.097 77.947 133.144 78.6783L133.289 80.921Z" fill="#190000"/>
<path d="M123.401 80.8131C123.449 81.5444 124.08 82.0989 124.811 82.0516C125.543 82.0042 126.097 81.373 126.05 80.6416L125.905 78.3989C125.857 77.6676 125.226 77.1131 124.495 77.1604C123.763 77.2078 123.209 77.839 123.256 78.5704L123.401 80.8131Z" fill="#190000"/>
<path d="M134.511 74.122C137.265 74.7362 136.616 76.2593 134.87 75.9877C133.123 75.7162 132.713 73.7207 134.511 74.122Z" fill="#190000"/>
<path d="M124.366 73.9262C121.715 74.8905 122.342 76.2172 124.039 75.7227C125.736 75.2282 126.099 73.2962 124.366 73.9262Z" fill="#190000"/>
<path d="M128.867 82.3466C128.824 83.244 129.608 82.9256 130.555 82.9717C131.501 83.0179 132.251 83.411 132.295 82.5136C132.338 81.6163 131.606 80.8515 130.66 80.8054C129.713 80.7593 128.911 81.4493 128.867 82.3466Z" fill="#ED707B"/>
<path d="M134.059 87.3619C132.677 93.8013 126.656 90.9301 126.655 86.9052C126.657 86.8035 126.69 86.7048 126.749 86.6225C126.809 86.5401 126.892 86.478 126.988 86.4447C127.818 86.1465 130.221 85.5365 133.733 86.7829C133.848 86.824 133.944 86.9052 134.004 87.0115C134.064 87.1178 134.083 87.2422 134.059 87.3619Z" fill="#C1525F"/>
<mask id="mask8_193_980" style="mask-type:luminance" maskUnits="userSpaceOnUse" x="126" y="86" width="9" height="6">
<path d="M134.059 87.3619C132.677 93.8013 126.656 90.9301 126.655 86.9052C126.657 86.8035 126.69 86.7048 126.749 86.6225C126.809 86.5401 126.892 86.478 126.988 86.4447C127.818 86.1465 130.221 85.5365 133.733 86.7829C133.848 86.824 133.944 86.9052 134.004 87.0115C134.064 87.1178 134.083 87.2422 134.059 87.3619Z" fill="white"/>
</mask>
<g mask="url(#mask8_193_980)">
<path d="M132.418 91.984C132.999 90.4642 132.092 88.7043 130.391 88.0531C128.69 87.402 126.839 88.1062 126.257 89.626C125.675 91.1459 126.583 92.9058 128.284 93.5569C129.985 94.2081 131.836 93.5039 132.418 91.984Z" fill="#993443"/>
<path d="M132.953 86.2877C132.931 86.7155 132.86 87.2947 132.744 87.3949C132.025 88.0123 128.709 87.5586 128.272 87.1639C128.15 87.054 128.201 85.6738 128.201 85.6738L132.458 86.0303" fill="white"/>
</g>
</g>
<path d="M116.109 93.8052C124.542 104.492 139.123 106.3 140.095 69.4764L127.29 64.4409L112.691 68.2022L110.873 84.0536" stroke="#190000" stroke-width="0.5" stroke-linecap="round" stroke-linejoin="round"/>
<path d="M202.42 193.371C202.42 193.371 150.591 199.572 150.147 179.821C149.729 161.241 146.063 155.079 146.063 155.079C146.063 155.079 145.545 187.894 142.938 192.617L202.42 193.371Z" fill="#3152BA"/>
<path d="M142.938 192.617C147.262 180.908 146.063 155.079 146.063 155.079" stroke="#11314B" stroke-width="11" stroke-linecap="round" stroke-linejoin="round"/>
<path d="M164.245 191.792H118.495V186.521C118.495 186.436 118.529 186.354 118.589 186.294C118.65 186.234 118.731 186.2 118.816 186.2H164.245V191.792Z" fill="#6F4EB9" stroke="#190000" stroke-width="0.5" stroke-linecap="round" stroke-linejoin="round"/>
<path d="M21.1358 194.138L261.565 194.138C261.637 194.138 261.695 194.08 261.695 194.008V190.791C261.695 190.72 261.637 190.662 261.565 190.662L21.1358 190.662C21.0644 190.662 21.0065 190.72 21.0065 190.791V194.008C21.0065 194.08 21.0644 194.138 21.1358 194.138Z" fill="#409159" stroke="#190000" stroke-width="0.5" stroke-linecap="round" stroke-linejoin="round"/>
<path d="M150.62 190.544H236.695L245.966 144.356C246.922 139.591 243.283 135.142 238.429 135.142H168.036C166.26 135.142 164.538 135.759 163.164 136.885C161.79 138.012 160.848 139.58 160.5 141.322L150.62 190.544Z" fill="#9879C9"/>
<mask id="mask9_193_980" style="mask-type:luminance" maskUnits="userSpaceOnUse" x="150" y="135" width="97" height="56">
<path d="M150.62 190.544H236.695L245.966 144.356C246.922 139.591 243.283 135.142 238.429 135.142H168.036C166.26 135.142 164.538 135.759 163.164 136.885C161.79 138.012 160.848 139.58 160.5 141.322L150.62 190.544Z" fill="white"/>
</mask>
<g mask="url(#mask9_193_980)">
<path d="M241.791 131.629C241.367 213.037 150.62 190.544 150.62 190.544L208.742 221.147L275.688 167.289L254.502 121.022" fill="#6F4EB9"/>
</g>
<path d="M150.62 238.403H236.695L245.966 192.214C246.922 187.449 243.283 183 238.429 183H168.036C166.26 183.001 164.538 183.617 163.164 184.744C161.79 185.871 160.848 187.438 160.5 189.181L150.62 238.403Z" stroke="#190000" stroke-width="0.5" stroke-linecap="round" stroke-linejoin="round"/>
<path d="M206.562 168.704C210.166 165.833 211.381 161.363 209.275 158.72C207.17 156.078 202.542 156.264 198.938 159.135C195.334 162.007 194.119 166.477 196.224 169.119C198.33 171.762 202.958 171.576 206.562 168.704Z" fill="white" stroke="#190000" stroke-width="0.5" stroke-linecap="round" stroke-linejoin="round"/>
<path d="M107.871 80.2683C110.525 84.5532 111.184 63.719 129.542 69.1229C147.446 74.3932 153.649 55.4835 142.746 50.3595C134.155 46.322 91.2754 53.4804 107.871 80.2683Z" fill="#4B4D5C" stroke="#190000" stroke-width="0.5" stroke-linecap="round" stroke-linejoin="round"/>
<path d="M116.384 78.6099C104.638 72.1273 98.9446 83.0127 114.1 89.9183L116.384 78.6099Z" fill="#FACCC4"/>
<path d="M116.384 78.6099C104.638 72.1273 98.9446 83.0127 114.1 89.9183" stroke="#190000" stroke-width="0.5" stroke-linecap="round" stroke-linejoin="round"/>
<path d="M134.713 126.902C131.177 126.902 128.311 130.618 128.311 135.202C128.311 139.786 131.177 143.501 134.713 143.501C138.249 143.501 141.116 139.786 141.116 135.202C141.116 130.618 138.249 126.902 134.713 126.902ZM134.713 140.681C132.379 140.681 130.487 138.228 130.487 135.202C130.487 132.176 132.379 129.723 134.713 129.723C137.048 129.723 138.94 132.176 138.94 135.202C138.94 138.228 137.048 140.681 134.713 140.681Z" fill="white" stroke="#190000" stroke-width="0.5" stroke-linecap="round" stroke-linejoin="round"/>
<path d="M145.826 151.185H143.827C138.802 151.185 134.713 146.681 134.713 141.144V126.554C134.713 125.102 135.786 123.92 137.104 123.92H152.548C153.866 123.92 154.939 125.102 154.939 126.554V141.144C154.939 146.681 150.85 151.185 145.826 151.185Z" fill="white"/>
<mask id="mask10_193_980" style="mask-type:luminance" maskUnits="userSpaceOnUse" x="134" y="123" width="21" height="29">
<path d="M145.826 151.185H143.827C138.802 151.185 134.713 146.681 134.713 141.144V126.554C134.713 125.102 135.786 123.92 137.104 123.92H152.548C153.866 123.92 154.939 125.102 154.939 126.554V141.144C154.939 146.681 150.85 151.185 145.826 151.185Z" fill="white"/>
</mask>
<g mask="url(#mask10_193_980)">
<path d="M153.024 121.234C155.99 157.455 136.288 148.304 136.288 148.304L144.577 159.205L161.498 143.501L161.075 125.265" fill="#D6DCF2"/>
</g>
<path d="M145.826 151.185H143.827C138.802 151.185 134.713 146.681 134.713 141.144V126.554C134.713 125.102 135.786 123.92 137.104 123.92H152.548C153.866 123.92 154.939 125.102 154.939 126.554V141.144C154.939 146.681 150.85 151.185 145.826 151.185Z" stroke="#190000" stroke-width="0.5" stroke-linecap="round" stroke-linejoin="round"/>
<path d="M114.642 144.076C114.642 144.076 120.776 140.26 122.735 134.815C124.732 129.263 127.74 128.71 129.092 128.42C131.116 127.986 131.43 128.77 133.017 130.805C135.046 133.406 133.589 143.063 129.746 141.937C128.769 141.651 126.904 146.244 126.201 146.982L117.515 154.99L114.642 144.076Z" fill="#FACCC4"/>
<mask id="mask11_193_980" style="mask-type:luminance" maskUnits="userSpaceOnUse" x="114" y="128" width="20" height="27">
<path d="M114.642 144.076C114.642 144.076 120.776 140.26 122.735 134.815C124.732 129.263 127.74 128.71 129.092 128.42C131.116 127.986 131.43 128.77 133.017 130.805C135.046 133.406 133.589 143.063 129.746 141.937C128.769 141.651 126.904 146.244 126.201 146.982L117.515 154.99L114.642 144.076Z" fill="white"/>
</mask>
<g mask="url(#mask11_193_980)">
<path d="M133.58 142.744C133.22 140.778 130.41 142.446 129.008 143.747C127.605 145.047 123.151 137.414 121.318 138.17C119.486 138.926 122.4 142.664 122.4 142.664L126.688 145.302H131.256L134.102 142.744L133.059 143.056" fill="#FACCC4"/>
<path d="M133.58 142.744C133.22 140.778 130.41 142.446 129.008 143.747C127.605 145.047 123.151 137.414 121.318 138.17C119.486 138.926 122.4 142.664 122.4 142.664L126.688 145.302H131.256L134.102 142.744L133.059 143.056" stroke="#190000" stroke-width="0.5" stroke-linecap="round" stroke-linejoin="round"/>
</g>
<path d="M114.642 144.076C114.642 144.076 120.776 140.26 122.735 134.815C124.732 129.263 127.74 128.71 129.092 128.42C131.116 127.986 131.43 128.77 133.017 130.805C135.046 133.406 133.589 143.063 129.746 141.937C128.769 141.651 126.904 146.244 126.201 146.982L117.515 154.99L114.642 144.076Z" stroke="#190000" stroke-width="0.5" stroke-linecap="round" stroke-linejoin="round"/>
<path d="M110.389 145.302C110.389 145.302 119.184 137.654 121.318 138.17C123.452 138.686 128.527 144.137 127.398 145.758C126.268 147.379 121.273 158.464 121.273 158.464L116.702 150.105L110.389 145.302Z" fill="white" stroke="#190000" stroke-width="0.5" stroke-linecap="round" stroke-linejoin="round"/>
<path d="M83.1245 138.841C82.2354 151.119 79.3955 164.209 79.3955 164.209L116.7 139.991C118.442 138.656 129.28 148.735 125.636 156.065C120.812 165.768 105.442 192.722 74.3157 192.722C31.7964 192.722 45.5664 144.281 69.3967 122.369C71.6308 120.315 76.4326 115.913 78.0471 115.241" fill="#516DDB"/>
<mask id="mask12_193_980" style="mask-type:luminance" maskUnits="userSpaceOnUse" x="46" y="115" width="81" height="78">
<path d="M83.1245 138.841C82.2354 151.119 79.3955 164.209 79.3955 164.209L116.7 139.991C118.442 138.656 129.28 148.735 125.636 156.065C120.812 165.768 105.442 192.722 74.3157 192.722C31.7964 192.722 45.5664 144.281 69.3967 122.369C71.6308 120.315 76.4326 115.913 78.0471 115.241" fill="white"/>
</mask>
<g mask="url(#mask12_193_980)">
<path d="M102.921 143.501C120.558 156.183 119.287 168.433 119.287 168.433L102.921 143.501Z" fill="#516DDB"/>
<path d="M102.921 143.501C120.558 156.183 119.287 168.433 119.287 168.433" stroke="#190000" stroke-width="0.5" stroke-linecap="round" stroke-linejoin="round"/>
<path d="M120.452 139.796C119.975 140.379 110.423 149.378 110.423 149.378L120.452 139.796Z" fill="#516DDB"/>
<path d="M120.452 139.796C119.975 140.379 110.423 149.378 110.423 149.378" stroke="#190000" stroke-width="0.5" stroke-linecap="round" stroke-linejoin="round"/>
<path d="M123.418 142.58L113.318 153.253" stroke="#190000" stroke-width="0.5" stroke-linecap="round" stroke-linejoin="round"/>
<path d="M125.748 145.789C125.43 146.054 115.791 156.864 115.791 156.864L125.748 145.789Z" fill="#516DDB"/>
<path d="M125.748 145.789C125.43 146.054 115.791 156.864 115.791 156.864" stroke="#190000" stroke-width="0.5" stroke-linecap="round" stroke-linejoin="round"/>
<path d="M127.337 148.735L118.492 161.274" stroke="#190000" stroke-width="0.5" stroke-linecap="round" stroke-linejoin="round"/>
<path d="M68.5212 200.73C76.726 200.73 83.3774 196.883 83.3774 192.139C83.3774 187.394 76.726 183.547 68.5212 183.547C60.3163 183.547 53.6649 187.394 53.6649 192.139C53.6649 196.883 60.3163 200.73 68.5212 200.73Z" fill="#3152BA"/>
</g>
<path d="M83.1245 138.841C82.2354 151.119 79.3955 164.209 79.3955 164.209L116.7 139.991C118.442 138.656 129.28 148.735 125.636 156.065C120.812 165.768 105.442 192.722 74.3157 192.722C31.7964 192.722 45.5664 144.281 69.3967 122.369C71.6308 120.315 76.4326 115.913 78.0471 115.241" stroke="#190000" stroke-width="0.5" stroke-linecap="round" stroke-linejoin="round"/>
<path d="M45.1745 153.728C46.9024 160.923 46.7891 169.592 43.8794 171.117C40.9697 172.642 35.1839 167.064 31.5753 160.855C26.5867 152.272 26.3378 143.128 31.6315 140.354C36.9253 137.579 42.786 143.782 45.1745 153.728Z" fill="#409159"/>
<mask id="mask13_193_980" style="mask-type:luminance" maskUnits="userSpaceOnUse" x="27" y="139" width="20" height="33">
<path d="M45.1745 153.728C46.9024 160.923 46.7891 169.592 43.8794 171.117C40.9697 172.642 35.1839 167.064 31.5753 160.855C26.5867 152.272 26.3378 143.128 31.6315 140.354C36.9253 137.579 42.786 143.782 45.1745 153.728Z" fill="white"/>
</mask>
<g mask="url(#mask13_193_980)">
<path d="M24.8528 137.553C44.1315 143.084 35.8692 163.632 44.3433 167.502C52.8175 171.372 48.241 135.142 48.241 135.142L38.4746 132.053" fill="#357C49"/>
</g>
<path d="M45.1745 153.728C46.9024 160.923 46.7891 169.592 43.8794 171.117C40.9697 172.642 35.1839 167.064 31.5753 160.855C26.5867 152.272 26.3378 143.128 31.6315 140.354C36.9253 137.579 42.786 143.782 45.1745 153.728Z" stroke="#190000" stroke-width="0.5" stroke-linecap="round" stroke-linejoin="round"/>
<path d="M61.6711 163.094C58.5386 169.635 53.1901 175.761 50.1773 174.527C47.1645 173.293 46.4052 164.666 47.5902 157.328C49.2284 147.184 54.6051 140.429 60.0863 142.674C65.5676 144.918 66.0013 154.053 61.6711 163.094Z" fill="#409159"/>
<mask id="mask14_193_980" style="mask-type:luminance" maskUnits="userSpaceOnUse" x="47" y="142" width="18" height="33">
<path d="M61.6711 163.094C58.5386 169.635 53.1901 175.761 50.1773 174.527C47.1645 173.293 46.4052 164.666 47.5902 157.328C49.2284 147.184 54.6051 140.429 60.0863 142.674C65.5676 144.918 66.0013 154.053 61.6711 163.094Z" fill="white"/>
</mask>
<g mask="url(#mask14_193_980)">
<path d="M58.8619 137.553C65.7268 148.031 52.8175 171.372 52.8175 171.372L44.3434 157.508" fill="#357C49"/>
</g>
<path d="M61.6711 163.094C58.5386 169.635 53.1901 175.761 50.1773 174.527C47.1645 173.293 46.4052 164.666 47.5902 157.328C49.2284 147.184 54.6051 140.429 60.0863 142.674C65.5676 144.918 66.0013 154.053 61.6711 163.094Z" stroke="#190000" stroke-width="0.5" stroke-linecap="round" stroke-linejoin="round"/>
<path d="M57.6182 147.88C56.3963 157.361 52.4212 167.463 48.4277 167.502C44.4342 167.54 40.3131 157.514 38.9537 148.059C37.0745 134.987 40.8467 124.111 48.1123 124.041C55.3779 123.972 59.3074 134.775 57.6182 147.88Z" fill="#409159"/>
<mask id="mask15_193_980" style="mask-type:luminance" maskUnits="userSpaceOnUse" x="38" y="124" width="21" height="44">
<path d="M57.6182 147.88C56.3963 157.361 52.4212 167.463 48.4277 167.502C44.4342 167.54 40.3131 157.514 38.9537 148.059C37.0745 134.987 40.8467 124.111 48.1123 124.041C55.3779 123.972 59.3074 134.775 57.6182 147.88Z" fill="white"/>
</mask>
<g mask="url(#mask15_193_980)">
<path d="M34.9158 125.477C63.8338 122.932 54.147 162.843 54.147 162.843L63.796 133.75L53.6648 115.241" fill="#357C49"/>
</g>
<path d="M57.6182 147.88C56.3963 157.361 52.4212 167.463 48.4277 167.502C44.4342 167.54 40.3131 157.514 38.9537 148.059C37.0745 134.987 40.8467 124.111 48.1123 124.041C55.3779 123.972 59.3074 134.775 57.6182 147.88Z" stroke="#190000" stroke-width="0.5" stroke-linecap="round" stroke-linejoin="round"/>
<path d="M31.8121 164.684L35.5895 191.261C35.5895 192.068 40.6382 192.723 46.8661 192.723C53.0939 192.723 58.1426 192.068 58.1426 191.261L61.92 164.684H31.8121Z" fill="#399FE8"/>
<mask id="mask16_193_980" style="mask-type:luminance" maskUnits="userSpaceOnUse" x="31" y="164" width="31" height="29">
<path d="M31.8121 164.684L35.5895 191.261C35.5895 192.068 40.6382 192.723 46.8661 192.723C53.0939 192.723 58.1426 192.068 58.1426 191.261L61.92 164.684H31.8121Z" fill="white"/>
</mask>
<g mask="url(#mask16_193_980)">
<path d="M29.5175 195.48C51.7621 202.843 31.8111 168.602 38.4747 169.288C71.9373 172.729 67.0118 164.944 67.0118 164.944C67.0118 164.944 21.715 157.456 21.0065 157.933C20.298 158.41 22.5225 182.593 22.5225 182.593" fill="#3B8BE2"/>
</g>
<path d="M31.8121 164.684L35.5895 191.261C35.5895 192.068 40.6382 192.723 46.8661 192.723C53.0939 192.723 58.1426 192.068 58.1426 191.261L61.92 164.684H31.8121Z" stroke="#190000" stroke-width="0.5" stroke-linecap="round" stroke-linejoin="round"/>
<path d="M63.6215 162.599H29.692C29.5956 162.599 29.5175 162.677 29.5175 162.774V167.115C29.5175 167.211 29.5956 167.289 29.692 167.289H63.6215C63.7179 167.289 63.796 167.211 63.796 167.115V162.774C63.796 162.677 63.7179 162.599 63.6215 162.599Z" fill="#399FE8" stroke="#190000" stroke-width="0.5" stroke-linecap="round" stroke-linejoin="round"/>
<path d="M110.768 80.4712C110.561 80.6236 110.346 80.786 110.24 81.0197C110.103 81.3197 110.177 81.6822 110.349 81.9635C110.521 82.2448 110.778 82.4615 111.031 82.6729" stroke="#190000" stroke-width="0.5" stroke-linecap="round" stroke-linejoin="round"/>
<path d="M131.225 58.0539C133.505 58.7489 136.131 58.1607 137.898 56.5591" stroke="#190000" stroke-width="0.5" stroke-linecap="round" stroke-linejoin="round"/>
<path d="M112.454 64.8086L112.031 65.551" stroke="#190000" stroke-width="0.5" stroke-linecap="round" stroke-linejoin="round"/>
<path d="M48.8982 178.297L53.9827 179.888" stroke="#2976DF" stroke-linecap="round" stroke-linejoin="round"/>
<path d="M88.0123 174.824L85.7815 177.045" stroke="#11314B" stroke-linecap="round" stroke-linejoin="round"/>
<path d="M186.497 153.796C185.533 155.821 184.362 157.741 183.002 159.524" stroke="#6F4EB9" stroke-linecap="round" stroke-linejoin="round"/>
<path d="M140.82 130.609C140.209 131.85 139.302 132.922 138.18 133.729" stroke="#D6DCF2" stroke-width="11" stroke-linecap="round" stroke-linejoin="round"/>
<path d="M115.584 109.114L116.85 109.76" stroke="#E84B23" stroke-width="11" stroke-linecap="round" stroke-linejoin="round"/>
<path d="M91.7939 123.696C91.7832 125.412 91.5581 127.121 91.1239 128.782" stroke="#11314B" stroke-linecap="round" stroke-linejoin="round"/>
</g>
<defs>
<clipPath id="clip0_193_980">
<rect width="312" height="234" fill="white" transform="translate(-15)"/>
</clipPath>
</defs>
</svg>
