<svg width="214" height="174" viewBox="0 0 214 174" fill="none" xmlns="http://www.w3.org/2000/svg">
<path d="M151.276 55.3681C166.33 55.3681 178.533 43.1647 178.533 28.1111C178.533 13.0574 166.33 0.854004 151.276 0.854004C136.223 0.854004 124.019 13.0574 124.019 28.1111C124.019 43.1647 136.223 55.3681 151.276 55.3681Z" fill="#6F4EB9" stroke="#190000" stroke-width="0.5" stroke-linecap="round" stroke-linejoin="round"/>
<path d="M151.276 53.7701C165.447 53.7701 176.935 42.2822 176.935 28.1111C176.935 13.9401 165.447 2.45215 151.276 2.45215C137.105 2.45215 125.617 13.9401 125.617 28.1111C125.617 42.2822 137.105 53.7701 151.276 53.7701Z" fill="#9879C9"/>
<path d="M151.276 50.9036C163.864 50.9036 174.069 40.6991 174.069 28.1112C174.069 15.5234 163.864 5.31885 151.276 5.31885C138.688 5.31885 128.484 15.5234 128.484 28.1112C128.484 40.6991 138.688 50.9036 151.276 50.9036Z" fill="#3B8BE2"/>
<mask id="mask0_193_1431" style="mask-type:luminance" maskUnits="userSpaceOnUse" x="128" y="5" width="47" height="46">
<path d="M151.276 50.9036C163.864 50.9036 174.069 40.6991 174.069 28.1112C174.069 15.5234 163.864 5.31885 151.276 5.31885C138.688 5.31885 128.484 15.5234 128.484 28.1112C128.484 40.6991 138.688 50.9036 151.276 50.9036Z" fill="white"/>
</mask>
<g mask="url(#mask0_193_1431)">
<path d="M148.41 49.4725C160.997 49.4725 171.202 39.268 171.202 26.6801C171.202 14.0922 160.997 3.8877 148.41 3.8877C135.822 3.8877 125.617 14.0922 125.617 26.6801C125.617 39.268 135.822 49.4725 148.41 49.4725Z" fill="#399FE8"/>
</g>
<path d="M151.276 50.9036C163.864 50.9036 174.069 40.6991 174.069 28.1112C174.069 15.5234 163.864 5.31885 151.276 5.31885C138.688 5.31885 128.484 15.5234 128.484 28.1112C128.484 40.6991 138.688 50.9036 151.276 50.9036Z" stroke="#190000" stroke-width="0.5" stroke-linecap="round" stroke-linejoin="round"/>
<path d="M142.815 27.309L142.952 26.4424L151.516 27.3706L151.246 29.0746L142.815 27.309Z" fill="white" stroke="#190000" stroke-width="0.5" stroke-linecap="round" stroke-linejoin="round"/>
<path d="M161.997 20.1553L162.513 20.8652L151.506 29.3843L150.492 27.9883L161.997 20.1553Z" fill="white" stroke="#190000" stroke-width="0.5" stroke-linecap="round" stroke-linejoin="round"/>
<path d="M152.006 8.2666H150.546V11.3187H152.006V8.2666Z" fill="white" stroke="#190000" stroke-width="0.5" stroke-linecap="round" stroke-linejoin="round"/>
<path d="M152.006 44.9033H150.546V47.9554H152.006V44.9033Z" fill="white" stroke="#190000" stroke-width="0.5" stroke-linecap="round" stroke-linejoin="round"/>
<path d="M171.121 27.3813H168.069V28.8412H171.121V27.3813Z" fill="white" stroke="#190000" stroke-width="0.5" stroke-linecap="round" stroke-linejoin="round"/>
<path d="M134.484 27.3813H131.432V28.8412H134.484V27.3813Z" fill="white" stroke="#190000" stroke-width="0.5" stroke-linecap="round" stroke-linejoin="round"/>
<path d="M151.276 31.4522C153.121 31.4522 154.617 29.9563 154.617 28.1111C154.617 26.2659 153.121 24.77 151.276 24.77C149.431 24.77 147.935 26.2659 147.935 28.1111C147.935 29.9563 149.431 31.4522 151.276 31.4522Z" fill="#D6DCF2"/>
<mask id="mask1_193_1431" style="mask-type:luminance" maskUnits="userSpaceOnUse" x="147" y="24" width="8" height="8">
<path d="M151.276 31.4522C153.121 31.4522 154.617 29.9563 154.617 28.1111C154.617 26.2659 153.121 24.77 151.276 24.77C149.431 24.77 147.935 26.2659 147.935 28.1111C147.935 29.9563 149.431 31.4522 151.276 31.4522Z" fill="white"/>
</mask>
<g mask="url(#mask1_193_1431)">
<path d="M149.945 32.0186C151.791 32.0186 153.286 30.5227 153.286 28.6775C153.286 26.8323 151.791 25.3364 149.945 25.3364C148.1 25.3364 146.604 26.8323 146.604 28.6775C146.604 30.5227 148.1 32.0186 149.945 32.0186Z" fill="white"/>
</g>
<path d="M151.276 31.4522C153.121 31.4522 154.617 29.9563 154.617 28.1111C154.617 26.2659 153.121 24.77 151.276 24.77C149.431 24.77 147.935 26.2659 147.935 28.1111C147.935 29.9563 149.431 31.4522 151.276 31.4522Z" stroke="#190000" stroke-width="0.5" stroke-linecap="round" stroke-linejoin="round"/>
<path d="M141.782 15.3667C141.338 16.2975 140.795 17.178 140.164 17.9931" stroke="#2976DF" stroke-linecap="round" stroke-linejoin="round"/>
<path d="M166.598 35.1548C166.623 35.9846 166.481 36.8108 166.181 37.5848C165.881 38.3588 165.429 39.0649 164.852 39.6616" stroke="#2976DF" stroke-linecap="round" stroke-linejoin="round"/>
<path d="M121.978 45.8517C126.865 42.803 129.672 37.8709 130.882 36.9311C132.092 35.9914 140.382 36.5949 141.03 35.8905C141.678 35.1861 140.408 38.3101 137.359 38.8435C134.31 39.3768 133.692 39.7187 133.692 39.7187C133.692 39.7187 130.924 47.0151 129.354 48.3451C127.783 49.6751 118.51 55.842 118.51 55.842L121.978 45.8517Z" fill="#FACCC4" stroke="#190000" stroke-width="0.5" stroke-linecap="round" stroke-linejoin="round"/>
<path d="M124.704 43.4344C124.704 43.4344 129.975 50.2653 128.87 54.1052L96.0761 68.4716L71.5349 36.0887C71.5349 36.0887 82.7654 35.2742 85.6774 34.9703C88.8073 34.6437 98.869 52.2365 102.38 52.0929C104.135 52.0213 124.704 43.4344 124.704 43.4344Z" fill="#FB81B2"/>
<mask id="mask2_193_1431" style="mask-type:luminance" maskUnits="userSpaceOnUse" x="71" y="34" width="59" height="35">
<path d="M124.704 43.4344C124.704 43.4344 129.975 50.2653 128.87 54.1052L96.0761 68.4716L71.5349 36.0887C71.5349 36.0887 82.7654 35.2742 85.6774 34.9703C88.8073 34.6437 98.869 52.2365 102.38 52.0929C104.135 52.0213 124.704 43.4344 124.704 43.4344Z" fill="white"/>
</mask>
<g mask="url(#mask2_193_1431)">
<path d="M89.0606 46.6084C99.1625 63.4613 105.862 72.5951 116.717 59.8438C121.021 54.789 105.862 72.5951 105.862 72.5951L82.2123 69.6573V64.4471" fill="#EA70A2"/>
<path d="M102.581 52.5123C103.019 52.5123 103.374 52.157 103.374 51.7188C103.374 51.2806 103.019 50.9253 102.581 50.9253C102.143 50.9253 101.787 51.2806 101.787 51.7188C101.787 52.157 102.143 52.5123 102.581 52.5123Z" fill="#190000"/>
<path d="M124.667 54.1066C125.105 54.1066 125.46 53.7513 125.46 53.313C125.46 52.8748 125.105 52.5195 124.667 52.5195C124.229 52.5195 123.873 52.8748 123.873 53.313C123.873 53.7513 124.229 54.1066 124.667 54.1066Z" fill="#EA70A2"/>
</g>
<path d="M124.704 43.4344C124.704 43.4344 129.975 50.2653 128.87 54.1052L96.0761 68.4716L71.5349 36.0887C71.5349 36.0887 82.7654 35.2742 85.6774 34.9703C88.8073 34.6437 98.869 52.2365 102.38 52.0929C104.135 52.0213 124.704 43.4344 124.704 43.4344Z" stroke="#190000" stroke-width="0.5" stroke-linecap="round" stroke-linejoin="round"/>
<path d="M164.742 152.649L172.631 150.043L165.055 134.239L155.454 137.411L164.742 152.649Z" fill="#FACCC4"/>
<mask id="mask3_193_1431" style="mask-type:luminance" maskUnits="userSpaceOnUse" x="155" y="134" width="18" height="19">
<path d="M164.742 152.649L172.631 150.043L165.055 134.239L155.454 137.411L164.742 152.649Z" fill="white"/>
</mask>
<g mask="url(#mask3_193_1431)">
<path d="M151.174 149.959C168.423 144.376 168.017 140.417 168.017 140.417L161.316 139.69L155.454 144.276" fill="#ED707B"/>
</g>
<path d="M164.742 152.649L172.631 150.043L165.055 134.239L155.454 137.411L164.742 152.649Z" stroke="#190000" stroke-width="0.5" stroke-linecap="round" stroke-linejoin="round"/>
<path d="M194.326 149.496C192.834 146.75 190.443 146.408 187.48 146.786C180.937 147.619 173.156 148.021 171.02 145.461L161.316 148.202L165.843 156.256C166.462 157.357 167.895 157.971 168.998 157.606L194.326 149.496Z" fill="#4B4D5C" stroke="#190000" stroke-width="0.5" stroke-linecap="round" stroke-linejoin="round"/>
<path d="M152.322 145.618C162.484 144.708 169.246 139.595 169.246 139.595L150.845 99.1443C149.779 96.7348 147.766 94.795 145.215 93.7212L93.2778 75.1577L94.4509 78.8732L96.7755 92.6397L134.755 108.213L152.322 145.618Z" fill="#399FE8"/>
<mask id="mask4_193_1431" style="mask-type:luminance" maskUnits="userSpaceOnUse" x="93" y="75" width="77" height="71">
<path d="M152.322 145.618C162.484 144.708 169.246 139.595 169.246 139.595L150.845 99.1443C149.779 96.7348 147.766 94.795 145.215 93.7212L93.2778 75.1577L94.4509 78.8732L96.7755 92.6397L134.755 108.213L152.322 145.618Z" fill="white"/>
</mask>
<g mask="url(#mask4_193_1431)">
<path d="M145.864 140.242C159.666 142.984 168.274 131.586 168.274 131.586" stroke="#2976DF" stroke-width="11" stroke-linecap="round" stroke-linejoin="round"/>
<path d="M158.896 136.972L142.201 102.938C141.682 101.88 140.769 101.068 139.659 100.675L98.1812 85.9951" stroke="#2976DF" stroke-width="11" stroke-linecap="round" stroke-linejoin="round"/>
<path d="M138.591 126.555C146.457 111.614 145.215 93.721 121.771 94.3439C90.1229 95.1849 113.104 128.336 113.104 128.336H131.262" fill="#3B8BE2"/>
</g>
<path d="M152.322 145.618C162.484 144.708 169.246 139.595 169.246 139.595L150.845 99.1443C149.779 96.7348 147.766 94.795 145.215 93.7212L93.2778 75.1577L94.4509 78.8732L96.7755 92.6397L134.755 108.213L152.322 145.618Z" stroke="#190000" stroke-width="0.5" stroke-linecap="round" stroke-linejoin="round"/>
<path d="M118.424 169.058L125.641 172.998L129.325 153.518L120.651 148.064L118.424 169.058Z" fill="#FACCC4"/>
<mask id="mask5_193_1431" style="mask-type:luminance" maskUnits="userSpaceOnUse" x="118" y="148" width="12" height="25">
<path d="M118.424 169.058L125.641 172.998L129.325 153.518L120.651 148.064L118.424 169.058Z" fill="white"/>
</mask>
<g mask="url(#mask5_193_1431)">
<path d="M114.685 159.281C125.198 163.219 128.362 161.215 128.362 161.215L122.544 156.688L114.838 157.237" fill="#ED707B"/>
</g>
<path d="M118.424 169.058L125.641 172.998L129.325 153.518L120.651 148.064L118.424 169.058Z" stroke="#190000" stroke-width="0.5" stroke-linecap="round" stroke-linejoin="round"/>
<path d="M138.543 189.146C139.788 186.343 138.534 184.303 136.338 182.256C131.49 177.737 126.197 172.007 126.881 168.824L118.487 163.029L116.642 172.999C116.156 174.139 116.58 175.609 117.576 176.235L138.543 189.146Z" fill="#4B4D5C" stroke="#190000" stroke-width="0.5" stroke-linecap="round" stroke-linejoin="round"/>
<path d="M114.979 155.869C114.979 155.869 125.921 163.631 131.164 160.45L138.506 106.001C139.037 102.267 137.042 98.5125 133.494 96.5716L93.2778 75.1577L74.5915 78.8811L73.4048 83.4883C71.4708 90.9971 76.162 98.8763 84.1036 101.458L119.716 111.491L114.979 155.869Z" fill="#399FE8"/>
<mask id="mask6_193_1431" style="mask-type:luminance" maskUnits="userSpaceOnUse" x="72" y="75" width="67" height="87">
<path d="M114.979 155.869C114.979 155.869 125.921 163.631 131.164 160.45L138.506 106.001C139.037 102.267 137.042 98.5125 133.494 96.5716L93.2778 75.1577L74.5915 78.8811L73.4048 83.4883C71.4708 90.9971 76.162 98.8763 84.1036 101.458L119.716 111.491L114.979 155.869Z" fill="white"/>
</mask>
<g mask="url(#mask6_193_1431)">
<path d="M105.158 78.026C72.0102 88.3098 89.1503 102.087 105.158 108.301C121.166 114.516 68.6533 115.114 68.6533 115.114L62.8355 96.1214L80.8565 83.4098L95.4456 71.7515" fill="#3B8BE2"/>
<path d="M139.468 105.809C142.974 105.809 145.816 104.969 145.816 103.933C145.816 102.897 142.974 102.058 139.468 102.058C135.962 102.058 133.12 102.897 133.12 103.933C133.12 104.969 135.962 105.809 139.468 105.809Z" fill="#FACCC4" stroke="#190000" stroke-width="0.5" stroke-linecap="round" stroke-linejoin="round"/>
<path d="M115.589 141.396C104.047 150.698 135.139 154.767 135.139 154.767" stroke="#2976DF" stroke-width="11" stroke-linecap="round" stroke-linejoin="round"/>
<path d="M92.3381 86.8604C92.4343 93.6893 86.7561 94.7632 86.7561 94.7632L92.3381 86.8604Z" fill="#399FE8"/>
<path d="M92.3381 86.8604C92.4343 93.6893 86.7561 94.7632 86.7561 94.7632" stroke="#190000" stroke-width="0.5" stroke-linecap="round" stroke-linejoin="round"/>
<path d="M93.2778 91.4414L122.928 102.608C124.68 103.268 126.166 104.484 127.16 106.07C128.154 107.656 128.599 109.524 128.429 111.388L124.752 151.586" stroke="#190000" stroke-width="0.5" stroke-linecap="round" stroke-linejoin="round"/>
</g>
<path d="M114.979 155.869C114.979 155.869 125.921 163.631 131.164 160.45L138.506 106.001C139.037 102.267 137.042 98.5125 133.494 96.5716L93.2778 75.1577L74.5915 78.8811L73.4048 83.4883C71.4708 90.9971 76.162 98.8763 84.1036 101.458L119.716 111.491L114.979 155.869Z" stroke="#190000" stroke-width="0.5" stroke-linecap="round" stroke-linejoin="round"/>
<path d="M83.1709 35.6337C79.7 34.6501 65.89 35.2663 64.2346 39.7857C63.5539 41.6442 58.6931 55.5896 67.7747 93.7319C73.5635 97.4157 98.4754 75.3664 98.4754 75.3664C98.5453 75.3338 93.8272 59.1355 89.3751 47.4271" fill="#FB81B2"/>
<mask id="mask7_193_1431" style="mask-type:luminance" maskUnits="userSpaceOnUse" x="62" y="35" width="37" height="60">
<path d="M83.1709 35.6337C79.7 34.6501 65.89 35.2663 64.2346 39.7857C63.5539 41.6442 58.6931 55.5896 67.7747 93.7319C73.5635 97.4157 98.4754 75.3664 98.4754 75.3664C98.5453 75.3338 93.8272 59.1355 89.3751 47.4271" fill="white"/>
</mask>
<g mask="url(#mask7_193_1431)">
<path d="M98.4754 75.3664C62.5486 73.5527 63.1002 104.322 82.1985 91.7954C101.297 79.2692 78.4035 98.7203 77.6024 99.1954C76.8013 99.6705 59.6981 102.521 59.6981 102.521L51.9021 81.3745C51.9021 81.3745 63.4988 66.4693 65.1616 67.7482C66.8244 69.0271 94.1404 69.2971 94.1404 69.2971" fill="#EA70A2"/>
<path d="M94.6465 82.8209C96.5701 75.2225 81.8516 39.7798 81.8516 39.7798L94.6465 82.8209Z" fill="#FB81B2"/>
<path d="M94.6465 82.8209C96.5701 75.2225 81.8516 39.7798 81.8516 39.7798" stroke="#190000" stroke-width="0.5" stroke-linecap="round" stroke-linejoin="round"/>
<path d="M60.694 86.5719C65.3107 96.5749 97.3877 72.6494 97.3877 72.6494" stroke="#BA393C" stroke-width="11" stroke-linecap="round" stroke-linejoin="round"/>
</g>
<path d="M83.1709 35.6337C79.7 34.6501 65.89 35.2663 64.2346 39.7857C63.5539 41.6442 58.6931 55.5896 67.7747 93.7319C73.5635 97.4157 98.4754 75.3664 98.4754 75.3664C98.5453 75.3338 93.8272 59.1355 89.3751 47.4271" stroke="#190000" stroke-width="0.5" stroke-linecap="round" stroke-linejoin="round"/>
<path d="M75.5123 53.3135C74.2267 62.0177 85.4129 62.615 91.2715 63.1332C97.1301 63.6514 83.6679 63.5851 89.3947 63.7773C95.1215 63.9695 80.4984 67.7484 80.4984 67.7484L65.89 66.4875L67.4877 55.015L75.5123 53.3135Z" fill="#EA70A2"/>
<path d="M99.1421 64.8084C104.894 64.5057 109.737 61.5484 111.251 61.3117C112.764 61.075 119.727 65.6157 120.635 65.313C121.543 65.0102 118.92 67.1293 115.993 66.1202C113.067 65.1112 112.361 65.1112 112.361 65.1112C112.361 65.1112 106.407 70.1564 104.389 70.5601C102.371 70.9637 91.2715 71.8718 91.2715 71.8718L99.1421 64.8084Z" fill="#FACCC4"/>
<mask id="mask8_193_1431" style="mask-type:luminance" maskUnits="userSpaceOnUse" x="91" y="61" width="30" height="11">
<path d="M99.1421 64.8084C104.894 64.5057 109.737 61.5484 111.251 61.3117C112.764 61.075 119.727 65.6157 120.635 65.313C121.543 65.0102 118.92 67.1293 115.993 66.1202C113.067 65.1112 112.361 65.1112 112.361 65.1112C112.361 65.1112 106.407 70.1564 104.389 70.5601C102.371 70.9637 91.2715 71.8718 91.2715 71.8718L99.1421 64.8084Z" fill="white"/>
</mask>
<g mask="url(#mask8_193_1431)">
<path d="M104.135 73.3802C105.043 66.4551 103.196 63.0557 103.196 63.0557L99.1996 71.144L103.303 73.813" fill="#ED707B"/>
</g>
<path d="M99.1421 64.8084C104.894 64.5057 109.737 61.5484 111.251 61.3117C112.764 61.075 119.727 65.6157 120.635 65.313C121.543 65.0102 118.92 67.1293 115.993 66.1202C113.067 65.1112 112.361 65.1112 112.361 65.1112C112.361 65.1112 106.407 70.1564 104.389 70.5601C102.371 70.9637 91.2715 71.8718 91.2715 71.8718L99.1421 64.8084Z" stroke="#190000" stroke-width="0.5" stroke-linecap="round" stroke-linejoin="round"/>
<path d="M75.5123 53.3132C74.3201 57.8682 69.384 62.7669 69.384 62.7669L103.196 63.0558C103.196 63.0558 104.003 72.541 101.178 75.3663H59.074C57.5443 75.3663 56.0546 74.8772 54.8226 73.9704C53.5907 73.0636 52.6809 71.7867 52.2263 70.3261C51.709 68.6644 51.8136 66.8713 52.5206 65.281L64.2347 39.7856" fill="#FB81B2"/>
<mask id="mask9_193_1431" style="mask-type:luminance" maskUnits="userSpaceOnUse" x="51" y="39" width="53" height="37">
<path d="M75.5123 53.3132C74.3201 57.8682 69.384 62.7669 69.384 62.7669L103.196 63.0558C103.196 63.0558 104.003 72.541 101.178 75.3663H59.074C57.5443 75.3663 56.0546 74.8772 54.8226 73.9704C53.5907 73.0636 52.6809 71.7867 52.2263 70.3261C51.709 68.6644 51.8136 66.8713 52.5206 65.281L64.2347 39.7856" fill="white"/>
</mask>
<g mask="url(#mask9_193_1431)">
<path d="M51.3155 83.687C57.3974 83.687 62.3278 79.905 62.3278 75.2397C62.3278 70.5744 57.3974 66.7925 51.3155 66.7925C45.2336 66.7925 40.3033 70.5744 40.3033 75.2397C40.3033 79.905 45.2336 83.687 51.3155 83.687Z" fill="#EA70A2"/>
<path opacity="0.4" d="M52.5253 82.477C58.6072 82.477 63.5375 78.6951 63.5375 74.0298C63.5375 69.3645 58.6072 65.5825 52.5253 65.5825C46.4434 65.5825 41.5131 69.3645 41.5131 74.0298C41.5131 78.6951 46.4434 82.477 52.5253 82.477Z" stroke="#EA71A2" stroke-width="11" stroke-linecap="round" stroke-linejoin="round"/>
</g>
<path d="M75.5123 53.3132C74.3201 57.8682 69.384 62.7669 69.384 62.7669L103.196 63.0558C103.196 63.0558 104.003 72.541 101.178 75.3663H59.074C57.5443 75.3663 56.0546 74.8772 54.8226 73.9704C53.5907 73.0636 52.6809 71.7867 52.2263 70.3261C51.709 68.6644 51.8136 66.8713 52.5206 65.281L64.2347 39.7856" stroke="#190000" stroke-width="0.5" stroke-linecap="round" stroke-linejoin="round"/>
<path d="M107.642 71.0591L104.135 71.4975V70.4562L127.042 59.9888V61.4137L107.642 71.0591Z" fill="#FBD164" stroke="#190000" stroke-width="0.5" stroke-linecap="round" stroke-linejoin="round"/>
<path d="M127.042 28.5315V61.414H152.252V36.4436C152.252 35.7321 152.032 35.038 151.622 34.4566C151.212 33.8751 150.632 33.4347 149.962 33.1958L130.346 26.2022C129.973 26.0692 129.573 26.0277 129.18 26.0814C128.788 26.135 128.414 26.2822 128.09 26.5105C127.767 26.7388 127.502 27.0415 127.32 27.3932C127.138 27.7449 127.042 28.1353 127.042 28.5315Z" fill="#FBD164"/>
<mask id="mask10_193_1431" style="mask-type:luminance" maskUnits="userSpaceOnUse" x="127" y="26" width="26" height="36">
<path d="M127.042 28.5315V61.414H152.252V36.4436C152.252 35.7321 152.032 35.038 151.622 34.4566C151.212 33.8751 150.632 33.4347 149.962 33.1958L130.346 26.2022C129.973 26.0692 129.573 26.0277 129.18 26.0814C128.788 26.135 128.414 26.2822 128.09 26.5105C127.767 26.7388 127.502 27.0415 127.32 27.3932C127.138 27.7449 127.042 28.1353 127.042 28.5315Z" fill="white"/>
</mask>
<g mask="url(#mask10_193_1431)">
<path d="M146.762 23.396C171.769 49.5994 135.797 63.4497 135.797 63.4497L161.959 70.1824L165.037 45.1496L154.264 31.588" fill="#F9B964"/>
<path d="M135.224 49.5104C137.969 49.5104 140.194 47.2851 140.194 44.5401C140.194 41.7951 137.969 39.5698 135.224 39.5698C132.479 39.5698 130.253 41.7951 130.253 44.5401C130.253 47.2851 132.479 49.5104 135.224 49.5104Z" fill="#B06759" stroke="#190000" stroke-width="0.5" stroke-linecap="round" stroke-linejoin="round"/>
<path d="M146.43 35.9847L139.812 38.8965L142.724 45.5141L149.341 42.6024L146.43 35.9847Z" fill="#FB81B2" stroke="#190000" stroke-width="0.5" stroke-linecap="round" stroke-linejoin="round"/>
<path d="M145.556 48.7603L142.832 46.9854L141.057 49.7089L143.781 51.4838L145.556 48.7603Z" fill="white" stroke="#190000" stroke-width="0.5" stroke-linecap="round" stroke-linejoin="round"/>
</g>
<path d="M127.042 28.5315V61.414H152.252V36.4436C152.252 35.7321 152.032 35.038 151.622 34.4566C151.212 33.8751 150.632 33.4347 149.962 33.1958L130.346 26.2022C129.973 26.0692 129.573 26.0277 129.18 26.0814C128.788 26.135 128.414 26.2822 128.09 26.5105C127.767 26.7388 127.502 27.0415 127.32 27.3932C127.138 27.7449 127.042 28.1353 127.042 28.5315Z" stroke="#190000" stroke-width="0.5" stroke-linecap="round" stroke-linejoin="round"/>
<path d="M104.135 71.4979L127.042 61.4141H152.252L128.796 72.0459L104.135 71.4979Z" fill="#F9B964" stroke="#190000" stroke-width="0.5" stroke-linecap="round" stroke-linejoin="round"/>
<path d="M81.8516 39.7801L80.6857 30.097L71.5349 23.396V36.0887" fill="#FACCC4"/>
<mask id="mask11_193_1431" style="mask-type:luminance" maskUnits="userSpaceOnUse" x="71" y="23" width="11" height="17">
<path d="M81.8516 39.7801L80.6857 30.097L71.5349 23.396V36.0887" fill="white"/>
</mask>
<g mask="url(#mask11_193_1431)">
<path d="M83.1093 40.1101C80.4019 35.9604 73.848 26.8135 73.848 26.8135L82.3048 31.3243C82.3048 31.3243 84.2646 41.8807 83.1093 40.1101Z" fill="#ED707B"/>
</g>
<path d="M81.8516 39.7801L80.6857 30.097L71.5349 23.396V36.0887" stroke="#190000" stroke-width="0.5" stroke-linecap="round" stroke-linejoin="round"/>
<path d="M71.0128 24.7422L69.8813 17.9805L85.1057 16.0088C85.1057 16.0088 86.7516 26.5885 83.8445 31.2705C82.082 34.1092 77.9362 32.2793 74.9449 30.3985" fill="#FACCC4"/>
<mask id="mask12_193_1431" style="mask-type:luminance" maskUnits="userSpaceOnUse" x="69" y="16" width="17" height="17">
<path d="M71.0128 24.7422L69.8813 17.9805L85.1057 16.0088C85.1057 16.0088 86.7516 26.5885 83.8445 31.2705C82.082 34.1092 77.9362 32.2793 74.9449 30.3985" fill="white"/>
</mask>
<g mask="url(#mask12_193_1431)">
<path opacity="0.27" d="M89.3161 27.1895C89.6596 26.3016 88.9671 25.2061 87.7694 24.7427C86.5716 24.2794 85.3221 24.6235 84.9786 25.5114C84.6351 26.3993 85.3276 27.4948 86.5254 27.9582C87.7232 28.4216 88.9726 28.0774 89.3161 27.1895Z" fill="#ED707B"/>
<path opacity="0.27" d="M80.2887 25.3912C80.3407 24.6698 79.4201 24.0157 78.2325 23.9301C77.0449 23.8446 76.04 24.3601 75.9881 25.0815C75.9361 25.8029 76.8567 26.457 78.0443 26.5426C79.2319 26.6281 80.2368 26.1126 80.2887 25.3912Z" fill="#ED707B"/>
<path opacity="0.27" d="M88.6927 26.0045C88.7446 25.2831 87.824 24.629 86.6364 24.5434C85.4488 24.4579 84.4439 24.9734 84.392 25.6948C84.34 26.4162 85.2606 27.0703 86.4482 27.1558C87.6358 27.2414 88.6407 26.7259 88.6927 26.0045Z" fill="#ED707B"/>
<path d="M84.0003 23.8735C83.9202 23.8766 83.8404 23.8639 83.7653 23.8361C83.6901 23.8083 83.6212 23.766 83.5625 23.7116C83.5037 23.6572 83.4562 23.5917 83.4227 23.5189C83.3893 23.4462 83.3705 23.3675 83.3674 23.2875L83.3278 22.2582C83.3248 22.1781 83.3375 22.0983 83.3653 22.0232C83.393 21.948 83.4354 21.8791 83.4898 21.8204C83.5442 21.7616 83.6097 21.7141 83.6824 21.6807C83.7552 21.6472 83.8338 21.6284 83.9139 21.6253C84.0755 21.6191 84.233 21.6773 84.3517 21.7872C84.4704 21.8971 84.5405 22.0497 84.5468 22.2113L84.5863 23.2406C84.5925 23.4023 84.5343 23.5598 84.4244 23.6785C84.3145 23.7971 84.1619 23.8673 84.0003 23.8735Z" fill="#190000"/>
<path d="M80.029 23.8612C80.4125 23.8863 80.7391 23.6283 80.7586 23.285L80.8182 22.2351C80.8377 21.8918 80.5426 21.5931 80.1592 21.5681C79.7758 21.543 79.4492 21.801 79.4297 22.1443L79.3701 23.1942C79.3506 23.5375 79.6456 23.8362 80.029 23.8612Z" fill="#190000"/>
<path d="M84.0107 20.1832C85.2684 20.4981 84.9519 21.1892 84.1529 21.0436C83.3538 20.898 83.189 19.9774 84.0107 20.1832Z" fill="#190000"/>
<path d="M80.2871 20.0569C78.8493 20.3343 79.096 20.9912 80.0086 20.8706C80.9213 20.75 81.2264 19.8756 80.2871 20.0569Z" fill="#190000"/>
<path d="M81.4188 24.0678C81.3755 24.5058 81.7995 24.3723 82.3013 24.4219C82.8032 24.4714 83.1929 24.6852 83.2361 24.2472C83.2793 23.8092 82.9076 23.414 82.4057 23.3645C81.9039 23.315 81.462 23.6299 81.4188 24.0678Z" fill="#ED707B"/>
<path d="M83.8813 26.2026C83.2732 29.26 80.3992 27.945 80.3698 26.0403C80.3699 25.9922 80.3847 25.9453 80.4124 25.9058C80.44 25.8664 80.4791 25.8365 80.5243 25.82C80.9151 25.6729 82.0495 25.3667 83.7225 25.931C83.7772 25.9496 83.8234 25.9873 83.8526 26.0372C83.8817 26.087 83.8919 26.1458 83.8813 26.2026Z" fill="#C1525F"/>
<mask id="mask13_193_1431" style="mask-type:luminance" maskUnits="userSpaceOnUse" x="80" y="25" width="4" height="4">
<path d="M83.8813 26.2026C83.2732 29.26 80.3992 27.945 80.3698 26.0403C80.3699 25.9922 80.3847 25.9453 80.4124 25.9058C80.44 25.8664 80.4791 25.8365 80.5243 25.82C80.9151 25.6729 82.0495 25.3667 83.7225 25.931C83.7772 25.9496 83.8234 25.9873 83.8526 26.0372C83.8817 26.087 83.8919 26.1458 83.8813 26.2026Z" fill="white"/>
</mask>
<g mask="url(#mask13_193_1431)">
<path d="M83.139 28.3966C83.4005 27.6721 82.9545 26.8471 82.1426 26.5541C81.3308 26.2611 80.4607 26.6109 80.1991 27.3355C79.9376 28.0601 80.3837 28.885 81.1955 29.178C82.0073 29.4711 82.8775 29.1212 83.139 28.3966Z" fill="#993443"/>
<path d="M83.3495 25.7022C83.3421 25.9049 83.313 26.1795 83.2584 26.2277C82.9221 26.5251 81.3477 26.3345 81.1378 26.1509C81.0794 26.0998 81.0935 25.4463 81.0935 25.4463L83.113 25.584" fill="white"/>
</g>
</g>
<path d="M71.0128 24.7422L69.8813 17.9805L85.1057 16.0088C85.1057 16.0088 86.7516 26.5885 83.8445 31.2705C82.082 34.1092 77.9362 32.2793 74.9449 30.3985" stroke="#190000" stroke-width="0.5" stroke-linecap="round" stroke-linejoin="round"/>
<path d="M72.3925 24.0239C81.1768 25.0176 73.4382 15.6615 85.1057 16.9286C99.8755 18.5327 96.2608 10.8588 92.4091 11.224C85.3065 11.8976 95.8926 9.37935 84.3216 9.19226C79.1652 9.10891 63.3206 11.8378 69.8814 23.3959C72.3717 27.7833 72.1453 26.0505 72.3925 24.0239Z" fill="#4B4D5C" stroke="#190000" stroke-width="0.5" stroke-linecap="round" stroke-linejoin="round"/>
<path d="M75.401 23.9584C75.2329 23.522 74.992 23.1172 74.6887 22.7612C73.4573 21.3014 71.4813 20.8402 70.2752 21.7312C69.0692 22.6221 69.0897 24.5277 70.3212 25.9875C71.1072 26.9193 72.1966 27.4442 73.1955 27.4703" fill="#FACCC4"/>
<path d="M75.401 23.9584C75.2329 23.522 74.992 23.1172 74.6887 22.7612C73.4573 21.3014 71.4813 20.8402 70.2752 21.7312C69.0692 22.6221 69.0897 24.5277 70.3212 25.9875C71.1072 26.9193 72.1966 27.4442 73.1955 27.4703" stroke="#190000" stroke-width="0.5" stroke-linecap="round" stroke-linejoin="round"/>
<path d="M70.1195 36.2744C70.1195 36.2744 70.6793 34.1344 71.5349 33.7197L81.8516 39.7799L80.9846 41.5514L70.1195 36.2744Z" fill="white" stroke="#190000" stroke-width="0.5" stroke-linecap="round" stroke-linejoin="round"/>
<path d="M83.1709 41.0618L81.8516 39.7803L81.3756 33.3633C82.6935 33.5363 83.6576 34.966 83.6576 34.966L83.1709 41.0618Z" fill="white" stroke="#190000" stroke-width="0.5" stroke-linecap="round" stroke-linejoin="round"/>
<path d="M98.1811 73.4435C98.6194 73.4435 98.9747 73.0882 98.9747 72.6499C98.9747 72.2117 98.6194 71.8564 98.1811 71.8564C97.7429 71.8564 97.3876 72.2117 97.3876 72.6499C97.3876 73.0882 97.7429 73.4435 98.1811 73.4435Z" fill="#EA70A2"/>
<path d="M93.5766 73.4435C94.0148 73.4435 94.3701 73.0882 94.3701 72.6499C94.3701 72.2117 94.0148 71.8564 93.5766 71.8564C93.1383 71.8564 92.7831 72.2117 92.7831 72.6499C92.7831 73.0882 93.1383 73.4435 93.5766 73.4435Z" fill="#EA70A2"/>
<path d="M72.3563 23.3086C72.2584 23.356 72.171 23.4224 72.0989 23.5038C72.0269 23.5853 71.9718 23.6803 71.9367 23.7832C71.9017 23.8861 71.8874 23.995 71.8947 24.1035C71.902 24.212 71.9308 24.3179 71.9793 24.4152" stroke="#190000" stroke-width="0.5" stroke-linecap="round" stroke-linejoin="round"/>
<path d="M74.0874 16.96L74.376 17.2485" stroke="#190000" stroke-width="0.5" stroke-linecap="round" stroke-linejoin="round"/>
<path d="M84.114 12.9219C85.54 13.3456 87.0388 13.4667 88.5144 13.2775" stroke="#190000" stroke-width="0.5" stroke-linecap="round" stroke-linejoin="round"/>
<path d="M67.525 62.6182C68.1192 62.8647 68.7743 62.9249 69.4036 62.7909" stroke="#BA393C" stroke-linecap="round" stroke-linejoin="round"/>
<path d="M102.463 52.2271L102.862 53.5358" stroke="#BA393C" stroke-linecap="round" stroke-linejoin="round"/>
<path d="M120.034 111.522C121.428 110.892 122.627 109.901 123.508 108.651" stroke="#2976DF" stroke-linecap="round" stroke-linejoin="round"/>
<path d="M172.631 146.548C173.709 133.173 179.453 142.657 173.839 146.932C173.839 146.932 180.489 144.138 181.211 144.57" stroke="#190000" stroke-width="0.5" stroke-linecap="round" stroke-linejoin="round"/>
<path d="M126.972 172.615C128.05 159.239 133.794 168.723 128.181 172.998C128.181 172.998 134.831 170.204 135.552 170.637" stroke="#190000" stroke-width="0.5" stroke-linecap="round" stroke-linejoin="round"/>
<path d="M73.8434 28.0186L73.9901 29.0281" stroke="#E84B23" stroke-linecap="round" stroke-linejoin="round"/>
<path d="M112.334 65.1904V64.8057" stroke="#E84B23" stroke-linecap="round" stroke-linejoin="round"/>
<path d="M113.131 84.5898L112.834 85.017" stroke="#2976DF" stroke-linecap="round" stroke-linejoin="round"/>
<path d="M55.9001 58.2604L42.5423 17.1728C42.5293 17.1327 42.5009 17.0994 42.4633 17.0803C42.4257 17.0612 42.3821 17.0577 42.342 17.0708L1.25449 30.4285C1.22459 30.4382 1.19824 30.4566 1.17877 30.4813C1.15931 30.506 1.1476 30.5359 1.14514 30.5673C1.14268 30.5986 1.14957 30.63 1.16494 30.6574C1.18031 30.6848 1.20347 30.7071 1.23149 30.7214L55.6767 58.4512C55.7047 58.4655 55.7363 58.4711 55.7676 58.4674C55.7988 58.4637 55.8282 58.4508 55.8521 58.4304C55.876 58.41 55.8934 58.3829 55.9019 58.3527C55.9104 58.3224 55.9098 58.2903 55.9001 58.2604Z" fill="#409159"/>
<path d="M42.5307 42.7185L21.6871 32.1025C21.6591 32.0882 21.6359 32.066 21.6206 32.0385C21.6052 32.0111 21.5983 31.9797 21.6008 31.9484C21.6032 31.917 21.6149 31.8871 21.6344 31.8624C21.6539 31.8377 21.6802 31.8193 21.7101 31.8096L37.4399 26.6958C37.48 26.6827 37.5236 26.6862 37.5612 26.7053C37.5988 26.7244 37.6272 26.7577 37.6403 26.7978L42.7541 42.5277C42.7638 42.5576 42.7645 42.5897 42.7559 42.62C42.7474 42.6502 42.7301 42.6773 42.7062 42.6977C42.6823 42.7181 42.6528 42.731 42.6216 42.7347C42.5904 42.7384 42.5588 42.7328 42.5307 42.7185Z" fill="#409159"/>
<mask id="mask14_193_1431" style="mask-type:luminance" maskUnits="userSpaceOnUse" x="21" y="26" width="22" height="17">
<mask id="mask15_193_1431" style="mask-type:luminance" maskUnits="userSpaceOnUse" x="1" y="17" width="55" height="42">
<path d="M55.9001 58.2604L42.5423 17.1728C42.5293 17.1327 42.5009 17.0994 42.4633 17.0803C42.4257 17.0612 42.3821 17.0577 42.342 17.0708L1.25449 30.4285C1.22459 30.4382 1.19824 30.4566 1.17877 30.4813C1.15931 30.506 1.1476 30.5359 1.14514 30.5673C1.14268 30.5986 1.14957 30.63 1.16494 30.6574C1.18031 30.6848 1.20347 30.7071 1.23149 30.7214L55.6767 58.4512C55.7047 58.4655 55.7363 58.4711 55.7676 58.4674C55.7988 58.4637 55.8282 58.4508 55.8521 58.4304C55.876 58.41 55.8934 58.3829 55.9019 58.3527C55.9104 58.3224 55.9098 58.2903 55.9001 58.2604Z" fill="white"/>
</mask>
<g mask="url(#mask15_193_1431)">
<path d="M42.5307 42.7185L21.6871 32.1025C21.6591 32.0882 21.6359 32.066 21.6206 32.0385C21.6052 32.0111 21.5983 31.9797 21.6008 31.9484C21.6032 31.917 21.6149 31.8871 21.6344 31.8624C21.6539 31.8377 21.6802 31.8193 21.7101 31.8096L37.4399 26.6958C37.48 26.6827 37.5236 26.6862 37.5612 26.7053C37.5988 26.7244 37.6272 26.7577 37.6403 26.7978L42.7541 42.5277C42.7638 42.5576 42.7645 42.5897 42.7559 42.62C42.7474 42.6502 42.7301 42.6773 42.7062 42.6977C42.6823 42.7181 42.6528 42.731 42.6216 42.7347C42.5904 42.7384 42.5588 42.7328 42.5307 42.7185Z" fill="white"/>
</g>
</mask>
<g mask="url(#mask14_193_1431)">
<path d="M6.08748 26.4561C-1.1385 34.7559 31.8936 39.605 40.2731 50.6058C48.6525 61.6065 2.12007 46.2261 2.12007 46.2261L-0.617126 28.6894" fill="#357C49"/>
</g>
<path d="M55.9001 58.2604L42.5423 17.1728C42.5293 17.1327 42.5009 17.0994 42.4633 17.0803C42.4257 17.0612 42.3821 17.0577 42.342 17.0708L1.25449 30.4285C1.22459 30.4382 1.19824 30.4566 1.17877 30.4813C1.15931 30.506 1.1476 30.5359 1.14514 30.5673C1.14268 30.5986 1.14957 30.63 1.16494 30.6574C1.18031 30.6848 1.20347 30.7071 1.23149 30.7214L55.6767 58.4512C55.7047 58.4655 55.7363 58.4711 55.7676 58.4674C55.7988 58.4637 55.8282 58.4508 55.8521 58.4304C55.876 58.41 55.8934 58.3829 55.9019 58.3527C55.9104 58.3224 55.9098 58.2903 55.9001 58.2604Z" stroke="#190000" stroke-width="0.5" stroke-linecap="round" stroke-linejoin="round"/>
<path d="M42.5307 42.7185L21.6871 32.1025C21.6591 32.0882 21.6359 32.066 21.6206 32.0385C21.6052 32.0111 21.5983 31.9797 21.6008 31.9484C21.6032 31.917 21.6149 31.8871 21.6344 31.8624C21.6539 31.8377 21.6802 31.8193 21.7101 31.8096L37.4399 26.6958C37.48 26.6827 37.5236 26.6862 37.5612 26.7053C37.5988 26.7244 37.6272 26.7577 37.6403 26.7978L42.7541 42.5277C42.7638 42.5576 42.7645 42.5897 42.7559 42.62C42.7474 42.6502 42.7301 42.6773 42.7062 42.6977C42.6823 42.7181 42.6528 42.731 42.6216 42.7347C42.5904 42.7384 42.5588 42.7328 42.5307 42.7185Z" stroke="#190000" stroke-width="0.5" stroke-linecap="round" stroke-linejoin="round"/>
<path d="M42.7198 21.231L41.3444 21.6781" stroke="#75AA3C" stroke-linecap="round" stroke-linejoin="round"/>
<path d="M43.6935 24.2261L42.3181 24.6732" stroke="#75AA3C" stroke-linecap="round" stroke-linejoin="round"/>
<path d="M46.6146 33.2109L45.2391 33.6581" stroke="#75AA3C" stroke-linecap="round" stroke-linejoin="round"/>
<path d="M47.5882 36.2061L46.2128 36.6532" stroke="#75AA3C" stroke-linecap="round" stroke-linejoin="round"/>
<path d="M44.6672 27.2212L43.2917 27.6683" stroke="#75AA3C" stroke-linecap="round" stroke-linejoin="round"/>
<path d="M45.6408 30.2158L44.2654 30.663" stroke="#75AA3C" stroke-linecap="round" stroke-linejoin="round"/>
<path d="M49.5356 42.1958L48.1602 42.643" stroke="#75AA3C" stroke-linecap="round" stroke-linejoin="round"/>
<path d="M51.4829 48.1855L50.1075 48.6327" stroke="#75AA3C" stroke-linecap="round" stroke-linejoin="round"/>
<path d="M48.5619 39.2007L47.1865 39.6478" stroke="#75AA3C" stroke-linecap="round" stroke-linejoin="round"/>
<path d="M50.5092 45.1904L49.1338 45.6376" stroke="#75AA3C" stroke-linecap="round" stroke-linejoin="round"/>
<path d="M52.4565 51.1807L51.0811 51.6278" stroke="#75AA3C" stroke-linecap="round" stroke-linejoin="round"/>
<path d="M53.4302 54.1753L52.0548 54.6224" stroke="#75AA3C" stroke-linecap="round" stroke-linejoin="round"/>
<path d="M5.86389 29.9492L6.31105 31.3246" stroke="#75AA3C" stroke-linecap="round" stroke-linejoin="round"/>
<path d="M8.85883 28.9756L9.30598 30.351" stroke="#75AA3C" stroke-linecap="round" stroke-linejoin="round"/>
<path d="M17.8437 26.0547L18.2909 27.4301" stroke="#75AA3C" stroke-linecap="round" stroke-linejoin="round"/>
<path d="M20.8386 25.0811L21.2858 26.4565" stroke="#75AA3C" stroke-linecap="round" stroke-linejoin="round"/>
<path d="M11.8538 28.002L12.301 29.3774" stroke="#75AA3C" stroke-linecap="round" stroke-linejoin="round"/>
<path d="M14.8488 27.0283L15.2959 28.4037" stroke="#75AA3C" stroke-linecap="round" stroke-linejoin="round"/>
<path d="M26.8286 23.1338L27.2757 24.5092" stroke="#75AA3C" stroke-linecap="round" stroke-linejoin="round"/>
<path d="M32.8184 21.186L33.2656 22.5614" stroke="#75AA3C" stroke-linecap="round" stroke-linejoin="round"/>
<path d="M23.8336 24.1074L24.2808 25.4828" stroke="#75AA3C" stroke-linecap="round" stroke-linejoin="round"/>
<path d="M29.8235 22.1597L30.2706 23.5351" stroke="#75AA3C" stroke-linecap="round" stroke-linejoin="round"/>
<path d="M35.8134 20.2124L36.2605 21.5878" stroke="#75AA3C" stroke-linecap="round" stroke-linejoin="round"/>
<path d="M38.8083 19.2388L39.2555 20.6142" stroke="#75AA3C" stroke-linecap="round" stroke-linejoin="round"/>
<path d="M25.4542 37.1021C25.6168 38.2172 26.6709 39.1318 27.7978 39.1356" stroke="#75AA3C" stroke-linecap="round" stroke-linejoin="round"/>
<path d="M71.7571 102.498C71.6192 98.6881 70.6784 94.9505 68.9965 91.5295C68.3577 90.2307 67.6147 88.9857 66.7749 87.8068C60.5072 78.9937 49.2683 74.4559 38.1488 77.2544C27.0295 80.0531 19.2778 89.3705 17.9288 100.101C17.7471 101.537 17.682 102.985 17.734 104.432C17.8719 108.241 18.8126 111.979 20.4946 115.4C27.0916 115.188 35.9516 114.037 46.724 111.325C57.4965 108.614 65.8459 105.434 71.7571 102.498Z" fill="#9879C9"/>
<mask id="mask16_193_1431" style="mask-type:luminance" maskUnits="userSpaceOnUse" x="17" y="76" width="55" height="40">
<path d="M71.7571 102.498C71.6192 98.6881 70.6784 94.9505 68.9965 91.5295C68.3577 90.2307 67.6147 88.9857 66.7749 87.8068C60.5072 78.9937 49.2683 74.4559 38.1488 77.2544C27.0295 80.0531 19.2778 89.3705 17.9288 100.101C17.7471 101.537 17.682 102.985 17.734 104.432C17.8719 108.241 18.8126 111.979 20.4946 115.4C27.0916 115.188 35.9516 114.037 46.724 111.325C57.4965 108.614 65.8459 105.434 71.7571 102.498Z" fill="white"/>
</mask>
<g mask="url(#mask16_193_1431)">
<path d="M27.3476 72.7986C84.8723 76.2046 73.0617 107.756 32.0435 114.3C-8.97466 120.844 86.2535 109.981 86.2535 109.981L84.6985 78.6652L41.077 70.1934L29.4331 76.0754" fill="#6F4EB9"/>
</g>
<path d="M71.7571 102.498C71.6192 98.6881 70.6784 94.9505 68.9965 91.5295C68.3577 90.2307 67.6147 88.9857 66.7749 87.8068C60.5072 78.9937 49.2683 74.4559 38.1488 77.2544C27.0295 80.0531 19.2778 89.3705 17.9288 100.101C17.7471 101.537 17.682 102.985 17.734 104.432C17.8719 108.241 18.8126 111.979 20.4946 115.4C27.0916 115.188 35.9516 114.037 46.724 111.325C57.4965 108.614 65.8459 105.434 71.7571 102.498Z" stroke="#190000" stroke-width="0.5" stroke-linecap="round" stroke-linejoin="round"/>
<path d="M22.7161 119.123C28.9841 127.936 40.223 132.474 51.3423 129.675C62.4618 126.876 70.2134 117.559 71.5625 106.829C64.9053 109.912 56.5891 112.77 47.6538 115.019C38.7185 117.268 30.0396 118.687 22.7161 119.123Z" fill="#9879C9"/>
<mask id="mask17_193_1431" style="mask-type:luminance" maskUnits="userSpaceOnUse" x="22" y="106" width="50" height="25">
<path d="M22.7161 119.123C28.9841 127.936 40.223 132.474 51.3423 129.675C62.4618 126.876 70.2134 117.559 71.5625 106.829C64.9053 109.912 56.5891 112.77 47.6538 115.019C38.7185 117.268 30.0396 118.687 22.7161 119.123Z" fill="white"/>
</mask>
<g mask="url(#mask17_193_1431)">
<path d="M35.0215 132.973C18.537 119.267 50.8365 116.463 65.2611 108.522C79.6857 100.58 9.25702 114.439 9.25702 114.439L21.9872 129.603" fill="#6F4EB9"/>
</g>
<path d="M22.7161 119.123C28.9841 127.936 40.223 132.474 51.3423 129.675C62.4618 126.876 70.2134 117.559 71.5625 106.829C64.9053 109.912 56.5891 112.77 47.6538 115.019C38.7185 117.268 30.0396 118.687 22.7161 119.123Z" stroke="#190000" stroke-width="0.5" stroke-linecap="round" stroke-linejoin="round"/>
<path d="M86.1158 93.0527C85.2025 89.4237 80.1013 87.6094 70.9543 87.6623C69.6218 87.6699 68.2224 87.7212 66.7749 87.8071C67.6148 88.9861 68.3577 90.231 68.9965 91.5299C77.3281 91.2623 82.0471 92.4934 82.4218 93.9825C82.7966 95.4716 79.2227 98.7898 71.7571 102.498C65.8459 105.434 57.4965 108.614 46.724 111.326C35.9516 114.037 27.0916 115.188 20.4946 115.4C12.1632 115.668 7.44427 114.437 7.06925 112.948C6.69467 111.459 10.2684 108.14 17.734 104.432C17.682 102.986 17.7471 101.537 17.9288 100.101C16.6132 100.711 15.356 101.328 14.1789 101.952C6.0965 106.236 2.46191 110.248 3.37537 113.877C4.2888 117.507 9.38995 119.321 18.537 119.268C19.8695 119.26 21.269 119.209 22.7162 119.123C30.0397 118.688 38.7185 117.269 47.6539 115.02C56.5892 112.771 64.9053 109.912 71.5626 106.829C72.8781 106.219 74.1351 105.602 75.3125 104.978C83.3946 100.694 87.0292 96.6817 86.1158 93.0527Z" fill="#409159"/>
<mask id="mask18_193_1431" style="mask-type:luminance" maskUnits="userSpaceOnUse" x="3" y="87" width="84" height="33">
<path d="M86.1158 93.0527C85.2025 89.4237 80.1013 87.6094 70.9543 87.6623C69.6218 87.6699 68.2224 87.7212 66.7749 87.8071C67.6148 88.9861 68.3577 90.231 68.9965 91.5299C77.3281 91.2623 82.0471 92.4934 82.4218 93.9825C82.7966 95.4716 79.2227 98.7898 71.7571 102.498C65.8459 105.434 57.4965 108.614 46.724 111.326C35.9516 114.037 27.0916 115.188 20.4946 115.4C12.1632 115.668 7.44427 114.437 7.06925 112.948C6.69467 111.459 10.2684 108.14 17.734 104.432C17.682 102.986 17.7471 101.537 17.9288 100.101C16.6132 100.711 15.356 101.328 14.1789 101.952C6.0965 106.236 2.46191 110.248 3.37537 113.877C4.2888 117.507 9.38995 119.321 18.537 119.268C19.8695 119.26 21.269 119.209 22.7162 119.123C30.0397 118.688 38.7185 117.269 47.6539 115.02C56.5892 112.771 64.9053 109.912 71.5626 106.829C72.8781 106.219 74.1351 105.602 75.3125 104.978C83.3946 100.694 87.0292 96.6817 86.1158 93.0527Z" fill="white"/>
</mask>
<g mask="url(#mask18_193_1431)">
<path d="M-2.89203 103.465C22.4814 99.4678 20.0483 110.865 20.0483 110.865L26.3048 96.7109L16.2249 94.6226" fill="#357C49"/>
<path d="M59.8464 83.833C72.5331 85.5647 73.9234 94.6227 73.9234 94.6227L63.1484 96.711L59.6725 93.3852" fill="#357C49"/>
</g>
<path d="M86.1158 93.0527C85.2025 89.4237 80.1013 87.6094 70.9543 87.6623C69.6218 87.6699 68.2224 87.7212 66.7749 87.8071C67.6148 88.9861 68.3577 90.231 68.9965 91.5299C77.3281 91.2623 82.047 92.4934 82.4218 93.9825C82.7966 95.4716 79.2227 98.7898 71.7571 102.498C65.8459 105.434 57.4965 108.614 46.724 111.326C35.9516 114.037 27.0916 115.188 20.4946 115.4C12.1632 115.668 7.44427 114.437 7.06925 112.948C6.69467 111.459 10.2684 108.14 17.734 104.432C17.682 102.986 17.7471 101.537 17.9288 100.101C16.6132 100.711 15.356 101.328 14.1789 101.952C6.0965 106.236 2.46191 110.248 3.37537 113.877C4.2888 117.507 9.38995 119.321 18.537 119.268C19.8695 119.26 21.269 119.209 22.7162 119.123C30.0397 118.688 38.7185 117.269 47.6539 115.02C56.5892 112.771 64.9053 109.912 71.5626 106.829C72.8781 106.219 74.1351 105.602 75.3125 104.978C83.3946 100.694 87.0292 96.6817 86.1158 93.0527Z" stroke="#190000" stroke-width="0.5" stroke-linecap="round" stroke-linejoin="round"/>
<path d="M43.9953 89.0278C42.9685 90.785 41.5317 92.2676 39.8076 93.3489L43.9953 89.0278Z" fill="#190000"/>
<path d="M43.9953 89.0278C42.9685 90.785 41.5317 92.2676 39.8076 93.3489" stroke="#6F4EB9" stroke-width="0.5" stroke-linecap="round" stroke-linejoin="round"/>
<path d="M58.069 121.698C57.6538 122.269 57.1206 122.743 56.5056 123.089L58.069 121.698Z" fill="#190000"/>
<path d="M58.069 121.698C57.6538 122.269 57.1206 122.743 56.5056 123.089" stroke="#6F4EB9" stroke-width="0.5" stroke-linecap="round" stroke-linejoin="round"/>
<path d="M13.2197 116.819L11.6628 118.218L13.2197 116.819Z" fill="#190000"/>
<path d="M13.2197 116.819L11.6628 118.218" stroke="#75AA3C" stroke-width="0.5" stroke-linecap="round" stroke-linejoin="round"/>
<path d="M212.855 91.5786C212.855 90.6318 212.479 89.7238 211.81 89.0544C211.14 88.3849 210.232 88.0088 209.285 88.0088H133.817C132.871 88.0088 131.963 88.3849 131.293 89.0544C130.624 89.7238 130.248 90.6318 130.248 91.5786V95.9575H212.855V91.5786Z" fill="#EFF3FC"/>
<mask id="mask19_193_1431" style="mask-type:luminance" maskUnits="userSpaceOnUse" x="130" y="88" width="83" height="8">
<path d="M212.855 91.5786C212.855 90.6318 212.479 89.7238 211.81 89.0544C211.14 88.3849 210.232 88.0088 209.285 88.0088H133.817C132.871 88.0088 131.963 88.3849 131.293 89.0544C130.624 89.7238 130.248 90.6318 130.248 91.5786V95.9575H212.855V91.5786Z" fill="white"/>
</mask>
<g mask="url(#mask19_193_1431)">
<path d="M169.328 85.992C155.73 90.2054 215.292 85.5896 214.908 92.8769C214.525 100.164 213.759 81.9702 213.759 81.9702L184.266 82.7363" fill="#D6DCF2"/>
</g>
<path d="M212.855 91.5786C212.855 90.6318 212.479 89.7238 211.81 89.0544C211.14 88.3849 210.232 88.0088 209.285 88.0088H133.817C132.871 88.0088 131.963 88.3849 131.293 89.0544C130.624 89.7238 130.248 90.6318 130.248 91.5786V95.9575H212.855V91.5786Z" stroke="#190000" stroke-width="0.5" stroke-linecap="round" stroke-linejoin="round"/>
<path d="M130.248 95.958V139.663C130.248 140.61 130.624 141.518 131.293 142.188C131.963 142.857 132.871 143.233 133.817 143.233H209.286C210.232 143.233 211.14 142.857 211.81 142.188C212.479 141.518 212.855 140.61 212.855 139.663V95.958H130.248Z" fill="#D6DCF2"/>
<mask id="mask20_193_1431" style="mask-type:luminance" maskUnits="userSpaceOnUse" x="130" y="95" width="83" height="49">
<path d="M130.248 95.958V139.663C130.248 140.61 130.624 141.518 131.293 142.188C131.963 142.857 132.871 143.233 133.817 143.233H209.286C210.232 143.233 211.14 142.857 211.81 142.188C212.479 141.518 212.855 140.61 212.855 139.663V95.958H130.248Z" fill="white"/>
</mask>
<g mask="url(#mask20_193_1431)">
<path d="M128.535 134.041C128.248 145.841 209.286 143.233 209.286 143.233L131.408 157.332L119.055 149.001" fill="#BFC8E2"/>
</g>
<path d="M130.248 95.958V139.663C130.248 140.61 130.624 141.518 131.293 142.188C131.963 142.857 132.871 143.233 133.817 143.233H209.286C210.232 143.233 211.14 142.857 211.81 142.188C212.479 141.518 212.855 140.61 212.855 139.663V95.958H130.248Z" stroke="#190000" stroke-width="0.5" stroke-linecap="round" stroke-linejoin="round"/>
<path d="M134.735 92.8771C135.282 92.8771 135.724 92.4344 135.724 91.8883C135.724 91.3421 135.282 90.8994 134.735 90.8994C134.189 90.8994 133.747 91.3421 133.747 91.8883C133.747 92.4344 134.189 92.8771 134.735 92.8771Z" fill="#D3575E" stroke="#190000" stroke-width="0.5" stroke-linecap="round" stroke-linejoin="round"/>
<path d="M138.891 92.8771C139.437 92.8771 139.879 92.4344 139.879 91.8883C139.879 91.3421 139.437 90.8994 138.891 90.8994C138.344 90.8994 137.902 91.3421 137.902 91.8883C137.902 92.4344 138.344 92.8771 138.891 92.8771Z" fill="#FBD164" stroke="#190000" stroke-width="0.5" stroke-linecap="round" stroke-linejoin="round"/>
<path d="M143.046 92.8771C143.592 92.8771 144.035 92.4344 144.035 91.8883C144.035 91.3421 143.592 90.8994 143.046 90.8994C142.5 90.8994 142.057 91.3421 142.057 91.8883C142.057 92.4344 142.5 92.8771 143.046 92.8771Z" fill="#357C49" stroke="#190000" stroke-width="0.5" stroke-linecap="round" stroke-linejoin="round"/>
<path d="M204.861 100.361H138.242C137.416 100.361 136.747 101.031 136.747 101.856V136.575C136.747 137.401 137.416 138.07 138.242 138.07H204.861C205.687 138.07 206.356 137.401 206.356 136.575V101.856C206.356 101.031 205.687 100.361 204.861 100.361Z" fill="#9879C9"/>
<mask id="mask21_193_1431" style="mask-type:luminance" maskUnits="userSpaceOnUse" x="136" y="100" width="71" height="39">
<path d="M204.861 100.361H138.242C137.416 100.361 136.747 101.031 136.747 101.856V136.575C136.747 137.401 137.416 138.07 138.242 138.07H204.861C205.687 138.07 206.356 137.401 206.356 136.575V101.856C206.356 101.031 205.687 100.361 204.861 100.361Z" fill="white"/>
</mask>
<g mask="url(#mask21_193_1431)">
<path d="M204.662 96.5386C206.356 136.575 127.386 139.693 127.386 139.693L216.728 153.884L222.566 115.621" fill="#6F4EB9"/>
</g>
<path d="M204.861 100.361H138.242C137.416 100.361 136.747 101.031 136.747 101.856V136.575C136.747 137.401 137.416 138.07 138.242 138.07H204.861C205.687 138.07 206.356 137.401 206.356 136.575V101.856C206.356 101.031 205.687 100.361 204.861 100.361Z" stroke="#190000" stroke-width="0.5" stroke-linecap="round" stroke-linejoin="round"/>
<path opacity="0.36" d="M171.551 128.533C177.649 128.533 182.592 123.584 182.592 117.479C182.592 111.374 177.649 106.425 171.551 106.425C165.454 106.425 160.511 111.374 160.511 117.479C160.511 123.584 165.454 128.533 171.551 128.533Z" fill="#EFF3FC" stroke="#190000" stroke-width="0.5" stroke-linecap="round" stroke-linejoin="round"/>
<path d="M168.475 117.479V113.406C168.475 113.284 168.507 113.165 168.568 113.059C168.629 112.954 168.716 112.867 168.821 112.806C168.926 112.745 169.046 112.713 169.167 112.713C169.289 112.713 169.408 112.745 169.514 112.806L173.036 114.842L176.559 116.879C176.665 116.939 176.752 117.027 176.813 117.132C176.873 117.238 176.905 117.357 176.905 117.479C176.905 117.6 176.873 117.72 176.813 117.825C176.752 117.93 176.665 118.018 176.559 118.079L173.036 120.115L169.514 122.152C169.408 122.212 169.289 122.244 169.167 122.244C169.046 122.244 168.926 122.212 168.821 122.151C168.716 122.091 168.629 122.003 168.568 121.898C168.507 121.793 168.475 121.673 168.475 121.552V117.479Z" fill="#EFF3FC" stroke="#190000" stroke-width="0.5" stroke-linecap="round" stroke-linejoin="round"/>
<path d="M148.35 110.5C147.719 111.236 146.945 111.835 146.075 112.263" stroke="#6F4EB9" stroke-linecap="round" stroke-linejoin="round"/>
<path d="M199.204 131.19L197.481 131.764" stroke="#6F4EB9" stroke-width="11" stroke-linecap="round" stroke-linejoin="round"/>
</svg>
